SplineFontDB: 3.0
FontName: CMUTypewriter-Italic
FullName: CMU Typewriter Text Italic
FamilyName: CMU Typewriter Text
Weight: Medium
Copyright: Converted by Andrey V. Panov from TeX fonts
UComments: "2009-6-18: Created." 
Version: 0.7.0
ItalicAngle: -14.04
UnderlinePosition: -100
UnderlineWidth: 50
Ascent: 775
Descent: 225
LayerCount: 2
Layer: 0 0 "+BBcEMAQ0BD0EOAQ5 +BD8EOwQwBD0A"  1
Layer: 1 0 "+BB8ENQRABDUENAQ9BDgEOQAA +BD8EOwQwBD0A"  0
NeedsXUIDChange: 1
XUID: [1067 11853396]
FSType: 0
OS2Version: 0
OS2_WeightWidthSlopeOnly: 0
OS2_UseTypoMetrics: 1
CreationTime: 1245313519
ModificationTime: 1245314028
PfmFamily: 17
TTFWeight: 500
TTFWidth: 5
LineGap: 200
VLineGap: 90
Panose: 2 0 6 9 0 0 0 0 0 0
OS2TypoAscent: 0
OS2TypoAOffset: 1
OS2TypoDescent: 0
OS2TypoDOffset: 1
OS2TypoLinegap: 200
OS2WinAscent: 827
OS2WinAOffset: 0
OS2WinDescent: 233
OS2WinDOffset: 0
HheadAscent: 827
HheadAOffset: 0
HheadDescent: -233
HheadDOffset: 0
Lookup: 1 0 0 "Case substitutions"  {"Case substitutions subtable"  } ['case' ('cyrl' <'dflt' > 'grek' <'dflt' > 'latn' <'dflt' > ) ]
Lookup: 1 0 0 "Italic substitutions"  {"Italic substitutions cyr"  } ['locl' ('cyrl' <'MKD ' 'SRB ' > ) ]
Lookup: 3 0 0 "Greek alternatives"  {"Greek alternatives subtable"  } ['salt' ('grek' <'dflt' > ) ]
Lookup: 1 0 0 "Greek substitutions"  {"Greek substitutions subtable"  } ['locl' ('grek' <'dflt' > ) ]
Lookup: 4 0 0 "Latin Dutch ligatures"  {"Latin Dutch ligatures subtable"  } ['dlig' ('latn' <'NLD ' > ) ]
Lookup: 4 0 0 "Latin ligatures excepting Turkic"  {"Latin ligatures excepting Turkic subtable"  } ['dlig' ('latn' <'dflt' 'NLD ' 'VIT ' > ) ]
Lookup: 4 0 0 "Latin ligatures"  {"Latin ligatures subtable"  } ['dlig' ('latn' <'dflt' 'NLD ' 'VIT ' 'TRK ' 'AZE ' > ) ]
Lookup: 4 0 0 "Cyrillic ligatures"  {"Cyrillic ligatures subtable"  } ['dlig' ('cyrl' <'dflt' 'MKD ' 'SRB ' > ) ]
Lookup: 3 0 0 "Latin alternatives"  {"Latin alternatives subtable"  } ['salt' ('latn' <'dflt' > ) ]

StartChar: .notdef
Encoding: 0 0 0
Width: 525
Flags: HW
HStem: 10 60<105 420> 705 60<105 420>
VStem: 10 60<112 663> 455 60<112 663>
DStem2: 105 705 70 663 0.508289 -0.861187<18.3797 309.738 396.718 688.585> 70 112 105 70 0.508289 0.861187<0 291.358 378.338 670.205>
LayerCount: 2
Fore
SplineSet
10 10 m 1
 10 765 l 1
 515 765 l 1
 515 10 l 1
 10 10 l 1
70 112 m 1
 232 388 l 1
 70 663 l 1
 70 112 l 1
105 70 m 1
 420 70 l 1
 262 337 l 1
 105 70 l 1
105 705 m 1
 262 438 l 1
 420 705 l 1
 105 705 l 1
292 388 m 1
 455 112 l 1
 455 663 l 1
 292 388 l 1
EndSplineSet
EndChar

StartChar: SF100000
Encoding: 9472 9472 1
Width: 525
Flags: HW
HStem: 240 70<0 525>
LayerCount: 2
Fore
SplineSet
-0 240 m 1
 -0 310 l 1
 525 310 l 1
 525 240 l 1
 -0 240 l 1
EndSplineSet
EndChar

StartChar: SF110000
Encoding: 9474 9474 2
Width: 525
Flags: HW
VStem: 227 70<-355 837>
LayerCount: 2
Fore
SplineSet
227 -355 m 1
 227 837 l 1
 297 837 l 1
 297 -355 l 1
 227 -355 l 1
EndSplineSet
EndChar

StartChar: SF010000
Encoding: 9484 9484 3
Width: 525
Flags: HW
HStem: 240 70<297 525>
VStem: 227 70<-355 240>
LayerCount: 2
Fore
SplineSet
227 310 m 1
 525 310 l 1
 525 240 l 1
 297 240 l 1
 297 -355 l 1
 227 -355 l 1
 227 310 l 1
EndSplineSet
EndChar

StartChar: SF030000
Encoding: 9488 9488 4
Width: 525
Flags: HW
HStem: 240 70<0 227>
VStem: 227 70<-355 240>
LayerCount: 2
Fore
SplineSet
0 240 m 1
 0 310 l 1
 297 310 l 1
 297 -355 l 1
 227 -355 l 1
 227 240 l 1
 0 240 l 1
EndSplineSet
EndChar

StartChar: SF020000
Encoding: 9492 9492 5
Width: 525
Flags: HW
HStem: 240 70<297 525>
VStem: 227 70<310 837>
LayerCount: 2
Fore
SplineSet
227 240 m 1
 227 837 l 1
 297 837 l 1
 297 310 l 1
 525 310 l 1
 525 240 l 1
 227 240 l 1
EndSplineSet
EndChar

StartChar: SF040000
Encoding: 9496 9496 6
Width: 525
Flags: HW
HStem: 240 70<0 227>
VStem: 227 70<310 837>
LayerCount: 2
Fore
SplineSet
0 240 m 1
 0 310 l 1
 227 310 l 1
 227 837 l 1
 297 837 l 1
 297 240 l 1
 0 240 l 1
EndSplineSet
EndChar

StartChar: SF080000
Encoding: 9500 9500 7
Width: 525
Flags: HW
HStem: 240 70<297 525>
VStem: 227 70<-355 240 310 837>
LayerCount: 2
Fore
SplineSet
227 -355 m 1
 227 837 l 1
 297 837 l 1
 297 310 l 1
 525 310 l 1
 525 240 l 1
 297 240 l 1
 297 -355 l 1
 227 -355 l 1
EndSplineSet
EndChar

StartChar: SF090000
Encoding: 9508 9508 8
Width: 525
Flags: HW
HStem: 240 70<0 227>
VStem: 227 70<-355 240 310 837>
LayerCount: 2
Fore
SplineSet
0 240 m 1
 0 310 l 1
 227 310 l 1
 227 837 l 1
 297 837 l 1
 297 -355 l 1
 227 -355 l 1
 227 240 l 1
 0 240 l 1
EndSplineSet
EndChar

StartChar: SF060000
Encoding: 9516 9516 9
Width: 525
Flags: HW
HStem: 240 70<0 227 297 525>
VStem: 227 70<-355 240>
LayerCount: 2
Fore
SplineSet
0 240 m 1
 0 310 l 1
 525 310 l 1
 525 240 l 1
 297 240 l 1
 297 -355 l 1
 227 -355 l 1
 227 240 l 1
 0 240 l 1
EndSplineSet
EndChar

StartChar: SF070000
Encoding: 9524 9524 10
Width: 525
Flags: HW
HStem: 240 70<0 227 297 525>
VStem: 227 70<310 837>
LayerCount: 2
Fore
SplineSet
0 240 m 1
 0 310 l 1
 227 310 l 1
 227 837 l 1
 297 837 l 1
 297 310 l 1
 525 310 l 1
 525 240 l 1
 0 240 l 1
EndSplineSet
EndChar

StartChar: SF050000
Encoding: 9532 9532 11
Width: 525
Flags: HW
HStem: 240 70<0 227 297 525>
VStem: 227 70<-355 240 310 837>
LayerCount: 2
Fore
SplineSet
-0 240 m 1
 -0 310 l 1
 227 310 l 1
 227 837 l 1
 297 837 l 1
 297 310 l 1
 525 310 l 1
 525 240 l 1
 297 240 l 1
 297 -355 l 1
 227 -355 l 1
 227 240 l 1
 -0 240 l 1
EndSplineSet
EndChar

StartChar: SF510000
Encoding: 9554 9554 14
Width: 525
Flags: HW
HStem: 160 70<297 525> 320 70<297 525>
VStem: 227 70<-355 160 230 320>
LayerCount: 2
Fore
SplineSet
227 -355 m 1
 227 390 l 1
 525 390 l 1
 525 320 l 1
 297 320 l 1
 297 230 l 1
 525 230 l 1
 525 160 l 1
 297 160 l 1
 297 -355 l 1
 227 -355 l 1
EndSplineSet
EndChar

StartChar: SF520000
Encoding: 9555 9555 15
Width: 525
Flags: HW
HStem: 240 70<217 307 377 525>
VStem: 147 70<-355 240> 307 70<-355 240>
LayerCount: 2
Fore
SplineSet
147 310 m 1
 525 310 l 1
 525 240 l 1
 377 240 l 1
 377 -355 l 1
 307 -355 l 1
 307 240 l 1
 217 240 l 1
 217 -355 l 1
 147 -355 l 1
 147 310 l 1
EndSplineSet
EndChar

StartChar: SF390000
Encoding: 9556 9556 16
Width: 525
Flags: HW
HStem: 160 70<377 525> 320 70<217 525>
VStem: 147 70<-355 320> 307 70<-355 160>
LayerCount: 2
Fore
SplineSet
147 -355 m 1
 147 390 l 1
 525 390 l 1
 525 320 l 1
 217 320 l 1
 217 -355 l 1
 147 -355 l 1
307 230 m 1
 525 230 l 1
 525 160 l 1
 377 160 l 1
 377 -355 l 1
 307 -355 l 1
 307 230 l 1
EndSplineSet
EndChar

StartChar: SF220000
Encoding: 9557 9557 17
Width: 525
Flags: HW
HStem: 160 70<0 227> 320 70<0 227>
VStem: 227 70<-355 160 230 320>
LayerCount: 2
Fore
SplineSet
0 160 m 1
 0 230 l 1
 227 230 l 1
 227 320 l 1
 0 320 l 1
 0 390 l 1
 297 390 l 1
 297 -355 l 1
 227 -355 l 1
 227 160 l 1
 0 160 l 1
EndSplineSet
EndChar

StartChar: SF210000
Encoding: 9558 9558 18
Width: 525
Flags: HW
HStem: 240 70<0 147 217 307>
VStem: 147 70<-355 240> 307 70<-355 240>
LayerCount: 2
Fore
SplineSet
0 240 m 1
 0 310 l 1
 377 310 l 1
 377 -355 l 1
 307 -355 l 1
 307 240 l 1
 217 240 l 1
 217 -355 l 1
 147 -355 l 1
 147 240 l 1
 0 240 l 1
EndSplineSet
EndChar

StartChar: SF250000
Encoding: 9559 9559 19
Width: 525
Flags: HW
HStem: 160 70<0 147> 320 70<0 307>
VStem: 147 70<-355 160> 307 70<-355 320>
LayerCount: 2
Fore
SplineSet
0 160 m 1
 0 230 l 1
 217 230 l 1
 217 -355 l 1
 147 -355 l 1
 147 160 l 1
 0 160 l 1
0 320 m 1
 0 390 l 1
 377 390 l 1
 377 -355 l 1
 307 -355 l 1
 307 320 l 1
 0 320 l 1
EndSplineSet
EndChar

StartChar: SF500000
Encoding: 9560 9560 20
Width: 525
Flags: HW
HStem: 160 70<297 525> 320 70<297 525>
VStem: 227 70<230 320 390 837>
LayerCount: 2
Fore
SplineSet
227 160 m 1
 227 837 l 1
 297 837 l 1
 297 390 l 1
 525 390 l 1
 525 320 l 1
 297 320 l 1
 297 230 l 1
 525 230 l 1
 525 160 l 1
 227 160 l 1
EndSplineSet
EndChar

StartChar: SF490000
Encoding: 9561 9561 21
Width: 525
Flags: HW
HStem: 240 70<217 307 377 525>
VStem: 147 70<310 837> 307 70<310 837>
LayerCount: 2
Fore
SplineSet
147 240 m 1
 147 837 l 1
 217 837 l 1
 217 310 l 1
 307 310 l 1
 307 837 l 1
 377 837 l 1
 377 310 l 1
 525 310 l 1
 525 240 l 1
 147 240 l 1
EndSplineSet
EndChar

StartChar: SF380000
Encoding: 9562 9562 22
Width: 525
Flags: HW
HStem: 160 70<217 525> 320 70<377 525>
VStem: 147 70<230 837> 307 70<390 837>
LayerCount: 2
Fore
SplineSet
147 160 m 1
 147 837 l 1
 217 837 l 1
 217 230 l 1
 525 230 l 1
 525 160 l 1
 147 160 l 1
307 320 m 1
 307 837 l 1
 377 837 l 1
 377 390 l 1
 525 390 l 1
 525 320 l 1
 307 320 l 1
EndSplineSet
EndChar

StartChar: SF280000
Encoding: 9563 9563 23
Width: 525
Flags: HW
HStem: 160 70<0 227> 320 70<0 227>
VStem: 227 70<230 320 390 837>
LayerCount: 2
Fore
SplineSet
0 160 m 1
 0 230 l 1
 227 230 l 1
 227 320 l 1
 0 320 l 1
 0 390 l 1
 227 390 l 1
 227 837 l 1
 297 837 l 1
 297 160 l 1
 0 160 l 1
EndSplineSet
EndChar

StartChar: SF270000
Encoding: 9564 9564 24
Width: 525
Flags: HW
HStem: 240 70<0 147 217 307>
VStem: 147 70<310 837> 307 70<310 837>
LayerCount: 2
Fore
SplineSet
0 240 m 1
 0 310 l 1
 147 310 l 1
 147 837 l 1
 217 837 l 1
 217 310 l 1
 307 310 l 1
 307 837 l 1
 377 837 l 1
 377 240 l 1
 0 240 l 1
EndSplineSet
EndChar

StartChar: SF260000
Encoding: 9565 9565 25
Width: 525
Flags: HW
HStem: 160 70<0 307> 320 70<0 147>
VStem: 147 70<390 837> 307 70<230 837>
LayerCount: 2
Fore
SplineSet
0 160 m 1
 0 230 l 1
 307 230 l 1
 307 837 l 1
 377 837 l 1
 377 160 l 1
 0 160 l 1
0 320 m 1
 0 390 l 1
 147 390 l 1
 147 837 l 1
 217 837 l 1
 217 320 l 1
 0 320 l 1
EndSplineSet
EndChar

StartChar: SF360000
Encoding: 9566 9566 26
Width: 525
Flags: HW
HStem: 160 70<297 525> 320 70<297 525>
VStem: 227 70<-355 160 230 320 390 837>
LayerCount: 2
Fore
SplineSet
227 -355 m 1
 227 837 l 1
 297 837 l 1
 297 390 l 1
 525 390 l 1
 525 320 l 1
 297 320 l 1
 297 230 l 1
 525 230 l 1
 525 160 l 1
 297 160 l 1
 297 -355 l 1
 227 -355 l 1
EndSplineSet
EndChar

StartChar: SF370000
Encoding: 9567 9567 27
Width: 525
Flags: HW
HStem: 240 70<377 525>
VStem: 147 70<-355 837> 307 70<-355 240 310 837>
LayerCount: 2
Fore
SplineSet
307 -355 m 1
 307 837 l 1
 377 837 l 1
 377 310 l 1
 525 310 l 1
 525 240 l 1
 377 240 l 1
 377 -355 l 1
 307 -355 l 1
EndSplineSet
Refer: 2 9474 S 1 0 0 1 -80 0 2
EndChar

StartChar: SF420000
Encoding: 9568 9568 28
Width: 525
Flags: HW
HStem: 160 70<377 525> 320 70<377 525>
VStem: 147 70<-355 837> 307 218<160 230 320 390> 307 70<-355 160 390 837>
LayerCount: 2
Fore
SplineSet
307 230 m 1xf0
 525 230 l 1
 525 160 l 1xf0
 377 160 l 1
 377 -355 l 1
 307 -355 l 1xe8
 307 230 l 1xf0
307 320 m 1xf0
 307 837 l 1
 377 837 l 1
 377 390 l 1xe8
 525 390 l 1
 525 320 l 1
 307 320 l 1xf0
EndSplineSet
Refer: 2 9474 S 1 0 0 1 -80 0 2
EndChar

StartChar: SF190000
Encoding: 9569 9569 29
Width: 525
Flags: HW
HStem: 160 70<0 227> 320 70<0 227>
VStem: 227 70<-355 160 230 320 390 837>
LayerCount: 2
Fore
SplineSet
0 160 m 1
 0 230 l 1
 227 230 l 1
 227 320 l 1
 0 320 l 1
 0 390 l 1
 227 390 l 1
 227 837 l 1
 297 837 l 1
 297 -355 l 1
 227 -355 l 1
 227 160 l 1
 0 160 l 1
EndSplineSet
EndChar

StartChar: SF200000
Encoding: 9570 9570 30
Width: 525
Flags: HW
HStem: 240 70<0 147>
VStem: 147 70<-355 240 310 837> 307 70<-355 837>
LayerCount: 2
Fore
SplineSet
0 240 m 1
 0 310 l 1
 147 310 l 1
 147 837 l 1
 217 837 l 1
 217 -355 l 1
 147 -355 l 1
 147 240 l 1
 0 240 l 1
EndSplineSet
Refer: 2 9474 S 1 0 0 1 80 0 2
EndChar

StartChar: SF230000
Encoding: 9571 9571 31
Width: 525
Flags: HW
HStem: 160 70<0 147> 320 70<0 147>
VStem: 0 217<160 230 320 390> 147 70<-355 160 390 837> 307 70<-355 837>
LayerCount: 2
Fore
SplineSet
0 160 m 1
 0 230 l 1
 217 230 l 1xe8
 217 -355 l 1
 147 -355 l 1
 147 160 l 1xd8
 0 160 l 1
0 320 m 1xe8
 0 390 l 1xe8
 147 390 l 1
 147 837 l 1
 217 837 l 1xd8
 217 320 l 1
 0 320 l 1xe8
EndSplineSet
Refer: 2 9474 S 1 0 0 1 80 0 2
EndChar

StartChar: SF470000
Encoding: 9572 9572 32
Width: 525
Flags: HW
HStem: 160 70<0 227 297 525> 320 70<0 525>
VStem: 227 70<-355 160>
LayerCount: 2
Fore
SplineSet
0 160 m 1
 0 230 l 1
 525 230 l 1
 525 160 l 1
 297 160 l 1
 297 -355 l 1
 227 -355 l 1
 227 160 l 1
 0 160 l 1
EndSplineSet
Refer: 1 9472 S 1 0 0 1 0 80 2
EndChar

StartChar: SF480000
Encoding: 9573 9573 33
Width: 525
Flags: HW
HStem: 240 70<0 147 217 307 377 525>
VStem: 147 70<-355 240> 307 70<-355 240>
LayerCount: 2
Fore
SplineSet
0 240 m 1
 0 310 l 1
 525 310 l 1
 525 240 l 1
 377 240 l 1
 377 -355 l 1
 307 -355 l 1
 307 240 l 1
 217 240 l 1
 217 -355 l 1
 147 -355 l 1
 147 240 l 1
 0 240 l 1
EndSplineSet
EndChar

StartChar: SF410000
Encoding: 9574 9574 34
Width: 525
Flags: HW
HStem: 160 70<0 147 377 525> 320 70<0 525>
VStem: 147 70<-355 160> 307 70<-355 160>
LayerCount: 2
Fore
SplineSet
0 160 m 1
 0 230 l 1
 217 230 l 1
 217 -355 l 1
 147 -355 l 1
 147 160 l 1
 0 160 l 1
307 230 m 1
 525 230 l 1
 525 160 l 1
 377 160 l 1
 377 -355 l 1
 307 -355 l 1
 307 230 l 1
EndSplineSet
Refer: 1 9472 S 1 0 0 1 0 80 2
EndChar

StartChar: SF450000
Encoding: 9575 9575 35
Width: 525
Flags: HW
HStem: 160 70<0 525> 320 70<0 227 297 525>
VStem: 227 70<390 837>
LayerCount: 2
Fore
SplineSet
0 320 m 1
 0 390 l 1
 227 390 l 1
 227 837 l 1
 297 837 l 1
 297 390 l 1
 525 390 l 1
 525 320 l 1
 0 320 l 1
EndSplineSet
Refer: 1 9472 S 1 0 0 1 0 -80 2
EndChar

StartChar: SF460000
Encoding: 9576 9576 36
Width: 525
Flags: HW
HStem: 240 70<0 147 217 307 377 525>
VStem: 147 70<310 837> 307 70<310 837>
LayerCount: 2
Fore
SplineSet
0 240 m 1
 0 310 l 1
 147 310 l 1
 147 837 l 1
 217 837 l 1
 217 310 l 1
 307 310 l 1
 307 837 l 1
 377 837 l 1
 377 310 l 1
 525 310 l 1
 525 240 l 1
 0 240 l 1
EndSplineSet
EndChar

StartChar: SF400000
Encoding: 9577 9577 37
Width: 525
Flags: HW
HStem: 160 70<0 525> 320 70<0 147 377 525>
VStem: 147 70<390 837> 307 70<390 837>
LayerCount: 2
Fore
SplineSet
0 320 m 1
 0 390 l 1
 147 390 l 1
 147 837 l 1
 217 837 l 1
 217 320 l 1
 0 320 l 1
307 320 m 1
 307 837 l 1
 377 837 l 1
 377 390 l 1
 525 390 l 1
 525 320 l 1
 307 320 l 1
EndSplineSet
Refer: 1 9472 S 1 0 0 1 0 -80 2
EndChar

StartChar: SF540000
Encoding: 9578 9578 38
Width: 525
Flags: HW
HStem: 160 70<0 227 297 525> 320 70<0 227 297 525>
VStem: 227 70<-355 160 230 320 390 837>
LayerCount: 2
Fore
SplineSet
0 160 m 1
 0 230 l 1
 227 230 l 1
 227 320 l 1
 0 320 l 1
 0 390 l 1
 227 390 l 1
 227 837 l 1
 297 837 l 1
 297 390 l 1
 525 390 l 1
 525 320 l 1
 297 320 l 1
 297 230 l 1
 525 230 l 1
 525 160 l 1
 297 160 l 1
 297 -355 l 1
 227 -355 l 1
 227 160 l 1
 0 160 l 1
EndSplineSet
EndChar

StartChar: SF530000
Encoding: 9579 9579 39
Width: 525
Flags: HW
HStem: 240 70<0 147 217 307 377 525>
VStem: 147 70<-355 240 310 837> 307 70<-355 240 310 837>
LayerCount: 2
Fore
SplineSet
-0 240 m 1
 -0 310 l 1
 147 310 l 1
 147 837 l 1
 217 837 l 1
 217 310 l 1
 307 310 l 1
 307 837 l 1
 377 837 l 1
 377 310 l 1
 525 310 l 1
 525 240 l 1
 377 240 l 1
 377 -355 l 1
 307 -355 l 1
 307 240 l 1
 217 240 l 1
 217 -355 l 1
 147 -355 l 1
 147 240 l 1
 -0 240 l 1
EndSplineSet
EndChar

StartChar: uni262D
Encoding: 9773 9773 40
Width: 525
Flags: HW
TeX: 117 0
HStem: 0 20G<30.5 60.5 462.5 467> 39 76<244.267 355.503> 102 51<98.531 128.337>
VStem: 89 43<98.6716 137.734> 431 65<186.303 382.211>
DStem2: 84 357 128 301 0.626941 0.779067<0 63.6069 102.652 165.701>
LayerCount: 2
Fore
SplineSet
18 18 m 0
 18 64 89 102 89 128 c 0
 89 148 93 153 104 153 c 0xb8
 115 153 118 159 132 180 c 1
 175 152 232 115 298 115 c 0
 336 115 356 128 356 129 c 0
 356 135 311 186 178 363 c 1
 128 301 l 1
 84 357 l 1
 188 486 l 1
 264 470 l 1
 203 393 l 1
 373 190 l 1
 396 165 l 1
 401 165 431 218 431 295 c 0
 431 473 263 587 263 593 c 1
 301 593 496 478 496 267 c 0
 496 167 458 114 450 100 c 1
 493 46 496 44 496 38 c 0
 496 17 470 -1 464 -1 c 0xd8
 461 -1 462 -3 409 62 c 1
 387 51 366 39 328 39 c 0xd8
 225 39 147 138 136 138 c 0
 132 138 132 134 132 130 c 2
 132 118 l 2
 132 108 128 102 120 102 c 0
 91 102 84 0 37 0 c 0
 24 0 18 7 18 18 c 0
EndSplineSet
EndChar

StartChar: longs
Encoding: 383 383 41
Width: 525
Flags: HW
TeX: 108 0
HStem: -228 62<131.531 189.484> 369 61<209.467 306> 555 61<411.699 483.168>
VStem: 45 90<-161.625 -109.27> 480 90<498.136 550.625>
DStem2: 265 135 312 5 0.176031 0.984385<-235.789 237.563 299.547 438.964>
AnchorPoint: "above" 427 611 basechar 0
AnchorPoint: "below" 189 -222 basechar 0
LayerCount: 2
Fore
SplineSet
45 -155 m 1
 46 -121 68 -100 95 -100 c 0
 117 -100 135 -115 135 -139 c 0
 135 -146 134 -154 130 -162 c 1
 140 -165 148 -166 154 -166 c 0
 221 -166 245 22 265 135 c 2
 306 369 l 1
 241 369 l 2
 218 369 208 382 208 397 c 0
 208 410 213 430 243 430 c 2
 317 430 l 1
 334 544 342 616 454 616 c 0
 546 616 570 577 570 544 c 0
 570 510 547 489 521 489 c 0
 498 489 480 504 480 528 c 0
 480 535 482 543 485 551 c 1
 475 553 464 555 453 555 c 0
 403 554 406 528 388 430 c 2
 312 5 l 1
 289 -111 277 -138 256 -167 c 0
 243 -185 211 -228 152 -228 c 0
 91 -228 46 -200 45 -155 c 1
EndSplineSet
EndChar

StartChar: circumflex.cap
Encoding: 65536 -1 43
Width: 525
Flags: HW
HStem: 659 165
VStem: 274 326<684 711>
AnchorPoint: "above" 418 622 mark 0
LayerCount: 2
Fore
SplineSet
274 698 m 0
 274 719 280 716 419 803 c 0
 451 823 453 824 462 824 c 0
 478 824 488 811 541 763 c 0
 600 711 600 711 600 698 c 0
 600 680 578 659 561 659 c 0
 547 659 539 669 456 751 c 1
 319 660 319 659 307 659 c 0
 286 659 274 684 274 698 c 0
EndSplineSet
EndChar

StartChar: dieresis.cap
Encoding: 65537 -1 44
Width: 525
Flags: HW
HStem: 719 100<314.764 390.265 519.25 595.125>
VStem: 302 101<732.087 806.4> 506 102<731.681 805.902>
AnchorPoint: "above" 418 622 mark 0
LayerCount: 2
Fore
SplineSet
506 764 m 0
 506 793 534 819 562 819 c 0
 589 819 608 797 608 774 c 0
 608 744 580 719 552 719 c 0
 526 719 506 739 506 764 c 0
EndSplineSet
Refer: 405 183 S 1 0 0 1 36 550 2
EndChar

StartChar: dotaccent.cap
Encoding: 65538 -1 45
Width: 525
Flags: HW
HStem: 672 100<405.773 481.236>
VStem: 393 101<684.464 759.319>
AnchorPoint: "above" 418 622 mark 0
LayerCount: 2
Fore
SplineSet
393 717 m 0
 393 747 421 772 448 772 c 0
 472 772 494 754 494 727 c 0
 494 699 469 672 438 672 c 0
 413 672 393 691 393 717 c 0
EndSplineSet
EndChar

StartChar: caron.cap
Encoding: 65539 -1 46
Width: 525
Flags: HW
HStem: 636 168
VStem: 311 290<767 790>
AnchorPoint: "above" 418 622 mark 0
LayerCount: 2
Fore
SplineSet
311 775 m 0
 311 790 325 804 341 804 c 2
 344 804 l 2
 352 804 364 799 434 711 c 1
 559 801 557 804 572 804 c 0
 587 804 601 791 601 775 c 0
 601 760 589 751 582 746 c 0
 442 636 438 636 428 636 c 0
 406 636 401 656 334 736 c 0
 313 762 311 767 311 775 c 0
EndSplineSet
EndChar

StartChar: ring.cap
Encoding: 65540 -1 47
Width: 525
Flags: HW
HStem: 590 62<386.417 476.174> 766 61<405.069 493.462>
VStem: 320 60<658.481 742.358> 499 61<674.787 759.487>
AnchorPoint: "above" 418 622 mark 0
LayerCount: 2
Back
SplineSet
141 143 m 0xde
 141 199 161 248 234 549 c 1
 219 549 l 2
 188 549 183 567 183 579 c 0
 183 608 210 611 219 611 c 2
 348 611 l 1
 328 630 319 652 319 679 c 0
 319 758 396 827 468 827 c 0
 523 827 559 789 559 738 c 0
 559 711 548 655 481 611 c 1
 593 611 l 2
 624 611 630 594 630 582 c 0
 630 552 608 549 591 549 c 2
 563 549 l 1
 560 533 563 549 481 219 c 0
 431 18 309 -11 266 -11 c 0
 191 -11 141 54 141 143 c 0xde
211 140 m 0
 211 88 233 51 267 51 c 0
 303 51 370 94 402 193 c 0
 406 206 409 221 413 235 c 2
 483 514 l 2
 486 526 489 537 491 549 c 1
 476 549 l 2xde
 451 549 441 561 441 577 c 0
 441 583 442 589 444 595 c 1
 433 592 421 590 409 590 c 0xbe
 393 590 380 594 369 598 c 1
 371 593 373 588 373 583 c 0
 372 551 348 549 334 549 c 2
 306 549 l 1
 303 536 300 524 297 512 c 2
 225 223 l 2
 221 207 211 173 211 140 c 0
379 695 m 0
 379 669 399 652 425 652 c 0xbe
 467 652 498 691 498 723 c 0
 498 749 478 766 453 766 c 0
 416 766 379 731 379 695 c 0
EndSplineSet
Fore
SplineSet
320 679 m 0
 320 758 397 827 469 827 c 0
 524 827 560 789 560 738 c 0
 560 667 489 590 410 590 c 0
 353 590 320 631 320 679 c 0
380 695 m 0
 380 669 400 652 426 652 c 0
 468 652 499 691 499 723 c 0
 499 749 479 766 454 766 c 0
 417 766 380 731 380 695 c 0
EndSplineSet
EndChar

StartChar: breve.cap
Encoding: 65541 -1 48
Width: 525
Flags: HW
HStem: 652 64<359.783 519.916>
VStem: 280 62<734.747 817.192> 573 63<760.914 817.463>
AnchorPoint: "above" 418 622 mark 0
LayerCount: 2
Fore
SplineSet
280 768 m 0
 280 805 293 819 313 819 c 0
 337 819 344 801 344 791 c 0
 344 784 342 777 342 770 c 0
 342 738 382 716 434 716 c 0
 489 716 554 742 573 792 c 0
 575 796 580 819 605 819 c 0
 622 819 636 808 636 790 c 0
 636 753 571 652 433 652 c 0
 343 652 280 698 280 768 c 0
EndSplineSet
EndChar

StartChar: grave
Encoding: 96 96 49
Width: 525
Flags: HW
TeX: 610 0
ItalicCorrection: 173
HStem: 506 133
VStem: 285 169<546 603>
LayerCount: 2
Fore
SplineSet
285 603 m 0
 285 621 302 639 322 639 c 0
 336 639 336 637 434 575 c 0
 437 573 454 563 454 546 c 0
 454 529 435 506 417 506 c 2
 414 506 l 2
 406 506 403 510 308 570 c 0
 297 577 285 586 285 603 c 0
EndSplineSet
EndChar

StartChar: acute
Encoding: 180 180 50
Width: 525
Flags: HW
TeX: 610 0
ItalicCorrection: 173
HStem: 506 133
VStem: 342 198
LayerCount: 2
Fore
SplineSet
342 547 m 0
 343 566 359 572 369 577 c 0
 477 629 495 639 507 639 c 0
 524 639 539 625 540 606 c 1
 540 584 522 574 511 569 c 0
 399 515 384 506 374 506 c 0
 349 506 342 536 342 547 c 0
EndSplineSet
EndChar

StartChar: circumflex
Encoding: 710 710 51
Width: 525
Flags: HW
TeX: 638 0
HStem: 488 156
VStem: 231 325<513 542>
LayerCount: 2
Fore
SplineSet
231 527 m 0
 231 548 233 544 394 636 c 0
 401 640 408 644 416 644 c 2
 417 644 l 2
 429 644 428 642 537 556 c 0
 543 551 556 542 556 527 c 0
 556 511 536 488 517 488 c 0
 503 488 505 490 410 572 c 1
 295 501 l 2
 286 496 276 488 263 488 c 0
 242 488 231 513 231 527 c 0
EndSplineSet
EndChar

StartChar: tilde
Encoding: 732 732 52
Width: 525
Flags: HW
TeX: 638 0
ItalicCorrection: 173
HStem: 491 66<419.317 494.896> 544 67<303.296 379.534>
LayerCount: 2
Fore
SplineSet
218 523 m 0
 218 534 223 541 235 550 c 0
 261 569 316 611 359 611 c 0x40
 413 611 424 557 446 557 c 0x80
 478 557 529 611 551 611 c 0x40
 563 611 580 598 580 579 c 0
 580 568 575 561 564 552 c 0
 498 501 461 491 439 491 c 0x80
 381 491 379 544 351 544 c 0x40
 321 544 268 491 249 491 c 0x80
 234 491 218 505 218 523 c 0
EndSplineSet
EndChar

StartChar: ring
Encoding: 730 730 55
Width: 525
Flags: HW
TeX: 638 0
ItalicCorrection: 173
HStem: 474 36<361.5 405.712> 611 36<397.506 441>
VStem: 323 57<510.082 600.539> 423 57<520.128 610.505>
LayerCount: 2
Fore
SplineSet
323 536 m 0
 323 593 375 647 423 647 c 0
 459 647 480 619 480 584 c 0
 480 527 428 474 380 474 c 0
 343 474 323 501 323 536 c 0
380 530 m 0
 380 516 384 510 389 510 c 0
 403 510 423 555 423 590 c 0
 423 604 419 611 414 611 c 0
 401 611 380 566 380 530 c 0
EndSplineSet
EndChar

StartChar: caron
Encoding: 711 711 56
Width: 525
Flags: HW
TeX: 638 0
HStem: 484 155
VStem: 270 289<594 623>
LayerCount: 2
Fore
SplineSet
270 609 m 0
 270 623 282 639 299 639 c 0
 315 639 325 626 396 559 c 1
 461 598 512 639 530 639 c 0
 545 639 559 626 559 610 c 0
 559 594 546 585 539 580 c 0
 404 487 404 484 390 484 c 0
 378 484 369 493 364 498 c 0
 277 590 270 594 270 609 c 0
EndSplineSet
EndChar

StartChar: breve
Encoding: 728 728 57
Width: 525
Flags: HW
TeX: 638 0
ItalicCorrection: 173
HStem: 498 65<303.147 503.052>
VStem: 236 62<575.02 637.01>
LayerCount: 2
Fore
SplineSet
236 594 m 0
 236 615 243 639 269 639 c 0
 286 639 299 628 299 611 c 0
 299 607 298 601 298 597 c 0
 298 568 360 563 395 563 c 0
 562 563 508 638 561 638 c 0
 577 638 591 627 591 610 c 0
 591 588 559 498 394 498 c 0
 264 498 236 556 236 594 c 0
EndSplineSet
EndChar

StartChar: macron
Encoding: 175 175 58
Width: 525
Flags: HW
TeX: 610 0
ItalicCorrection: 173
HStem: 559 63<251.923 567.214>
VStem: 250 319<560.905 619.993>
LayerCount: 2
Fore
SplineSet
250 588 m 0
 250 597 253 622 286 622 c 2
 532 622 l 2
 551 622 569 616 569 593 c 0
 569 581 565 559 533 559 c 2
 284 559 l 2
 254 559 250 579 250 588 c 0
EndSplineSet
EndChar

StartChar: dotaccent
Encoding: 729 729 59
Width: 525
Flags: HW
TeX: 610 0
ItalicCorrection: 173
HStem: 511 100<386.464 462.152>
VStem: 374 101<523.75 598.319>
LayerCount: 2
Fore
SplineSet
374 556 m 0
 374 586 401 611 429 611 c 0
 453 611 475 593 475 566 c 0
 475 536 447 511 419 511 c 0
 394 511 374 530 374 556 c 0
EndSplineSet
EndChar

StartChar: cedilla
Encoding: 184 184 60
Width: 525
Flags: HW
TeX: 0 194
ItalicCorrection: 173
HStem: -208 59<100.25 260.328>
VStem: 218 85<-12.3401 38.6356> 284 71<-125.965 -69.8369>
LayerCount: 2
Fore
SplineSet
99 -180 m 0
 99 -172 102 -155 119 -149 c 0
 134 -143 284 -157 284 -93 c 0xa0
 284 -53 218 -82 218 -42 c 0
 218 -25 233 32 236 39 c 0
 243 55 257 57 268 57 c 0
 299 57 303 38 303 28 c 0xc0
 303 20 297 1 294 -13 c 1
 317 -22 355 -45 355 -92 c 0
 355 -134 326 -179 265 -196 c 0
 225 -207 185 -208 138 -208 c 2
 134 -208 l 2
 104 -208 99 -188 99 -180 c 0
EndSplineSet
EndChar

StartChar: ogonek
Encoding: 731 731 61
Width: 525
Flags: HW
TeX: 0 222
ItalicCorrection: 173
HStem: -192 65<212.96 295.335>
VStem: 139 73<-126.482 -81.144>
LayerCount: 2
Fore
SplineSet
139 -116 m 0
 139 -26 278 9 329 43 c 0
 337 48 346 56 357 56 c 0
 371 56 385 45 385 28 c 0
 385 -17 252 -42 215 -101 c 0
 213 -104 212 -108 212 -113 c 0
 211 -119 222 -127 239 -127 c 0
 298 -127 330 -59 356 -59 c 0
 368 -59 387 -71 387 -90 c 0
 387 -114 311 -192 230 -192 c 0
 180 -192 139 -162 139 -116 c 0
EndSplineSet
EndChar

StartChar: guilsinglleft
Encoding: 8249 8249 63
Width: 525
Flags: HW
TeX: 438 0
ItalicCorrection: 173
HStem: 0 21G<339.5 356>
VStem: 151 323
DStem2: 171 249 226 215 0.807749 0.589527<24.3823 332.147>
LayerCount: 2
Fore
SplineSet
151 220 m 0
 151 235 163 243 171 249 c 2
 419 430 l 2
 427 436 434 439 444 439 c 0
 461 439 474 427 474 411 c 0
 474 397 467 391 446 376 c 2
 226 215 l 1
 377 42 378 44 378 28 c 0
 378 11 364 0 348 0 c 0
 331 0 322 11 314 21 c 0
 152 208 151 204 151 220 c 0
EndSplineSet
EndChar

StartChar: guilsinglright
Encoding: 8250 8250 64
Width: 525
Flags: HW
TeX: 438 0
ItalicCorrection: 173
HStem: 0 21G<180 195>
VStem: 159 323
DStem2: 408 224 214 9 0.807749 0.589527<-307.766 0>
LayerCount: 2
Fore
SplineSet
159 28 m 0
 159 42 166 48 187 64 c 2
 408 224 l 1
 256 399 255 395 255 411 c 0
 255 426 268 439 285 439 c 0
 303 439 311 427 320 417 c 0
 481 231 482 236 482 220 c 0
 482 208 476 200 462 190 c 2
 214 9 l 2
 206 3 200 0 190 0 c 0
 170 0 159 14 159 28 c 0
EndSplineSet
EndChar

StartChar: quotedblleft
Encoding: 8220 8220 65
Width: 525
Flags: HW
TeX: 610 0
ItalicCorrection: 173
HStem: 347 125<225 264.819 508 548.402> 590 20G<282.5 309 564 593>
VStem: 148 138<368.375 459.363> 431 139<368.375 462.047>
LayerCount: 2
Fore
SplineSet
148 422 m 0
 148 524 265 610 300 610 c 0
 318 610 330 592 330 579 c 0
 330 542 278 561 225 472 c 1
 229 472 l 2
 272 472 286 442 286 418 c 0
 286 383 257 347 214 347 c 0
 174 347 148 379 148 422 c 0
431 422 m 0
 431 519 544 610 584 610 c 0
 602 610 614 592 614 579 c 0
 614 542 561 561 508 472 c 1
 513 472 l 2
 556 472 570 442 570 418 c 0
 570 383 540 347 497 347 c 0
 457 347 431 379 431 422 c 0
EndSplineSet
EndChar

StartChar: quotedblright
Encoding: 8221 8221 66
Width: 525
Flags: HW
TeX: 610 0
ItalicCorrection: 173
HStem: 486 125<215.623 255 498.623 539>
VStem: 194 138<499.742 589.625> 477 138<499.742 589.625>
LayerCount: 2
Fore
SplineSet
150 379 m 0
 150 416 209 403 255 486 c 1
 251 486 l 2
 209 486 194 515 194 539 c 0
 194 575 224 611 266 611 c 0
 306 611 332 579 332 536 c 0
 332 438 219 347 180 347 c 0
 162 347 150 364 150 379 c 0
433 379 m 0
 433 416 493 403 539 486 c 1
 534 486 l 2
 492 486 477 515 477 539 c 0
 477 575 507 611 549 611 c 0
 589 611 615 579 615 536 c 0
 615 438 502 347 463 347 c 0
 446 347 433 363 433 379 c 0
EndSplineSet
EndChar

StartChar: quotedblbase
Encoding: 8222 8222 67
Width: 525
Flags: HW
TeX: 124 138
ItalicCorrection: 173
HStem: 0 125<93.0743 133 376.074 417>
VStem: 72 138<13.2109 103.866> 355 138<13.2109 103.866>
LayerCount: 2
Fore
SplineSet
27 -107 m 0
 27 -70 86 -84 133 0 c 1
 129 0 l 2
 87 0 72 30 72 54 c 0
 72 89 101 125 144 125 c 0
 184 125 210 94 210 50 c 0
 210 -50 94 -138 58 -138 c 0
 40 -138 27 -120 27 -107 c 0
311 -106 m 0
 311 -70 370 -84 417 0 c 1
 412 0 l 2
 370 0 355 30 355 54 c 0
 355 89 384 125 427 125 c 0
 467 125 493 94 493 50 c 0
 493 -50 377 -138 341 -138 c 0
 325 -138 311 -122 311 -106 c 0
EndSplineSet
EndChar

StartChar: dotlessi
Encoding: 305 305 73
Width: 525
Flags: HW
TeX: 430 0
ItalicCorrection: 173
HStem: -5 62<303.488 379.203> 374 62<252.097 327.607>
VStem: 142 72<261.322 333.415> 233 70<57.8255 142.574> 328 71<287.278 373.287> 418 72<99.6441 169.705>
AnchorPoint: "below" 262 0 basechar 0
AnchorPoint: "above" 371 436 basechar 0
LayerCount: 2
Fore
SplineSet
142 288 m 0
 146 335 207 436 301 436 c 0
 354 436 399 400 399 348 c 2
 399 342 l 2
 399 312 303 105 303 82 c 0
 303 67 315 57 332 57 c 0
 366 57 403 95 418 139 c 0
 422 152 425 172 455 172 c 0
 471 172 490 165 490 143 c 0
 490 109 432 -5 331 -5 c 0
 282 -5 233 27 233 82 c 0
 233 128 328 318 328 349 c 0
 328 364 316 374 299 374 c 0
 260 374 227 331 214 292 c 0
 208 276 207 259 176 259 c 0
 147 259 142 277 142 288 c 0
EndSplineSet
EndChar

StartChar: dotlessj
Encoding: 567 567 74
Width: 525
Flags: HW
TeX: 430 222
ItalicCorrection: 173
HStem: -227 61<182.832 254.338> 374 62<322.003 410.849>
VStem: 90 91<-164.812 -120.164> 413 70<296.022 370.933>
DStem2: 272.236 -227 344.486 -227 0.242599 0.970127<99.9771 585.878>
AnchorPoint: "below" 248 -222 basechar 0
AnchorPoint: "above" 474 436 basechar 0
LayerCount: 2
Fore
SplineSet
90 -164 m 0
 90 -134 112 -111 139 -111 c 0
 164 -111 181 -129 181 -151 c 0
 181 -156 180 -161 179 -165 c 1
 185 -165 190 -166 196 -166 c 0
 222 -166 290 -154 324 -20 c 2
 410 323 l 2
 412 329 413 336 413 342 c 0
 413 361 399 374 377 374 c 0
 334 374 289 332 268 286 c 0
 265 279 261 259 234 259 c 2
 230 259 l 2
 222 259 201 260 197 282 c 1
 192 320 273 436 379 436 c 0
 437 436 483 398 483 341 c 0
 483 328 481 319 479 309 c 2
 393 -33 l 2
 357 -178 266 -227 195 -227 c 0
 105 -227 90 -189 90 -164 c 0
EndSplineSet
EndChar

StartChar: ff
Encoding: 64256 64256 75
Width: 525
Flags: HW
TeX: 610 222
ItalicCorrection: 173
HStem: -227 127<8.80908 74.3452 219.52 279.48> 369 61<113.434 183 266 432 516 597.051> 489 127<342.381 401.867 540.477 607.547> 554 62<294.846 339.924>
VStem: -9 140<-204.006 -118.891> 197 90<-164.815 -109.069> 336 90<498.069 553.67>
DStem2: 75 -116 254 369 0.216362 0.976313<279.487 496.879 574.392 704.08> 432 369 408 -76 0.208306 0.978064<-222.203 0 77.1596 172.147>
LayerCount: 2
Fore
SplineSet
-9 -158 m 0
 -9 -116 19 -100 42 -100 c 0
 49 -100 61 -101 75 -116 c 1
 84 -41 114 32 138 151 c 0
 173 325 179 347 183 369 c 1
 151 369 l 2
 137 369 112 370 112 397 c 0
 112 428 138 430 151 430 c 2
 196 430 l 1
 215 538 227 616 335 616 c 0xde
 388 616 426 587 426 544 c 0
 426 505 398 489 377 489 c 0xee
 352 489 336 508 336 528 c 0
 336 538 339 547 342 554 c 1
 336 554 l 2xde
 282 554 286 516 266 430 c 1
 445 430 l 1
 467 540 471 566 491 587 c 0
 506 603 529 616 554 616 c 0
 593 616 628 588 628 545 c 0
 628 514 607 489 578 489 c 0
 570 489 541 491 536 525 c 1
 516 430 l 1xee
 562 430 l 2
 575 430 599 429 599 402 c 0
 599 384 587 375 582 372 c 0
 573 368 562 369 553 369 c 2
 503 369 l 1
 503 368 l 1
 503 368 434 17 408 -76 c 0
 377 -185 330 -227 277 -227 c 0
 234 -227 197 -198 197 -155 c 0
 197 -116 225 -100 246 -100 c 0
 267 -100 287 -117 287 -140 c 0
 287 -150 284 -157 280 -166 c 1
 331 -145 346 -51 432 369 c 1
 254 369 l 1
 247 330 160 -112 131 -172 c 0
 124 -187 102 -227 58 -227 c 0
 18 -227 -9 -196 -9 -158 c 0
EndSplineSet
Ligature2: "Latin ligatures subtable" f f
EndChar

StartChar: fi
Encoding: 64257 64257 76
Width: 525
Flags: HW
TeX: 610 222
ItalicCorrection: 173
HStem: -227 62<71.1374 100.007> -5 62<412.798 460.931> 369 61<129.659 214 297 409> 555 61<324.839 435.374>
VStem: -14 91<-163.884 -109.448> 342 70<57.6626 181.035> 433 90<504.723 551.674> 491 62<97.4462 160.435>
LayerCount: 2
Fore
SplineSet
-14 -155 m 0
 -14 -116 15 -100 36 -100 c 0
 59 -100 77 -117 77 -140 c 0
 77 -149 74 -156 70 -165 c 1
 73 -165 l 2
 86 -165 99 -159 117 -101 c 0
 154 19 195 283 214 369 c 1xfd
 165 369 l 2
 152 369 128 371 128 398 c 0
 128 407 132 429 163 430 c 1
 226 430 l 1
 226 431 l 1
 248 574 272 616 398 616 c 0
 453 616 523 610 523 549 c 0
 523 518 500 495 473 495 c 0
 451 495 433 511 433 535 c 0xfe
 433 541 434 545 436 552 c 1
 423 554 410 555 396 555 c 0
 318 555 317 539 297 430 c 1
 452 430 l 2
 484 430 487 410 487 403 c 0
 487 396 486 389 484 383 c 2
 415 107 l 2
 413 100 412 93 412 86 c 0
 412 66 426 57 437 57 c 0
 469 57 480 147 491 161 c 0
 497 168 505 172 517 172 c 2
 519 172 l 2
 550 172 553 152 553 144 c 0
 553 138 529 -5 436 -5 c 0
 385 -5 342 32 342 87 c 0
 342 107 341 98 409 369 c 1
 285 369 l 1
 211 -26 197 -124 154 -182 c 0
 139 -203 114 -227 75 -227 c 0
 34 -227 -14 -204 -14 -155 c 0
EndSplineSet
Ligature2: "Latin ligatures excepting Turkic subtable" f i
EndChar

StartChar: fl
Encoding: 64258 64258 77
Width: 525
Flags: HW
TeX: 610 222
ItalicCorrection: 173
HStem: -227 127<-1.6257 64.209> -5 62<419.916 459.52> 369 61<100.059 181 264 416> 555 61<291.746 374.014>
VStem: -22 91<-151 -109.295> 349 70<57.8319 177.1> 483 71<78.5627 170.181>
DStem2: 131 104 174 -33 0.190813 0.981626<-244.313 269.672 345.388 469.59> 266.958 -227 338.977 -227 0.242599 0.970127<378.932 614.353 677.412 761.815 793.829 850.662>
LayerCount: 2
Fore
SplineSet
-22 -157 m 0
 -22 -114 8 -100 28 -100 c 0
 49 -100 69 -115 69 -142 c 0
 69 -145 68 -148 68 -151 c 1
 75 -134 l 1
 131 104 l 1
 181 369 l 1
 135 369 l 2
 122 369 99 371 99 398 c 0
 99 429 123 431 137 431 c 0
 140 431 141 430 143 430 c 2
 193 430 l 1
 193 431 l 1
 213 553 228 616 350 616 c 0
 458 616 459 553 460 543 c 1
 471 595 475 611 504 611 c 2
 505 611 l 2
 524 611 540 605 540 582 c 0
 540 573 537 563 536 561 c 2
 422 105 l 2
 420 99 419 92 419 85 c 0
 419 68 428 57 440 57 c 2
 442 57 l 2
 465 57 483 143 483 143 c 1
 486 153 491 172 517 172 c 2
 518 172 l 2
 548 172 554 154 554 143 c 0
 554 141 532 -5 439 -5 c 0
 386 -5 349 35 349 86 c 0
 349 106 346 90 416 369 c 1
 252 369 l 1
 251 365 195 62 174 -33 c 0
 151 -138 126 -227 53 -227 c 0
 14 -227 -22 -199 -22 -157 c 0
264 430 m 1
 432 430 l 1
 452 512 l 1
 449 508 435 489 410 489 c 0
 390 489 369 504 369 528 c 0
 369 537 372 546 375 552 c 1
 367 554 357 555 347 555 c 0
 289 555 282 537 264 430 c 1
EndSplineSet
Ligature2: "Latin ligatures subtable" f l
EndChar

StartChar: ffi
Encoding: 64259 64259 78
Width: 525
Flags: HW
TeX: 610 222
ItalicCorrection: 173
HStem: -227 127<-7.41504 30 123.775 189.124> -5 21G<441 494> 369 61<77.1917 140 225 325 409 455> 489 127<266.518 331.597 487.092 547.567> 554 62<440.606 480.565>
VStem: 104 91<-155.766 -111.665> 261 90<498.618 551.625> 387 69<61.4612 167.168> 456 97<63.3328 122.463> 480 90<503.841 553.672>
DStem2: -9.04152 -227 62.9585 -227 0.242599 0.970127<135.729 614.353 694.151 821.455> 325 369 304 -56 0.211177 0.977448<-235.597 0 77.3632 192.365>
LayerCount: 2
Fore
SplineSet
-20 -172 m 0
 -20 -117 6 -104 30 -100 c 1
 33 -34 68 47 84 103 c 0
 91 129 95 156 140 369 c 1
 113 369 l 2
 93 369 76 375 76 398 c 0
 76 428 102 431 112 431 c 0
 114 431 116 430 116 430 c 1
 153 430 l 1
 154 431 l 1
 164 488 179 553 195 576 c 1
 213 600 245 616 277 616 c 0
 318 616 351 588 351 546 c 0
 351 504 321 489 301 489 c 0xf7
 276 489 261 506 261 528 c 0
 261 536 262 544 266 552 c 1
 242 536 245 517 225 430 c 1
 338 430 l 1
 357 534 368 616 478 616 c 0
 533 616 570 589 570 548 c 0
 570 520 550 495 520 495 c 0
 495 495 480 512 480 535 c 0xef40
 480 541 481 547 483 554 c 1
 478 554 l 2
 461 554 453 550 440 542 c 1
 429 522 425 510 409 430 c 1
 502 430 l 2
 527 430 534 412 534 402 c 0
 534 399 534 395 531 385 c 2
 463 110 l 2
 460 96 456 84 456 70 c 2
 456 61 l 1
 489 126 474 172 517 172 c 2
 519 172 l 2
 550 172 553 153 553 146 c 0xef
 553 136 533 -5 455 -5 c 0
 427 -5 387 14 387 75 c 2
 387 80 l 2
 387 98 389 107 455 369 c 1
 396 369 l 1
 396 368 l 1
 396 368 326 28 304 -56 c 0
 295 -91 266 -227 177 -227 c 0
 139 -227 104 -200 104 -157 c 0xef
 104 -119 130 -100 154 -100 c 0
 176 -100 195 -116 195 -140 c 0
 195 -146 194 -151 192 -156 c 1
 239 -91 292 229 325 369 c 1
 212 369 l 1
 140 -4 119 -6 104 -111 c 0
 99 -145 99 -186 67 -213 c 0
 58 -221 44 -227 29 -227 c 0
 0 -227 -20 -205 -20 -172 c 0
EndSplineSet
Ligature2: "Latin ligatures excepting Turkic subtable" ff i
Ligature2: "Latin ligatures excepting Turkic subtable" f f i
EndChar

StartChar: ffl
Encoding: 64260 64260 79
Width: 525
Flags: HW
TeX: 610 222
ItalicCorrection: 173
HStem: -227 127<3.00988 35 128.972 194.91> -5 21G<442.5 495.5> 369 61<84.1917 147 231 329 414 457> 489 127<271.609 337.275 427.328 489.751>
VStem: -10 118<-199.578 -112.599> 110 90<-153.812 -108.96> 160 71<430 465> 266 90<498.62 549.896> 389 69<63.7195 167.672> 458 96<64.4436 128.315>
DStem2: 307.958 -227 380.476 -227 0.242599 0.970127<379.528 614.353 677.412 761.815 799.165 850.799> 329 369 296 -99 0.215364 0.976534<-225.92 0 77.8745 144.046>
LayerCount: 2
Fore
SplineSet
-10 -174 m 0
 -10 -104 34 -100 35 -100 c 0
 39 10 69 -43 147 369 c 1
 120 369 l 2
 100 369 83 375 83 398 c 0
 83 428 109 431 119 431 c 0
 121 431 123 430 123 430 c 1
 160 430 l 1
 185 565 199 587 238 606 c 0
 252 612 268 616 283 616 c 0
 324 616 356 588 356 546 c 0
 356 504 326 489 306 489 c 0
 282 489 266 505 266 528 c 0
 266 535 267 543 271 551 c 1
 261 542 l 1
 254 528 l 1
 248 508 l 1
 238 465 l 1
 231 430 l 1xfbc0
 342 430 l 1
 346 455 365 548 379 574 c 1
 392 596 418 616 446 616 c 0
 495 616 501 573 503 548 c 1
 514 599 517 611 545 611 c 2
 546 611 l 2
 576 611 581 593 581 582 c 0
 581 576 579 570 578 564 c 2
 467 119 l 2
 463 101 457 84 458 63 c 1
 492 143 477 172 517 172 c 2
 520 172 l 2
 543 172 554 161 554 143 c 0
 554 140 535 -5 456 -5 c 0
 429 -5 389 12 389 75 c 0
 389 97 390 101 457 369 c 1
 400 369 l 1
 400 369 325 -5 296 -99 c 0
 260 -218 205 -227 182 -227 c 0
 143 -227 110 -200 110 -157 c 0xfdc0
 110 -108 146 -100 159 -100 c 0
 184 -100 200 -115 200 -142 c 0xfdc0
 200 -146 200 -150 199 -154 c 1
 236 -91 276 115 329 369 c 1
 218 369 l 1
 213 341 166 117 159 89 c 0
 143 24 114 -55 108 -126 c 0
 101 -209 65 -227 37 -227 c 0
 18 -227 -10 -215 -10 -174 c 0
414 430 m 1
 473 430 l 1
 493 512 l 1
 490 508 476 489 451 489 c 0xf9c0
 441 489 434 492 427 495 c 1
 414 430 l 1
EndSplineSet
Ligature2: "Latin ligatures subtable" ff l
Ligature2: "Latin ligatures subtable" f f l
EndChar

StartChar: uni2423
Encoding: 9251 9251 80
Width: 525
Flags: HW
TeX: 430 111
ItalicCorrection: 173
HStem: -133 43<99 380>
DStem2: 44.4979 -133 88.247 -133 0.242599 0.970127<54.9376 377.085> 369.997 -133 412.747 -133 0.242599 0.970127<45.3549 377.843>
LayerCount: 2
Fore
SplineSet
51 -116 m 0
 51 -112 51 -107 52 -103 c 2
 130 208 l 2
 131 210 136 241 160 241 c 0
 169 241 176 236 176 223 c 0
 176 219 175 215 174 210 c 2
 108 -55 l 1
 99 -90 l 1
 380 -90 l 1
 381 -89 l 1
 395 -29 388 -59 456 211 c 0
 458 218 463 240 484 240 c 0
 494 240 501 234 501 224 c 0
 501 218 499 212 498 207 c 2
 422 -96 l 2
 418 -114 414 -133 384 -133 c 2
 73 -133 l 2
 62 -133 51 -131 51 -116 c 0
EndSplineSet
EndChar

StartChar: exclam
Encoding: 33 33 81
Width: 525
Flags: HW
TeX: 610 0
ItalicCorrection: 173
HStem: 0 125<234.625 318.777> 602 20G<400 424.5>
VStem: 214 127<22.1548 103.642> 270 103<204.54 262.341> 338 128<523.75 600.486>
LayerCount: 2
Fore
SplineSet
270 231 m 0xd0
 270 238 273 246 274 253 c 2
 338 557 l 2
 350 612 390 622 410 622 c 0
 439 622 466 601 466 569 c 0xc8
 466 560 463 552 461 544 c 2
 373 238 l 2
 366 214 363 202 333 202 c 2
 305 202 l 2xd0
 274 202 270 221 270 231 c 0xd0
EndSplineSet
Refer: 94 46 S 1 0 0 1 0 -0 3
EndChar

StartChar: quotedbl
Encoding: 34 34 82
Width: 525
Flags: HW
TeX: 610 0
ItalicCorrection: 173
HStem: 328 293<274 292.947 450 468.947>
VStem: 233 64<330.452 425.446> 408 65<330.452 425.218>
LayerCount: 2
Fore
SplineSet
408 356 m 0
 408 366 414 392 445 557 c 0
 447 568 450 621 498 621 c 0
 521 621 539 605 539 581 c 0
 539 572 541 578 473 362 c 0
 470 354 466 328 439 328 c 0
 419 328 408 343 408 356 c 0
EndSplineSet
Refer: 319 39 S 1 0 0 1 -88 0 2
EndChar

StartChar: numbersign
Encoding: 35 35 83
Width: 525
Flags: HW
TeX: 610 0
ItalicCorrection: 173
HStem: 0 21G<160 182.5 305 327.5> 167 62<121.536 183 271 328 416 499.857> 382 62<175.437 260 348 405 493 553.518> 590 20G<350.5 370 496.5 516>
DStem2: 183 167 248 167 0.33501 0.942215<-143.294 0 87.8982 228.372 316.27 459.229> 328 167 394 167 0.337073 0.941479<-142.952 0 88.0341 228.372 316.407 459.359>
LayerCount: 2
Fore
SplineSet
120 197 m 1
 120 227 148 229 159 229 c 2
 205 229 l 1
 260 382 l 1
 214 382 l 2
 200 382 174 384 174 414 c 0
 174 424 180 444 211 444 c 2
 282 444 l 1
 286 457 291 469 327 572 c 0
 334 591 339 609 362 610 c 0
 378 610 393 598 393 580 c 0
 393 574 395 579 348 444 c 1
 428 444 l 1
 432 457 437 469 473 572 c 0
 480 591 485 609 508 610 c 0
 524 610 538 598 538 580 c 0
 538 574 540 579 493 444 c 1
 517 444 l 2
 552 444 555 421 555 413 c 0
 555 384 528 382 517 382 c 2
 470 382 l 1
 416 229 l 1
 462 229 l 2
 475 229 501 227 501 198 c 0
 501 189 498 167 465 167 c 2
 394 167 l 1
 340 14 342 0 313 0 c 0
 297 0 283 13 283 31 c 0
 283 37 280 32 328 167 c 1
 248 167 l 1
 194 14 197 0 168 0 c 0
 152 0 137 13 137 31 c 0
 137 37 135 32 183 167 c 1
 159 167 l 2
 141 167 121 172 120 197 c 1
271 229 m 1
 351 229 l 1
 405 382 l 1
 325 382 l 1
 271 229 l 1
EndSplineSet
EndChar

StartChar: dollar
Encoding: 36 36 84
Width: 525
Flags: HW
TeX: 694 83
ItalicCorrection: 173
HStem: -2 61<210.25 229> 553 60<447 468.524>
VStem: 127 70<73.2157 157.385> 199 66<376.705 488.047> 415 66<133.42 257.39> 482 69<464.185 539.477>
DStem2: 208.744 -83 272.994 -83 0.242599 0.970127<29.8204 83.4943 167.173 384.728 456.757 650.543 733.009 786.924>
LayerCount: 2
Fore
SplineSet
127 125 m 0
 127 203 160 216 182 216 c 0
 205 216 223 200 223 176 c 0
 223 158 213 144 197 133 c 1
 197 126 l 2
 197 105 201 70 245 59 c 1
 303 291 l 1
 227 310 199 370 199 420 c 0
 199 498 265 597 384 615 c 1
 397 676 402 694 429 694 c 0
 449 694 459 680 459 666 c 0
 459 657 455 645 447 613 c 1
 546 593 551 515 551 491 c 0
 551 418 518 407 497 407 c 0
 473 407 457 425 457 447 c 0
 457 465 466 479 482 490 c 1
 481 538 454 547 432 553 c 1
 380 344 l 1
 440 329 481 278 481 209 c 0
 481 108 393 11 293 -3 c 1
 279 -65 275 -83 248 -83 c 0
 224 -83 218 -64 218 -55 c 0
 218 -46 222 -35 229 -2 c 1
 170 9 127 52 127 125 c 0
265 427 m 0
 265 392 286 369 320 360 c 1
 367 548 l 1
 307 528 265 475 265 427 c 0
310 64 m 1
 370 87 415 144 415 202 c 0
 415 249 387 266 363 275 c 1
 310 64 l 1
EndSplineSet
EndChar

StartChar: percent
Encoding: 37 37 85
Width: 525
Flags: HW
TeX: 694 83
ItalicCorrection: 173
HStem: -83 266<358 425>
VStem: 203 58<492.567 597.744> 307 58<522.897 629.587> 311 57<-17.3662 83.6899> 415 57<13.5212 117.031>
DStem2: 108 -20 167 -58 0.50286 0.864368<-30.1116 822.805>
LayerCount: 2
Fore
SplineSet
97 -49 m 0
 97 -37 103 -28 108 -20 c 2
 509 670 l 2
 513 677 523 694 544 694 c 0
 563 694 578 678 578 659 c 0
 578 648 573 641 569 633 c 2
 167 -58 l 2
 160 -70 151 -83 132 -83 c 0
 114 -83 97 -68 97 -49 c 0
203 509 m 0
 203 575 246 694 310 694 c 0
 332 694 365 679 365 612 c 0
 365 541 319 428 258 428 c 0
 215 428 203 471 203 509 c 0
261 514 m 0xe8
 261 507 262 499 263 492 c 1
 291 519 307 570 307 608 c 0
 307 615 306 623 305 630 c 1
 271 595 261 541 261 514 c 0xe8
EndSplineSet
Refer: 720 8320 S 1 0 0 1 117 0 2
EndChar

StartChar: ampersand
Encoding: 38 38 86
Width: 525
Flags: HW
TeX: 610 0
ItalicCorrection: 173
HStem: -11 62<209.241 378.588> 220 69<460.327 486.758> 560 62<283.075 338.27> 590 20G<563.5 601>
VStem: 88 70<100.395 253.365> 339 75<517.792 559.263> 381 70<285.281 344.827> 507 70<281.462 366.249>
LayerCount: 2
Fore
SplineSet
88 167 m 0
 88 226 122 308 160 355 c 1
 157 369 156 383 156 396 c 0
 156 500 236 622 324 622 c 0
 374 622 414 587 414 537 c 0xed
 414 490 383 476 363 476 c 0
 340 476 322 495 322 517 c 0
 322 534 331 545 339 553 c 1
 339 554 l 1
 334 557 328 560 321 560 c 0xed
 287 560 237 491 227 416 c 1
 246 426 263 430 278 430 c 0
 311 430 332 407 332 370 c 0
 332 326 301 270 254 270 c 0
 229 270 212 280 197 291 c 1
 178 255 158 205 158 167 c 0
 158 99 210 51 288 51 c 0
 367 51 451 93 487 222 c 1
 481 221 475 220 469 220 c 0
 427 220 381 252 381 307 c 0
 381 374 444 409 477 436 c 0
 570 514 534 610 593 610 c 0xdb
 609 610 626 597 626 577 c 0
 626 573 613 488 555 416 c 1
 559 410 577 384 577 336 c 0
 577 299 563 208 534 147 c 0
 471 13 353 -11 287 -11 c 0
 158 -11 88 75 88 167 c 0
236 345 m 1
 244 337 l 1
 250 332 l 1
 257 347 l 1
 262 364 l 1
 250 357 l 1
 236 345 l 1
451 308 m 0
 451 301 454 293 460 285 c 1
 467 288 472 289 477 289 c 0xcb
 487 289 494 284 501 280 c 1
 504 297 507 314 507 331 c 0
 507 345 505 353 500 367 c 1
 478 351 451 331 451 308 c 0
EndSplineSet
EndChar

StartChar: quoteright
Encoding: 8217 8217 87
Width: 525
Flags: HW
TeX: 610 0
ItalicCorrection: 173
HStem: 486 125<356.824 408>
VStem: 335 142<495.727 588.625>
LayerCount: 2
Fore
SplineSet
265 309 m 0
 265 328 285 336 294 342 c 0
 368 388 396 451 408 488 c 1
 402 487 396 486 390 486 c 0
 359 486 335 507 335 539 c 0
 335 573 364 611 408 611 c 0
 449 611 477 579 477 528 c 0
 477 498 463 392 351 307 c 0
 326 288 307 278 296 278 c 0
 280 278 265 293 265 309 c 0
EndSplineSet
EndChar

StartChar: parenleft
Encoding: 40 40 88
Width: 525
Flags: HW
TeX: 694 83
ItalicCorrection: 173
VStem: 242 69<47.357 315.534>
LayerCount: 2
Fore
SplineSet
242 177 m 0
 242 357 341 571 519 685 c 0
 528 691 535 694 545 694 c 0
 564 694 575 681 575 667 c 0
 575 649 563 641 552 634 c 0
 391 524 311 321 311 171 c 0
 311 5 395 -24 395 -54 c 0
 395 -71 382 -83 365 -83 c 0
 354 -83 341 -79 311 -41 c 0
 268 13 242 87 242 177 c 0
EndSplineSet
EndChar

StartChar: parenright
Encoding: 41 41 89
Width: 525
Flags: HW
TeX: 694 83
ItalicCorrection: 173
VStem: 366 69<297.041 563.301>
LayerCount: 2
Fore
SplineSet
102 -55 m 0
 102 -37 119 -27 128 -21 c 0
 288 90 366 292 366 441 c 0
 366 604 282 634 282 667 c 0
 282 682 294 694 312 694 c 0
 322 694 336 690 364 655 c 0
 414 594 435 518 435 432 c 0
 435 255 337 51 175 -62 c 0
 162 -70 149 -83 132 -83 c 0
 114 -83 102 -69 102 -55 c 0
EndSplineSet
EndChar

StartChar: asterisk
Encoding: 42 42 90
Width: 525
Flags: HW
TeX: 520 0
ItalicCorrection: 173
VStem: 322 96<410.794 463.896>
DStem2: 188 253 293 247 0.869065 0.494698<-43.9169 88.2836 224.379 357.101>
LayerCount: 2
Fore
SplineSet
150 209 m 0
 150 235 179 248 188 253 c 0
 265 295 274 300 284 305 c 1
 201 368 195 370 195 386 c 0
 195 408 217 428 237 428 c 0
 251 428 250 426 322 364 c 1
 348 479 348 520 392 520 c 0
 413 520 418 503 418 498 c 0
 418 483 383 364 383 364 c 1
 465 413 485 428 500 428 c 0
 516 428 526 417 526 402 c 0
 525 373 509 370 393 306 c 1
 476 243 482 241 482 225 c 0
 482 205 461 184 440 184 c 0
 426 184 422 188 354 247 c 1
 352 236 350 225 329 134 c 0
 320 96 297 91 285 91 c 0
 269 91 259 101 259 116 c 0
 259 129 273 168 293 247 c 1
 196 188 192 184 176 184 c 0
 163 184 150 193 150 209 c 0
EndSplineSet
EndChar

StartChar: plus
Encoding: 43 43 91
Width: 525
Flags: HW
TeX: 530 -80
ItalicCorrection: 173
HStem: 275 62<151.524 299 378 525.442>
VStem: 259 63<82.5754 140.525> 355 62<471.341 528.261>
DStem2: 250.486 81 313.486 81 0.242599 0.970127<32.5559 199.974 279.287 445.493>
LayerCount: 2
Fore
SplineSet
150 305 m 0
 150 317 156 337 188 337 c 2
 314 337 l 1
 355 499 l 2
 359 515 368 530 387 530 c 0
 403 530 417 518 417 499 c 0
 417 492 383 354 378 337 c 1
 484 337 l 2
 490 337 498 337 504 335 c 0
 517 331 527 320 527 306 c 0
 527 297 522 275 490 275 c 2
 362 275 l 1
 322 112 l 2
 318 97 311 81 290 81 c 0
 274 81 259 93 259 112 c 0
 259 119 294 257 299 275 c 1
 190 275 l 2
 168 275 150 281 150 305 c 0
EndSplineSet
EndChar

StartChar: comma
Encoding: 44 44 92
Width: 525
Flags: HW
TeX: 124 138
ItalicCorrection: 173
HStem: -138 263
VStem: 214 138<12.6756 103.625>
LayerCount: 2
Fore
SplineSet
162 -107 m 0
 162 -68 224 -88 275 0 c 1
 222 1 214 36 214 53 c 0
 214 89 244 125 286 125 c 0
 325 125 352 93 352 50 c 0
 352 -5 306 -97 209 -134 c 0
 203 -136 198 -138 192 -138 c 0
 177 -138 162 -123 162 -107 c 0
EndSplineSet
EndChar

StartChar: hyphen
Encoding: 45 45 93
Width: 525
Flags: HW
TeX: 430 0
ItalicCorrection: 173
HStem: 185 61<169.686 461.314>
VStem: 168 295<186.924 244.08>
LayerCount: 2
Fore
SplineSet
168 213 m 0
 168 223 172 246 204 246 c 2
 427 246 l 2
 458 246 463 229 463 217 c 0
 463 209 459 185 427 185 c 2
 203 185 l 2
 173 185 168 205 168 213 c 0
EndSplineSet
EndChar

StartChar: period
Encoding: 46 46 94
Width: 525
Flags: HW
TeX: 124 0
ItalicCorrection: 173
HStem: 0 125<234.625 318.777>
VStem: 214 127<22.1548 103.642>
LayerCount: 2
Fore
SplineSet
214 55 m 0
 214 90 245 125 286 125 c 0
 315 125 341 104 341 71 c 0
 341 29 302 0 270 0 c 0
 237 0 214 25 214 55 c 0
EndSplineSet
EndChar

StartChar: slash
Encoding: 47 47 95
Width: 525
Flags: HW
TeX: 694 83
ItalicCorrection: 173
DStem2: 91 -22 142 -56 0.541739 0.840546<-31.7843 850.543>
LayerCount: 2
Fore
SplineSet
78 -52 m 0
 78 -40 86 -30 91 -22 c 2
 536 670 l 2
 540 676 549 694 568 694 c 0
 584 694 599 680 599 663 c 0
 599 652 593 643 588 636 c 2
 142 -56 l 2
 136 -65 128 -83 108 -83 c 0
 92 -83 78 -69 78 -52 c 0
EndSplineSet
EndChar

StartChar: zero
Encoding: 48 48 96
Width: 525
Flags: HW
TeX: 610 0
ItalicCorrection: 173
HStem: -11 62<234.668 322.082> 560 62<350.914 442.004>
VStem: 139 71<77.7979 320.143> 469 68<300.726 531.337>
LayerCount: 2
Fore
SplineSet
139 179 m 0
 139 397 293 622 417 622 c 0
 494 622 537 539 537 431 c 0
 537 226 392 -11 259 -11 c 0
 180 -11 139 76 139 179 c 0
210 181 m 0
 210 145 216 51 274 51 c 0
 368 51 469 291 469 432 c 0
 469 505 447 560 402 560 c 0
 311 560 210 350 210 181 c 0
EndSplineSet
Substitution2: "LGC old numerals subtable" zerooldstyle
EndChar

StartChar: one
Encoding: 49 49 97
Width: 525
Flags: HW
TeX: 610 0
ItalicCorrection: 173
HStem: -0 62<138.672 254 326 425.314> 435 61<242.182 324.649> 599 20G<419.5 435>
VStem: 137 320
DStem2: 238.496 -0 310.496 -0 0.242599 0.970127<81.3763 478.16 551.3 626.125>
LayerCount: 2
Fore
SplineSet
137 29 m 0
 137 38 140 62 172 62 c 2
 254 62 l 1
 354 464 l 1
 321 443 293 435 274 435 c 0
 247 435 241 453 241 465 c 0
 241 478 248 492 262 496 c 0
 277 501 328 489 397 599 c 0
 405 611 412 619 427 619 c 0
 443 619 457 608 457 591 c 0
 457 586 455 580 454 575 c 2
 339 113 l 2
 335 96 331 79 326 62 c 1
 394 62 l 1
 424 61 427 42 427 33 c 0
 427 23 423 0 391 -0 c 2
 172 -0 l 2
 141 0 137 20 137 29 c 0
EndSplineSet
Substitution2: "LGC old numerals subtable" oneoldstyle
EndChar

StartChar: two
Encoding: 50 50 98
Width: 525
Flags: HW
TeX: 610 0
ItalicCorrection: 173
HStem: -11 68<284.72 413.397> 560 62<317.078 440.902>
VStem: 163 72<404.252 478.365> 472 69<381.641 527.775>
LayerCount: 2
Fore
SplineSet
85 18 m 0
 85 45 131 173 262 246 c 0
 334 286 472 334 472 459 c 0
 472 520 436 560 384 560 c 0
 325 560 257 505 235 435 c 0
 229 419 228 402 197 402 c 0
 170 402 163 419 163 430 c 0
 163 479 247 619 382 622 c 1
 384 622 l 2
 478 622 541 552 541 457 c 0
 541 327 443 262 320 199 c 0
 266 171 237 149 199 103 c 1
 270 94 313 57 364 57 c 0
 403 57 442 97 462 161 c 0
 465 172 468 191 497 192 c 1
 498 192 l 2
 527 192 533 174 533 163 c 0
 533 137 480 -11 363 -11 c 0
 293 -11 231 42 189 42 c 0
 186 42 184 42 181 41 c 0
 148 34 165 -10 121 -11 c 0
 90 -11 85 6 85 18 c 0
EndSplineSet
Substitution2: "LGC old numerals subtable" twooldstyle
EndChar

StartChar: three
Encoding: 51 51 99
Width: 525
Flags: HW
TeX: 610 0
ItalicCorrection: 173
HStem: -11 62<194.202 326.495> 287 61<265.327 386.403> 560 62<333.748 462.315>
VStem: 110 93<108.128 176.865> 211 72<452.094 514.425> 408 69<126.99 266.658> 481 70<422.291 540.092>
LayerCount: 2
Fore
SplineSet
110 114 m 0
 110 167 136 188 161 188 c 0
 183 188 203 172 203 148 c 0
 203 132 195 119 180 107 c 1
 182 88 193 51 245 51 c 0
 304 51 408 94 408 202 c 0
 408 242 393 287 332 287 c 2
 301 287 l 2
 288 287 264 288 264 317 c 0
 264 333 274 348 296 348 c 2
 330 348 l 2
 434 348 481 439 481 488 c 0
 481 527 456 560 408 560 c 0
 358 560 303 529 283 483 c 0
 275 463 275 450 244 450 c 0
 228 450 211 456 211 479 c 0
 211 531 292 622 409 622 c 0
 490 622 551 568 551 487 c 0
 551 417 502 347 435 311 c 1
 459 286 477 250 477 200 c 0
 477 59 343 -11 244 -11 c 0
 164 -11 110 41 110 114 c 0
EndSplineSet
Substitution2: "LGC old numerals subtable" threeoldstyle
EndChar

StartChar: four
Encoding: 52 52 100
Width: 525
Flags: HW
TeX: 610 222
ItalicCorrection: 173
HStem: -30 61<379 442.251> 0 21G<83 105.5> 18 62<195 273.804> 602 20G<429.5 442.5>
VStem: 254 67<-219.935 -112.359> 311 105<94.0377 137.439> 400 68<524.757 619.361>
LayerCount: 2
Fore
SplineSet
62 32 m 0
 62 54 89 68 96 73 c 0
 332 262 389 572 400 598 c 0
 408 617 425 622 434 622 c 0
 451 622 468 609 468 589 c 0
 468 583 414 313 222 107 c 1
 195 80 l 1x3a
 242 78 274 61 311 48 c 1
 311 50 345 189 350 199 c 0
 357 213 370 219 382 219 c 0
 399 219 416 207 416 186 c 0
 416 173 396 105 379 31 c 1
 380 31 l 2
 413 31 427 47 443 47 c 0
 461 47 474 30 474 16 c 0
 474 -17 410 -30 380 -30 c 2
 363 -30 l 1x94
 321 -198 324 -190 321 -198 c 0
 316 -210 304 -222 288 -222 c 0
 269 -222 254 -209 254 -189 c 0
 254 -181 252 -187 296 -12 c 1
 251 4 226 18 180 18 c 0x38
 93 18 119 0 92 0 c 0x58
 74 0 62 20 62 32 c 0
EndSplineSet
Substitution2: "LGC old numerals subtable" fouroldstyle
EndChar

StartChar: five
Encoding: 53 53 101
Width: 525
Flags: HW
TeX: 610 0
ItalicCorrection: 173
HStem: -11 62<202.507 323.011> 327 62<282.147 405.162> 549 62<317 552.369>
VStem: 118 93<109.043 178.073> 423 69<157.501 309.535>
DStem2: 105.978 -11 177.974 -11 0.242599 0.970127<409.168 594.465>
LayerCount: 2
Fore
SplineSet
118 115 m 0
 118 177 150 189 171 189 c 0
 196 189 211 170 211 149 c 0
 211 134 204 119 188 108 c 1
 190 98 196 51 253 51 c 0
 332 51 423 140 423 243 c 0
 423 277 410 327 359 327 c 0
 285 327 248 276 236 268 c 0
 229 263 223 262 214 262 c 0
 193 262 183 275 183 292 c 0
 183 296 184 300 185 305 c 2
 253 578 l 2
 258 598 263 611 290 611 c 2
 519 611 l 2
 549 611 554 592 554 582 c 0
 553 555 536 549 518 549 c 2
 317 549 l 1
 273 369 l 1
 306 384 335 389 362 389 c 0
 446 389 492 320 492 239 c 0
 492 99 367 -11 252 -11 c 0
 177 -11 118 39 118 115 c 0
EndSplineSet
Substitution2: "LGC old numerals subtable" fiveoldstyle
EndChar

StartChar: six
Encoding: 54 54 102
Width: 525
Flags: HW
TeX: 610 0
ItalicCorrection: 173
HStem: -11 62<226.498 335.284> 334 61<285.889 405.753> 560 62<390.529 482.791>
VStem: 135 69<75.0625 208> 430 70<159.03 310.725> 483 73<512.747 558.406>
LayerCount: 2
Fore
SplineSet
135 162 m 0
 135 212 146 262 156 305 c 0
 200 490 338 622 459 622 c 0
 519 622 556 589 556 538 c 0
 556 486 526 472 505 472 c 0
 483 472 464 488 464 512 c 0
 464 528 471 540 483 551 c 1
 483 552 l 1xf4
 476 557 470 560 457 560 c 0
 402 560 301 499 244 355 c 1
 279 379 315 395 363 395 c 0
 472 395 500 293 500 246 c 0
 500 205 484 148 461 110 c 0
 434 65 364 -11 268 -11 c 0
 215 -11 135 20 135 162 c 0
204 155 m 2
 204 118 213 51 270 51 c 0xf8
 350 51 430 152 430 246 c 0
 430 275 415 334 358 334 c 0
 292 334 223 277 211 208 c 2
 204 166 l 1
 204 155 l 2
EndSplineSet
Substitution2: "LGC old numerals subtable" sixoldstyle
EndChar

StartChar: seven
Encoding: 55 55 103
Width: 525
Flags: HW
TeX: 610 0
ItalicCorrection: 173
HStem: -11 21G<306 330.5> 490 62<450.528 483.88> 553 69<307.513 401.161>
VStem: 282 72<-6.46041 99.5647>
LayerCount: 2
Fore
SplineSet
139 430 m 0
 139 440 138 435 214 594 c 0
 224 615 228 622 254 622 c 0
 261 622 281 621 287 597 c 1
 321 612 352 622 379 622 c 0
 453 622 442 552 473 552 c 0
 520 552 567 613 572 617 c 0
 578 621 586 622 593 622 c 2
 594 622 l 2
 625 622 628 602 628 593 c 0
 628 579 617 569 611 560 c 0
 480 376 398 196 354 28 c 0
 352 21 346 -11 315 -11 c 0
 297 -11 282 2 282 22 c 0
 282 32 319 205 444 425 c 1
 484 491 l 1
 479 490 473 490 467 490 c 0
 405 490 404 553 377 553 c 0
 344 553 265 527 212 430 c 0
 206 419 200 402 175 402 c 0
 143 402 139 421 139 430 c 0
EndSplineSet
Substitution2: "LGC old numerals subtable" sevenoldstyle
EndChar

StartChar: eight
Encoding: 56 56 104
Width: 525
Flags: HW
TeX: 610 0
ItalicCorrection: 173
HStem: -11 62<216.942 344.236> 299 62<296.348 394.634> 560 62<334.689 458.383>
VStem: 116 72<79.004 214.669> 202 71<382.5 499.521> 424 70<134.293 270.92> 481 72<420.78 537.188>
LayerCount: 2
Fore
SplineSet
116 130 m 0
 116 210 169 289 280 330 c 1
 229 348 202 389 202 432 c 0
 202 520 304 622 417 622 c 0
 495 622 553 572 553 497 c 0xfa
 553 430 507 364 409 330 c 1
 477 304 494 249 494 211 c 0
 494 112 386 -11 259 -11 c 0
 175 -11 116 47 116 130 c 0
188 142 m 0
 188 90 221 51 276 51 c 0
 346 51 424 124 424 207 c 0xfc
 424 259 391 299 336 299 c 0
 266 299 188 225 188 142 c 0
273 437 m 0
 273 391 306 361 352 361 c 0
 420 361 481 423 481 484 c 0
 481 530 447 560 401 560 c 0xfa
 334 560 273 498 273 437 c 0
EndSplineSet
Substitution2: "LGC old numerals subtable" eightoldstyle
EndChar

StartChar: nine
Encoding: 57 57 105
Width: 525
Flags: HW
TeX: 610 0
ItalicCorrection: 173
HStem: -11 62<196.135 292.85> 215 62<270.512 390.91> 560 62<346.238 453.522>
VStem: 121 92<61.5164 129.01> 177 70<300.361 451.778> 474 69<365.217 538.582>
LayerCount: 2
Fore
SplineSet
121 75 m 0
 121 125 152 139 172 139 c 0
 192 139 213 124 213 99 c 0xf4
 213 84 207 72 195 61 c 1
 206 53 218 51 230 51 c 0
 303 51 390 142 434 256 c 1
 398 232 362 215 314 215 c 0
 214 215 177 305 177 364 c 0
 177 500 294 622 414 622 c 0
 465 622 543 592 543 451 c 0
 543 374 514 277 508 258 c 0
 458 108 341 -11 229 -11 c 0
 169 -11 121 17 121 75 c 0
247 365 m 0
 247 337 261 277 319 277 c 0
 390 277 454 340 466 404 c 0
 474 446 474 445 474 455 c 0xec
 474 505 461 560 411 560 c 0
 387 560 360 554 324 523 c 0
 250 460 247 385 247 365 c 0
EndSplineSet
Substitution2: "LGC old numerals subtable" nineoldstyle
EndChar

StartChar: colon
Encoding: 58 58 106
Width: 525
Flags: HW
TeX: 430 0
ItalicCorrection: 173
HStem: 0 125<234.625 318.777> 305 125<312.86 395.301>
VStem: 214 127<22.1548 103.642> 291 127<327.155 408.642>
LayerCount: 2
Fore
SplineSet
291 359 m 0
 291 401 329 430 362 430 c 0
 391 430 418 409 418 376 c 0
 418 334 378 305 346 305 c 0xd0
 313 305 291 329 291 359 c 0
EndSplineSet
Refer: 94 46 S 1 0 0 1 0 0 3
EndChar

StartChar: semicolon
Encoding: 59 59 107
Width: 525
Flags: HW
TeX: 430 138
ItalicCorrection: 173
HStem: -138 263 305 125<311.604 394.777>
VStem: 214 138<12.6756 103.625> 290 127<327.155 408.392>
LayerCount: 2
Fore
SplineSet
290 360 m 0
 290 402 329 430 362 430 c 0
 391 430 417 409 417 376 c 0
 417 334 378 305 346 305 c 0xd0
 313 305 290 330 290 360 c 0
EndSplineSet
Refer: 92 44 S 1 0 0 1 -0 -0 3
EndChar

StartChar: less
Encoding: 60 60 108
Width: 525
Flags: HW
TeX: 555 -55
ItalicCorrection: 173
DStem2: 246 301 184 275 0.731172 -0.682194<0 296.272> 190 338 246 301 0.844307 0.53586<27.4543 405.068>
LayerCount: 2
Fore
SplineSet
165 305 m 0
 165 325 184 334 190 338 c 2
 513 543 l 2
 519 547 526 551 535 551 c 0
 551 551 566 539 566 521 c 0
 566 504 554 497 544 490 c 2
 246 301 l 1
 436 124 l 2
 441 119 458 107 458 90 c 0
 458 73 442 60 427 60 c 0
 413 60 407 67 393 80 c 2
 184 275 l 2
 175 284 165 293 165 305 c 0
EndSplineSet
EndChar

StartChar: equal
Encoding: 61 61 109
Width: 525
Flags: HW
TeX: 415 -195
ItalicCorrection: 173
HStem: 199 62<131.5 505.45> 350 62<169.484 543.454>
LayerCount: 2
Fore
SplineSet
130 230 m 0
 130 246 143 258 156 260 c 0
 162 261 168 261 174 261 c 2
 470 261 l 2
 504 261 507 238 507 231 c 0
 507 221 503 199 468 199 c 2
 166 199 l 1
 134 200 130 222 130 230 c 0
168 381 m 0
 168 394 174 412 209 412 c 2
 504 412 l 2
 540 412 545 393 545 381 c 0
 545 373 541 350 508 350 c 2
 203 350 l 1
 172 351 168 373 168 381 c 0
EndSplineSet
EndChar

StartChar: greater
Encoding: 62 62 110
Width: 525
Flags: HW
TeX: 555 -55
ItalicCorrection: 173
DStem2: 284 531 241 487 0.732918 -0.680317<-38.7777 258.089> 409 296 164 68 0.844307 0.53586<-351.536 26.0768>
LayerCount: 2
Fore
SplineSet
112 90 m 0
 112 107 123 114 133 121 c 2
 409 296 l 2
 416 301 423 306 431 310 c 1
 241 487 l 2
 227 500 219 507 219 521 c 0
 219 536 231 551 249 551 c 0
 263 551 270 544 284 531 c 2
 493 337 l 2
 506 325 511 319 511 306 c 0
 511 286 493 277 487 273 c 2
 164 68 l 2
 158 64 151 60 142 60 c 0
 126 60 112 72 112 90 c 0
EndSplineSet
EndChar

StartChar: question
Encoding: 63 63 111
Width: 525
Flags: HW
TeX: 610 0
ItalicCorrection: 173
HStem: 0 100<236.464 312.152> 560 62<335.537 457.555>
VStem: 209 90<439.596 527.247> 224 101<12.75 87.3193> 255 64<246.446 290.393> 468 64<454.002 549.627>
LayerCount: 2
Fore
SplineSet
209 470 m 0xe4
 209 521 286 622 409 622 c 0
 483 622 532 572 532 506 c 0
 532 487 528 429 467 379 c 0
 443 359 386 327 334 291 c 1
 325 278 319 268 319 252 c 0
 319 250 320 248 320 245 c 1
 385 255 356 304 404 305 c 0
 429 305 439 293 439 277 c 0
 439 241 387 183 317 183 c 0
 280 183 255 213 255 254 c 0xcc
 255 280 266 316 290 340 c 0
 300 350 314 357 412 422 c 0
 459 453 468 491 468 508 c 0
 468 540 444 560 408 560 c 0
 349 560 296 513 296 500 c 0
 296 493 299 489 299 479 c 0
 299 454 278 431 250 431 c 0
 230 431 209 445 209 470 c 0xe4
EndSplineSet
Refer: 59 729 S 1 0 0 1 -150 -511 2
EndChar

StartChar: at
Encoding: 64 64 112
Width: 525
Flags: HW
TeX: 610 0
ItalicCorrection: 173
HStem: -5 61<248.433 370.604> 107 62<330.162 398.493> 441 63<397.188 465.949> 554 62<373.913 481.233>
VStem: 141 57<112.452 327.656> 263 58<174.434 339.101> 474 76<328.662 513.066>
LayerCount: 2
Fore
SplineSet
141 207 m 0
 141 404 293 616 444 616 c 0
 486 616 550 595 550 475 c 0
 550 392 515 276 512 266 c 0
 482 179 418 107 355 107 c 0
 300 107 263 159 263 237 c 0
 263 355 347 504 440 504 c 0
 463 504 480 495 493 484 c 1
 491 509 488 554 442 554 c 0
 334 554 198 381 198 210 c 0
 198 120 241 56 305 56 c 0
 364 56 394 101 409 107 c 0
 412 108 419 110 428 110 c 0
 458 110 466 93 466 81 c 0
 466 54 385 -5 305 -5 c 0
 207 -5 141 83 141 207 c 0
321 241 m 0
 321 195 335 169 358 169 c 0
 404 169 474 273 474 370 c 0
 474 417 460 441 437 441 c 0
 391 441 321 337 321 241 c 0
EndSplineSet
EndChar

StartChar: A
Encoding: 65 65 113
Width: 525
Flags: HW
TeX: 610 0
ItalicCorrection: 173
HStem: -0 62<72.4986 137.991 200 239.306 299.439 354 425 465.041> 164 61<271 361> 603 20G<390.5 440>
VStem: 71 170<2.21578 59.748> 298 169<1.92894 59.8493>
DStem2: 129 62 200 62 0.400352 0.916361<28.425 139.509 206.217 546.231> 354 62 425 62 0.0835916 0.9965<5.935 102.228 163.349 281.326>
AnchorPoint: "ogonek" 217 0 basechar 0
AnchorPoint: "below" 261 0 basechar 0
AnchorPoint: "above" 418 622 basechar 0
LayerCount: 2
Fore
SplineSet
71 29 m 0
 71 45 79 62 109 62 c 2
 129 62 l 1
 136 80 144 97 152 115 c 2
 354 577 l 2
 363 598 371 623 410 623 c 2
 426 623 l 2
 454 623 459 610 459 593 c 2
 459 583 l 1
 429 115 l 2
 428 97 426 80 425 62 c 1
 428 62 l 2
 443 62 467 61 467 33 c 0
 467 24 463 0 432 -0 c 2
 332 -0 l 2
 302 0 298 20 298 29 c 0
 298 43 304 62 335 62 c 2
 354 62 l 1
 361 164 l 1
 244 164 l 1
 200 62 l 1
 202 62 l 2
 216 62 241 61 241 33 c 0
 241 19 234 0 203 -0 c 2
 106 -0 l 2
 75 0 71 20 71 29 c 0
271 225 m 1
 365 225 l 1
 376 368 l 1
 385 456 l 1
 392 515 l 1
 397 541 l 1
 377 476 324 350 271 225 c 1
EndSplineSet
EndChar

StartChar: B
Encoding: 66 66 114
Width: 525
Flags: HW
TeX: 610 0
ItalicCorrection: 173
HStem: -0 62<63.6092 127 198 360.236> 287 61<270 407.893> 549 62<201.852 248 320 465.355>
VStem: 424 70<129.9 272.566> 477 72<413.736 537.907>
DStem2: 111.496 -0 182.496 -0 0.242599 0.970127<81.1337 313.24 376.057 565.715>
AnchorPoint: "below" 215 0 basechar 0
AnchorPoint: "above" 371 622 basechar 0
LayerCount: 2
Fore
SplineSet
62 29 m 0
 62 45 70 62 101 62 c 2
 127 62 l 1
 248 549 l 1
 234 549 l 2
 206 549 200 568 200 578 c 0
 200 586 203 610 234 611 c 1
 434 611 l 2
 526 611 549 542 549 496 c 0xe8
 549 445 521 361 417 320 c 1
 478 301 494 250 494 210 c 0
 494 123 414 0 300 -0 c 2
 96 -0 l 1
 67 1 62 20 62 29 c 0
198 62 m 1
 296 62 l 2
 379 62 424 144 424 210 c 0xf0
 424 242 412 287 365 287 c 2
 255 287 l 1
 198 62 l 1
270 348 m 1
 347 348 l 2
 436 348 477 435 477 485 c 0xe8
 477 515 465 549 417 549 c 2
 320 549 l 1
 270 348 l 1
EndSplineSet
EndChar

StartChar: C
Encoding: 67 67 115
Width: 525
Flags: HW
TeX: 610 0
ItalicCorrection: 173
HStem: -11 62<242.794 348.319> 560 62<370.803 472.045>
VStem: 137 70<93.0044 323.482> 419 73<124.825 199.678> 489 108<451.282 602.5>
AnchorPoint: "below" 286 0 basechar 0
AnchorPoint: "above" 426 622 basechar 0
LayerCount: 2
Fore
SplineSet
137 195 m 0
 137 390 277 622 426 622 c 2
 427 622 l 1
 484 621 511 591 521 581 c 1
 538 605 546 622 567 622 c 0
 582 622 597 611 597 594 c 0
 597 587 598 593 558 432 c 0
 554 418 552 400 522 400 c 0
 507 400 487 403 487 432 c 0
 487 444 489 457 489 470 c 0xe8
 489 511 477 560 428 560 c 0
 327 559 207 362 207 193 c 0
 207 141 223 51 288 51 c 0
 340 51 397 101 419 166 c 0
 424 182 427 202 455 202 c 2
 457 202 l 2xf0
 487 202 492 184 492 173 c 0xf0
 492 169 491 166 490 161 c 0
 457 44 353 -11 283 -11 c 0
 193 -11 137 75 137 195 c 0
EndSplineSet
EndChar

StartChar: D
Encoding: 68 68 116
Width: 525
Flags: HW
TeX: 610 0
ItalicCorrection: 173
HStem: -0 62<62.6982 121 193 324.147> 549 62<200.501 243 315 435.864>
VStem: 470 72<282.256 509.451>
DStem2: 105.496 -0 177.496 -0 0.242599 0.970127<81.3763 565.958>
AnchorPoint: "below" 217 0 basechar 0
AnchorPoint: "above" 372 622 basechar 0
LayerCount: 2
Fore
SplineSet
61 29 m 0
 61 41 66 62 99 62 c 2
 121 62 l 1
 243 549 l 1
 236 549 l 2
 221 549 199 551 199 579 c 0
 199 595 209 611 233 611 c 2
 415 611 l 2
 444 611 491 607 521 537 c 0
 530 516 542 480 542 424 c 0
 542 222 405 0 266 -0 c 2
 97 -0 l 2
 65 0 61 21 61 29 c 0
193 62 m 1
 260 62 l 2
 286 62 304 67 326 82 c 0
 399 133 470 272 470 409 c 0
 470 459 456 540 399 548 c 0
 394 549 388 549 383 549 c 2
 315 549 l 1
 193 62 l 1
EndSplineSet
EndChar

StartChar: E
Encoding: 69 69 117
Width: 525
Flags: HW
TeX: 610 0
ItalicCorrection: 173
HStem: -0 62<66.4144 131 203 414.012> 286 62<274 356> 549 62<204.074 253 324 512>
VStem: 497 94<493.376 546.731>
DStem2: 115.496 -1.34438e-13 187.496 -1.34438e-13 0.242599 0.970127<81.3763 312.27 376.057 565.958>
AnchorPoint: "ogonek" 261 0 basechar 0
AnchorPoint: "below" 261 0 basechar 0
AnchorPoint: "above" 416 622 basechar 0
LayerCount: 2
Fore
SplineSet
65 29 m 0
 65 57 85 62 104 62 c 2
 131 62 l 1
 253 549 l 1
 238 549 l 2
 211 549 202 563 202 577 c 0
 202 585 205 611 239 611 c 2
 556 611 l 2
 588 611 591 590 591 582 c 0
 591 572 566 478 562 470 c 0
 557 460 543 454 530 454 c 0
 511 454 497 465 497 482 c 0
 497 489 500 500 512 549 c 1
 324 549 l 1
 274 348 l 1
 371 348 l 1
 377 354 371 403 413 404 c 1
 414 404 l 2
 444 404 449 387 449 375 c 0
 449 370 447 363 421 259 c 0
 418 248 414 229 387 229 c 2
 386 229 l 2
 362 229 351 241 351 259 c 0
 351 267 352 270 356 286 c 1
 259 286 l 1
 259 285 l 1
 203 62 l 1
 409 62 l 1
 432 161 433 172 463 172 c 2
 467 172 l 2
 494 172 499 153 499 144 c 0
 499 134 495 119 474 37 c 0
 467 9 462 0 436 -0 c 2
 99 -0 l 2
 70 0 65 20 65 29 c 0
EndSplineSet
EndChar

StartChar: F
Encoding: 70 70 118
Width: 525
Flags: HW
TeX: 610 0
ItalicCorrection: 173
HStem: 0 62<67.4503 136 207 274.572> 275 61<276 361> 549 62<205.78 257 329 520>
VStem: 505 94<483 582>
DStem2: 120.496 0 191.496 0 0.242599 0.970127<81.1337 300.871 363.688 565.715>
CounterMasks: 1 e0
AnchorPoint: "below" 256 0 basechar 0
AnchorPoint: "above" 412 622 basechar 0
LayerCount: 2
Fore
SplineSet
66 29 m 0
 66 57 87 62 106 62 c 2
 136 62 l 1
 257 549 l 1
 238 549 l 2
 210 549 204 567 204 578 c 0
 204 588 208 611 241 611 c 2
 563 611 l 2
 595 611 599 590 599 582 c 0
 599 572 595 562 575 484 c 0
 571 468 565 455 541 455 c 2
 540 455 l 2
 520 455 505 460 505 483 c 0
 505 499 513 521 520 549 c 1
 329 549 l 1
 276 336 l 1
 377 336 l 1
 387 384 393 393 418 393 c 2
 419 393 l 2
 445 393 455 380 455 364 c 0
 455 359 453 352 427 248 c 0
 424 237 420 218 393 218 c 2
 391 218 l 2
 366 218 356 229 356 247 c 0
 356 256 358 264 361 275 c 1
 261 275 l 1
 207 62 l 1
 239 62 l 2
 250 62 276 61 276 33 c 0
 276 19 270 0 239 0 c 2
 103 0 l 2
 87 0 66 4 66 29 c 0
EndSplineSet
EndChar

StartChar: G
Encoding: 71 71 119
Width: 525
Flags: HW
TeX: 610 0
ItalicCorrection: 173
HStem: -11 62<230.487 322.011> 207 62<339.686 399 467.042 516.411> 560 62<356.547 448.283>
VStem: 133 69<80.8432 318.58> 457 71<402.2 478.88> 461 106<454.26 602.5>
AnchorPoint: "below" 267 0 basechar 0
AnchorPoint: "above" 409 622 basechar 0
LayerCount: 2
Fore
SplineSet
133 187 m 0
 133 381 268 622 409 622 c 0
 460 622 485 594 494 585 c 1
 512 612 520 622 537 622 c 0
 552 622 567 611 567 594 c 0xf4
 567 587 568 593 528 432 c 0
 524 416 520 400 490 400 c 0
 463 400 457 417 457 428 c 0xf8
 457 439 461 456 461 480 c 0
 461 517 451 560 411 560 c 0
 316 560 202 346 202 184 c 0
 202 146 211 51 269 51 c 0
 347 51 390 177 399 207 c 1
 374 207 l 2
 343 207 338 224 338 236 c 0
 338 246 342 269 374 269 c 2
 483 269 l 2
 512 269 518 251 518 240 c 0
 518 229 514 207 482 207 c 2
 472 207 l 1
 468 189 463 171 427 28 c 0
 421 5 406 0 393 -0 c 0xf4
 365 0 360 17 358 21 c 1
 329 3 303 -11 264 -11 c 0
 183 -11 133 70 133 187 c 0
EndSplineSet
EndChar

StartChar: H
Encoding: 72 72 120
Width: 525
Flags: HW
TeX: 610 0
ItalicCorrection: 173
HStem: 0 62<63.4473 124 195 240.302 298.499 359 431 475.358> 287 61<267 415> 549 62<200.447 245 317 377.501 435.676 481 552 612.501>
DStem2: 108.496 0 179.496 0 0.242599 0.970127<81.1337 312.998 376.057 565.715> 343.496 0 415.496 0 0.242599 0.970127<81.3763 295.773 358.833 565.958>
AnchorPoint: "below" 261 0 basechar 0
AnchorPoint: "above" 417 622 basechar 0
LayerCount: 2
Fore
SplineSet
62 29 m 0
 62 45 69 62 99 62 c 2
 124 62 l 1
 245 549 l 1
 233 549 l 2
 202 549 199 568 199 578 c 0
 199 594 206 611 236 611 c 2
 344 611 l 2
 375 611 379 591 379 582 c 0
 379 566 371 549 341 549 c 2
 317 549 l 1
 267 348 l 1
 431 348 l 1
 481 549 l 1
 469 549 l 2
 439 549 434 568 434 578 c 0
 434 590 439 611 471 611 c 2
 580 611 l 2
 611 611 614 591 614 582 c 0
 614 566 606 549 576 549 c 2
 552 549 l 1
 431 62 l 1
 443 62 l 2
 474 62 477 41 477 33 c 0
 477 22 473 0 440 0 c 2
 332 0 l 2
 301 0 297 20 297 29 c 0
 297 45 305 62 335 62 c 2
 359 62 l 1
 415 287 l 1
 251 287 l 1
 195 62 l 1
 207 62 l 2
 238 62 242 41 242 33 c 0
 242 22 237 0 204 0 c 2
 96 0 l 2
 65 0 62 20 62 29 c 0
EndSplineSet
EndChar

StartChar: I
Encoding: 73 73 121
Width: 525
Flags: HW
TeX: 610 0
ItalicCorrection: 173
HStem: -0 62<110.935 242 313 428.047> 549 62<248.699 363 435 565.297>
DStem2: 226.496 -0 297.496 -0 0.242599 0.970127<81.1337 565.715>
AnchorPoint: "ogonek" 262 0 basechar 0
AnchorPoint: "below" 261 0 basechar 0
AnchorPoint: "above" 417 622 basechar 0
LayerCount: 2
Fore
SplineSet
109 29 m 0
 109 38 113 62 146 62 c 2
 242 62 l 1
 363 549 l 1
 281 549 l 2
 257 549 247 563 247 578 c 0
 247 586 250 611 282 611 c 2
 530 611 l 2
 562 611 567 594 567 582 c 0
 567 573 564 549 531 549 c 2
 435 549 l 1
 313 62 l 1
 395 62 l 2
 420 62 430 48 430 33 c 0
 430 24 426 1 394 -0 c 1
 147 -0 l 2
 115 0 109 17 109 29 c 0
EndSplineSet
EndChar

StartChar: J
Encoding: 74 74 122
Width: 525
Flags: HW
TeX: 610 0
ItalicCorrection: 173
HStem: -11 62<186.291 302.477> 549 62<357.477 450 517.222 587.374>
VStem: 110 92<70.4234 135.878>
DStem2: 310.739 -11 382.49 -11 0.242599 0.970127<87.5068 577.055>
AnchorPoint: "below" 265 0 basechar 0
AnchorPoint: "above" 504 622 basechar 0
LayerCount: 2
Fore
SplineSet
110 85 m 0
 110 131 140 146 161 146 c 0
 185 146 202 127 202 106 c 0
 202 90 193 79 185 70 c 1
 193 63 207 51 239 51 c 0
 275 51 332 73 350 146 c 2
 450 549 l 1
 400 549 l 2
 391 549 380 548 371 553 c 0
 362 558 356 566 356 578 c 0
 356 609 383 611 392 611 c 2
 552 611 l 2
 583 611 589 593 589 582 c 0
 589 566 581 549 550 549 c 2
 522 549 l 1
 519 535 516 521 512 507 c 2
 418 131 l 2
 391 25 300 -11 238 -11 c 0
 165 -11 110 27 110 85 c 0
EndSplineSet
EndChar

StartChar: K
Encoding: 75 75 123
Width: 525
Flags: HW
TeX: 610 0
ItalicCorrection: 173
HStem: -0 62<67.4387 125 184 226.324 325.38 366 429 464.047> 549 62<204.461 247 305 364.369 520.098 593.501>
VStem: 66 162<2.11714 59.8493> 203 163<551.252 608.948> 324 142<2.27417 60.1263> 442 153<551.312 608.463>
DStem2: 109.496 -0 168.496 -0 0.242599 0.970127<78.2225 216.71 323.426 565.958> 243 300 314 302 0.673462 0.739221<0 49.2943 125.037 337.616> 365 358 314 302 0.211333 -0.977414<43.9572 289.526>
AnchorPoint: "below" 258 0 basechar 0
AnchorPoint: "above" 413 622 basechar 0
LayerCount: 2
Fore
SplineSet
66 29 m 0xe0
 66 43 72 62 103 62 c 2
 125 62 l 1
 247 549 l 1
 238 549 l 2
 207 549 203 568 203 578 c 0
 203 593 209 611 240 611 c 2
 331 611 l 2
 361 611 366 591 366 582 c 0
 366 566 358 549 328 549 c 2xd0
 305 549 l 1
 243 300 l 1
 471 549 l 1
 452 551 442 565 442 579 c 0
 442 588 447 611 480 611 c 2
 559 611 l 2
 591 611 595 592 595 582 c 0xd4
 595 566 587 549 557 549 c 2
 555 549 l 2
 542 549 539 549 528 537 c 0
 474 477 371 364 365 358 c 1
 429 62 l 1
 431 62 l 2
 456 62 466 48 466 33 c 0
 466 24 462 0 429 -0 c 2
 358 -0 l 2
 331 0 324 17 324 29 c 0xc8
 324 60 349 62 362 62 c 2
 366 62 l 1xd0
 314 302 l 1
 231 211 l 1
 219 196 l 1
 210 170 211 169 184 62 c 1
 193 62 l 2
 225 62 228 42 228 33 c 0
 228 21 223 0 191 -0 c 2
 100 -0 l 2
 70 0 66 19 66 29 c 0xe0
EndSplineSet
EndChar

StartChar: L
Encoding: 76 76 124
Width: 525
Flags: HW
TeX: 610 0
ItalicCorrection: 173
HStem: 0 62<71.5191 142 213 401.441> 549 62<208.519 263 335 421.594>
DStem2: 126.496 0 197.496 0 0.242599 0.970127<81.1337 565.715>
AnchorPoint: "below" 257 0 basechar 0
AnchorPoint: "above" 413 622 basechar 0
LayerCount: 2
Fore
SplineSet
70 29 m 0
 70 55 88 62 109 62 c 2
 142 62 l 1
 263 549 l 1
 243 549 l 2
 212 549 207 566 207 578 c 0
 207 604 225 611 246 611 c 2
 387 611 l 2
 417 611 423 594 423 582 c 0
 423 551 398 549 385 549 c 2
 335 549 l 1
 213 62 l 1
 397 62 l 1
 422 171 425 172 454 172 c 0
 485 172 488 152 488 144 c 0
 488 134 484 123 463 38 c 0
 458 17 456 1 425 0 c 1
 103 0 l 2
 75 0 70 20 70 29 c 0
EndSplineSet
EndChar

StartChar: M
Encoding: 77 77 125
Width: 525
Flags: HW
TeX: 610 0
ItalicCorrection: 173
HStem: -0 62<60.509 111 169 204.096 335.431 386 444 478.096> 549 62<198.5 233 566 615.5>
VStem: 59 147<6.23585 59.748> 283 53<275.21 529> 334 146<6.23585 59.8602>
DStem2: 95.4957 -0 153.496 -0 0.242599 0.970127<77.9799 559.413> 370.496 -0 428.496 -0 0.242599 0.970127<77.9799 545.1>
AnchorPoint: "below" 261 0 basechar 0
AnchorPoint: "above" 417 622 basechar 0
LayerCount: 2
Fore
SplineSet
59 29 m 0
 59 45 67 62 97 62 c 2
 111 62 l 1
 233 549 l 1
 231 549 l 2
 200 549 197 569 197 578 c 0
 197 588 200 611 233 611 c 2xf0
 255 611 l 2
 262 611 270 611 277 610 c 1
 283 611 289 611 295 611 c 0
 333 611 336 594 336 549 c 2
 336 405 l 2xf0
 336 314 334 300 331 274 c 1
 340 307 405 437 476 574 c 0
 492 605 508 611 532 611 c 0
 549 611 566 611 583 611 c 0
 614 611 617 590 617 582 c 0
 617 572 614 549 581 549 c 2
 566 549 l 1
 444 62 l 1
 445 62 l 2
 470 62 480 48 480 33 c 0
 480 24 476 0 444 -0 c 0
 426 0 408 0 390 -0 c 0
 354 0 352 1 346 6 c 0
 339 11 334 18 334 29 c 0xe8
 334 60 360 62 372 62 c 2
 386 62 l 1
 502 529 l 1
 483 478 362 239 352 226 c 0
 344 215 330 204 313 204 c 0
 285 204 283 230 283 261 c 2
 283 340 l 1
 282 356 l 1
 282 408 l 2
 282 505 285 505 286 529 c 1
 169 62 l 1
 170 62 l 2
 195 62 206 48 206 33 c 0
 206 24 202 0 170 -0 c 0
 152 0 134 0 116 -0 c 0
 80 0 77 1 71 6 c 0
 64 11 59 18 59 29 c 0
EndSplineSet
EndChar

StartChar: N
Encoding: 78 78 126
Width: 525
Flags: HW
TeX: 610 0
ItalicCorrection: 173
HStem: 0 62<69.5625 130 188 232.358> 549 62<206.439 251 444.439 489 541.764 608.369>
VStem: 68 166<2.10278 59.948> 306 52<282.432 533.506> 319 53<78.7661 324.752> 443 167<551.117 609.047>
DStem2: 114.496 0 172.496 0 0.242599 0.970127<77.9799 564.506> 351.995 0 410.248 0 0.242599 0.970127<78.3403 565.837>
AnchorPoint: "below" 262 0 basechar 0
AnchorPoint: "above" 417 622 basechar 0
LayerCount: 2
Fore
SplineSet
68 29 m 0
 68 44 75 62 105 62 c 2
 130 62 l 1
 251 549 l 1
 239 549 l 2
 209 549 205 568 205 578 c 0
 205 594 212 611 242 611 c 2xf4
 272 611 l 2
 280 611 287 611 295 610 c 1
 301 611 309 611 315 611 c 0
 362 611 353 591 358 487 c 0xf4
 363 374 372 186 372 111 c 0
 372 97 371 90 371 76 c 1
 489 549 l 1
 477 549 l 2
 447 549 443 568 443 578 c 0
 443 594 450 611 480 611 c 2
 575 611 l 2
 605 611 610 591 610 582 c 0
 610 567 603 549 572 549 c 2
 547 549 l 1
 543 531 538 513 534 495 c 2
 418 31 l 2
 413 13 408 1 387 1 c 2
 382 1 l 1
 376 0 370 0 364 0 c 2
 359 0 l 2
 314 0 323 33 319 124 c 0xec
 305 431 307 405 305 501 c 0
 305 510 306 520 306 529 c 2
 306 534 l 1
 188 62 l 1
 200 62 l 2
 231 62 234 41 234 33 c 0
 234 22 230 0 197 0 c 2
 102 0 l 1
 72 1 68 20 68 29 c 0
EndSplineSet
EndChar

StartChar: O
Encoding: 79 79 127
Width: 525
Flags: HW
TeX: 610 0
ItalicCorrection: 173
HStem: -11 61<208.902 350.812> 560 62<323.043 470.591>
VStem: 122 76<62.7821 215.401> 481 74<394.834 548.606>
AnchorPoint: "ogonek" 261 0 basechar 0
AnchorPoint: "below" 261 0 basechar 0
AnchorPoint: "above" 417 622 basechar 0
LayerCount: 2
Fore
SplineSet
122 74 m 0
 122 166 193 417 213 476 c 0
 256 601 295 622 417 622 c 0
 498 622 555 618 555 538 c 0
 555 446 484 191 463 131 c 0
 419 7 378 -11 258 -11 c 0
 170 -11 122 -1 122 74 c 0
198 107 m 0
 198 74 213 50 275 50 c 0
 364 50 383 98 409 182 c 0
 428 242 481 442 481 507 c 0
 481 538 464 560 403 560 c 0
 320 560 303 523 290 491 c 0
 267 437 198 184 198 107 c 0
EndSplineSet
EndChar

StartChar: P
Encoding: 80 80 128
Width: 525
Flags: HW
TeX: 610 0
ItalicCorrection: 173
HStem: 0 62<66.4767 131 203 252.341> 244 61<264 411.661> 549 62<203.483 253 324 461.694>
VStem: 487 72<386.032 523.837>
DStem2: 115.496 0 187.496 0 0.242599 0.970127<81.3763 268.856 331.916 565.958>
AnchorPoint: "below" 216 0 basechar 0
AnchorPoint: "above" 371 622 basechar 0
LayerCount: 2
Fore
SplineSet
65 29 m 0
 65 60 92 62 101 62 c 0
 111 62 121 62 131 62 c 1
 253 549 l 1
 237 549 l 2
 206 549 202 568 202 578 c 0
 202 589 206 611 238 611 c 2
 437 611 l 2
 518 611 559 552 559 478 c 0
 559 385 480 244 339 244 c 2
 248 244 l 1
 203 62 l 1
 219 62 l 2
 250 62 254 42 254 33 c 0
 254 19 247 0 216 0 c 2
 100 0 l 2
 70 0 65 18 65 29 c 0
264 305 m 1
 339 305 l 2
 436 305 487 399 487 462 c 0
 487 498 470 549 401 549 c 2
 324 549 l 1
 264 305 l 1
EndSplineSet
EndChar

StartChar: Q
Encoding: 81 81 129
Width: 525
Flags: HW
TeX: 610 138
ItalicCorrection: 173
HStem: -11 61<208.288 285> 560 62<324.025 470.358>
VStem: 122 75<62.641 213.278> 480 75<395.414 548.351>
AnchorPoint: "below" 206 -222 basechar 0
AnchorPoint: "above" 418 622 basechar 0
LayerCount: 2
Fore
SplineSet
122 74 m 0
 122 162 193 423 220 495 c 0
 257 592 293 622 407 622 c 2
 429 622 l 2
 540 622 555 588 555 536 c 0
 555 475 533 384 494 234 c 0
 453 76 424 29 375 6 c 1
 375 6 395 -99 395 -111 c 0
 395 -122 391 -139 362 -139 c 2
 344 -139 l 2
 311 -139 315 -136 296 -10 c 1
 284 -11 273 -11 261 -11 c 0
 180 -11 122 -6 122 74 c 0
197 107 m 0
 197 81 206 50 274 50 c 0
 278 50 281 51 285 51 c 1
 275 116 270 134 270 144 c 0
 270 149 273 171 304 171 c 2
 327 171 l 2
 348 171 346 170 361 78 c 1
 369 86 375 91 390 128 c 0
 418 200 480 440 480 504 c 0
 480 532 471 560 402 560 c 0
 315 560 300 511 294 499 c 0
 270 449 197 185 197 107 c 0
EndSplineSet
EndChar

StartChar: R
Encoding: 82 82 130
Width: 525
Flags: HW
TeX: 610 0
ItalicCorrection: 173
HStem: -11 21G<392.5 441.5> 0 62<63.4473 124 195 240.302> 275 61<264 356.207> 549 62<200.548 245 317 425.723>
VStem: 336 68<51.264 161.513> 366 70<126.477 267.655> 450 72<400.912 525.958>
DStem2: 105.745 -11 176.745 -11 0.242599 0.970127<92.4725 312.21 375.026 577.054>
AnchorPoint: "below" 216 0 basechar 0
AnchorPoint: "above" 371 622 basechar 0
LayerCount: 2
Fore
SplineSet
62 29 m 0
 62 45 69 62 99 62 c 2
 124 62 l 1x76
 245 549 l 1
 231 549 l 2
 208 549 199 564 199 579 c 0
 199 588 203 611 235 611 c 2
 389 611 l 2
 497 611 522 534 522 485 c 0
 522 411 473 338 407 301 c 1
 425 279 436 256 436 223 c 0x76
 436 174 404 106 404 60 c 2
 404 51 l 1
 441 58 417 126 469 126 c 0
 498 126 505 108 505 97 c 0
 505 80 476 -11 407 -11 c 0
 378 -11 336 4 336 68 c 0xba
 336 119 366 193 366 224 c 0
 366 248 355 275 315 275 c 2
 249 275 l 1
 195 62 l 1
 207 62 l 2
 238 62 242 41 242 33 c 0
 242 22 237 0 204 0 c 2
 96 0 l 2
 65 0 62 19 62 29 c 0
264 336 m 1x32
 311 336 l 2
 408 336 450 422 450 470 c 0
 450 500 435 549 367 549 c 2
 317 549 l 1
 264 336 l 1x32
EndSplineSet
EndChar

StartChar: S
Encoding: 83 83 131
Width: 525
Flags: HW
TeX: 610 0
ItalicCorrection: 173
HStem: -11 61<218.035 347.718> 560 62<325.75 441.728>
VStem: 91 103<12 151.741> 196 67<377.123 495.776> 418 68<128.684 257.959> 456 71<409.296 477.297> 459 106<457.759 601.5>
AnchorPoint: "below" 288 0 basechar 0
AnchorPoint: "above" 389 622 basechar 0
LayerCount: 2
Fore
SplineSet
91 17 m 0
 91 24 90 19 128 172 c 0
 132 189 136 203 165 203 c 0
 195 203 199 184 199 175 c 0
 199 164 194 150 194 129 c 0
 194 66 246 50 286 50 c 0
 354 50 418 128 418 203 c 0xf8
 418 281 358 269 274 301 c 0
 241 314 196 350 196 422 c 0
 196 523 287 622 390 622 c 0
 452 622 482 592 494 582 c 1
 504 600 512 622 535 622 c 0
 551 622 565 610 565 593 c 0xf2
 565 586 565 592 527 439 c 0
 524 427 521 408 492 407 c 1
 491 407 l 2xf4
 475 407 456 411 456 437 c 0xf4
 456 448 459 463 459 478 c 0xf2
 459 520 446 560 389 560 c 0
 320 560 263 487 263 428 c 0
 263 355 332 365 409 334 c 0
 454 316 486 272 486 209 c 0
 486 102 394 -11 285 -11 c 0
 211 -11 177 19 163 31 c 1
 152 11 143 -11 120 -11 c 0
 98 -11 91 7 91 17 c 0
EndSplineSet
EndChar

StartChar: T
Encoding: 84 84 132
Width: 525
Flags: HW
TeX: 610 0
ItalicCorrection: 173
HStem: -0 62<158.471 242 314 381.62> 455 156<213.331 253.135 527.12 579.77> 549 62<267.77 364 435 527>
VStem: 185 87<471.078 547.875> 513 93<483 582>
DStem2: 226.496 -0 298.496 -0 0.242599 0.970127<81.3763 565.958>
AnchorPoint: "below" 262 0 basechar 0
AnchorPoint: "above" 417 622 basechar 0
LayerCount: 2
Fore
SplineSet
157 29 m 0
 157 60 183 62 196 62 c 2
 242 62 l 1
 364 549 l 1
 272 549 l 1xb8
 253 460 247 455 222 455 c 2
 220 455 l 2
 189 455 185 473 185 483 c 0
 185 494 209 588 213 596 c 0
 220 608 231 611 245 611 c 2
 572 611 l 2
 602 611 606 590 606 582 c 0
 606 572 602 561 582 481 c 0
 576 455 555 455 548 455 c 0xd8
 532 455 513 457 513 483 c 0
 513 499 520 521 527 549 c 1
 435 549 l 1
 314 62 l 1xb8
 325 62 336 62 347 62 c 0
 358 62 383 61 383 33 c 0
 383 2 358 0 345 -0 c 2
 194 -0 l 2
 162 0 157 17 157 29 c 0
EndSplineSet
EndChar

StartChar: U
Encoding: 85 85 133
Width: 525
Flags: HW
TeX: 610 0
ItalicCorrection: 173
HStem: -11 62<229.387 320.773> 549 62<184.719 234 301.123 371.489 442.562 491 558.077 628.481>
VStem: 141 70<67.8446 249.321>
DStem2: 94.7329 -11 165.734 -11 0.242599 0.970127<176.101 577.057> 351.483 -11 423.484 -11 0.242599 0.970127<121.292 577.118>
AnchorPoint: "ogonek" 269 0 basechar 0
AnchorPoint: "below" 269 0 basechar 0
AnchorPoint: "above" 417 622 basechar 0
LayerCount: 2
Fore
SplineSet
141 143 m 0
 141 178 149 204 156 234 c 2
 234 549 l 1
 219 549 l 2
 188 549 183 568 183 578 c 0
 183 593 191 611 221 611 c 2
 338 611 l 2
 369 611 373 591 373 582 c 0
 373 566 365 549 334 549 c 2
 306 549 l 1
 291 483 298 516 223 218 c 0
 217 195 211 171 211 140 c 0
 211 88 233 51 267 51 c 0
 280 51 304 56 333 82 c 0
 390 133 403 196 413 235 c 2
 491 549 l 1
 476 549 l 2
 445 549 441 568 441 578 c 0
 441 593 448 611 478 611 c 2
 595 611 l 2
 626 611 630 591 630 582 c 0
 630 556 612 549 591 549 c 2
 563 549 l 1
 559 528 510 335 481 219 c 0
 471 178 455 111 395 51 c 0
 338 -7 285 -11 266 -11 c 0
 191 -11 141 54 141 143 c 0
EndSplineSet
EndChar

StartChar: V
Encoding: 86 86 134
Width: 525
Flags: HW
TeX: 610 0
ItalicCorrection: 173
HStem: -8 21G<235 286.5> 549 62<202.682 240 312 365.553 447.682 485 557 610.358>
VStem: 201 166<551.151 609.009> 240 72<391.957 549> 446 166<551.103 609.071>
DStem2: 350 247 324 37 0.414205 0.910184<-152.774 330.793>
AnchorPoint: "below" 260 0 basechar 0
AnchorPoint: "above" 416 622 basechar 0
LayerCount: 2
Fore
SplineSet
201 578 m 0
 201 588 204 611 237 611 c 2
 333 611 l 2
 364 611 367 590 367 582 c 0xe8
 367 568 361 549 330 549 c 2
 312 549 l 1
 309 509 300 236 285 108 c 0
 284 96 281 84 280 72 c 1
 291 106 l 1
 350 247 l 1
 485 549 l 1
 482 549 l 2
 471 549 446 551 446 578 c 0
 446 587 449 611 481 611 c 2
 578 611 l 2
 609 611 612 590 612 582 c 0
 612 571 608 549 575 549 c 2
 557 549 l 1
 324 37 l 2
 314 15 306 -8 267 -8 c 0xd8
 261 -8 255 -8 249 -8 c 0
 221 -8 217 7 217 24 c 2
 217 33 l 1
 240 549 l 1xd8
 237 549 l 2
 226 549 201 551 201 578 c 0
EndSplineSet
EndChar

StartChar: W
Encoding: 87 87 135
Width: 525
Flags: HW
TeX: 610 0
ItalicCorrection: 173
HStem: -8 21G<167.5 187.5 330 363.5> 549 62<275.383 339.402 475.511 522 571.259 616.561>
VStem: 148 79<-1.54436 71.2878> 196 145<551.429 608.998> 311 75<112.038 279.981 301.073 363.376> 474 144<550.874 608.566>
DStem2: 357 73 393 35 0.340274 0.940326<0 465.553>
AnchorPoint: "below" 262 0 basechar 0
AnchorPoint: "above" 417 622 basechar 0
LayerCount: 2
Fore
SplineSet
148 17 m 2
 148 27 l 1xec
 212 495 l 2
 215 513 217 532 220 550 c 1
 208 554 196 561 196 578 c 0
 196 586 199 611 231 611 c 2
 306 611 l 2
 331 611 341 597 341 582 c 0xd4
 341 556 322 549 301 549 c 2
 277 549 l 1
 261 396 204 72 204 72 c 1
 223 149 302 334 311 346 c 0
 320 358 332 367 352 367 c 0
 379 367 386 356 386 332 c 0
 386 320 384 306 383 287 c 0
 372 130 364 116 357 73 c 1
 376 135 l 1
 411 239 l 1
 522 549 l 1
 509 549 l 2
 484 549 474 563 474 578 c 0
 474 594 482 611 513 611 c 2
 584 611 l 2
 614 611 618 592 618 582 c 0xcc
 618 552 593 549 583 549 c 2
 579 549 l 1
 573 531 566 513 559 495 c 2
 393 35 l 2
 391 29 383 -8 344 -8 c 0
 316 -8 310 5 310 25 c 0
 310 36 311 48 312 61 c 0
 324 248 332 271 335 294 c 1
 322 242 263 107 227 25 c 0
 214 -3 198 -8 177 -8 c 2
 176 -8 l 2
 159 -8 148 1 148 17 c 2
EndSplineSet
EndChar

StartChar: X
Encoding: 88 88 136
Width: 525
Flags: HW
TeX: 610 0
ItalicCorrection: 173
HStem: 0 62<72.4257 146.116 205 236.544 301.712 347 421 465.367> 549 62<218.686 267.187 340 383.495 414.505 445 519 578.105>
VStem: 71 167<1.88742 59.9617> 217 168<551.103 609.095> 300 167<1.63537 59.7842> 303 72<290.609 326> 413 167<550.731 608.859>
DStem2: 152 92 205 62 0.541891 0.840449<3.50676 213.798 391.687 542.859> 340 549 264 549 0.168009 -0.985786<0 129.016 300.744 481.254>
AnchorPoint: "below" 261 0 basechar 0
AnchorPoint: "above" 417 622 basechar 0
LayerCount: 2
Fore
SplineSet
71 29 m 0
 71 59 97 62 107 62 c 2xe8
 132 62 l 1
 138 72 145 82 152 92 c 2
 298 315 l 2
 302 321 303 326 303 334 c 0xe4
 303 358 287 405 264 549 c 1
 252 549 l 2
 222 549 217 567 217 578 c 0
 217 588 221 611 253 611 c 2
 350 611 l 2
 381 611 385 591 385 582 c 0xd0
 385 571 381 549 348 549 c 2
 340 549 l 1
 363 422 l 1
 445 549 l 1
 423 549 413 564 413 579 c 0
 413 589 417 611 450 611 c 2
 549 611 l 2
 566 611 580 599 580 582 c 0
 580 564 568 553 556 550 c 0
 551 549 546 549 541 549 c 2
 519 549 l 1
 380 337 l 1
 375 326 l 1
 375 314 l 1xc6
 421 62 l 1
 433 62 l 2
 463 62 467 42 467 33 c 0
 467 20 461 0 433 -0 c 2
 335 -0 l 2
 304 0 300 20 300 29 c 0
 300 39 304 62 337 62 c 2
 347 62 l 1
 317 240 l 1
 205 62 l 1
 206 62 l 2
 228 62 238 47 238 32 c 0
 238 23 235 0 202 0 c 2
 102 0 l 2
 85 0 71 12 71 29 c 0
EndSplineSet
EndChar

StartChar: Y
Encoding: 89 89 137
Width: 525
Flags: HW
TeX: 610 0
ItalicCorrection: 173
HStem: 0 62<181.439 242 312 358.126> 549 62<202.686 245 321 366.148 446.531 477 539.406 611.275>
VStem: 201 167<550.905 609.009> 445 168<550.731 609.08>
DStem2: 321 549 245 549 0.136418 -0.990651<0 190.098>
AnchorPoint: "below" 261 0 basechar 0
AnchorPoint: "above" 416 622 basechar 0
LayerCount: 2
Fore
SplineSet
180 29 m 0
 180 45 187 62 217 62 c 2
 242 62 l 1
 287 244 l 1
 245 549 l 1
 236 549 l 2
 204 549 201 569 201 578 c 0
 201 588 205 611 237 611 c 2
 334 611 l 2
 365 611 368 590 368 582 c 0
 368 571 362 549 333 549 c 2
 321 549 l 1
 338 404 l 1
 342 360 l 1
 342 337 l 1
 341 314 l 1
 351 346 394 417 477 549 c 1
 476 549 l 2
 455 549 445 564 445 579 c 0
 445 592 452 611 480 611 c 2
 576 611 l 2
 608 611 613 594 613 582 c 0
 613 569 606 549 579 549 c 2
 566 549 l 2
 556 549 552 548 545 537 c 2
 366 257 l 2
 356 242 356 238 312 62 c 1
 325 62 l 2
 356 62 360 41 360 33 c 0
 360 20 353 0 322 0 c 2
 214 0 l 2
 184 0 180 19 180 29 c 0
EndSplineSet
EndChar

StartChar: Z
Encoding: 90 90 138
Width: 525
Flags: HW
TeX: 610 0
ItalicCorrection: 173
HStem: -0 62<182 394.813> 549 62<294.77 494>
DStem2: 103 61 182 62 0.62528 0.780401<50.1775 625.32>
AnchorPoint: "below" 264 0 basechar 0
AnchorPoint: "above" 419 622 basechar 0
LayerCount: 2
Fore
SplineSet
87 22 m 0
 87 39 96 52 103 61 c 2
 494 549 l 1
 299 549 l 1
 280 459 274 455 249 455 c 2
 247 455 l 2
 223 455 212 465 212 483 c 0
 212 493 215 503 235 582 c 0
 242 611 262 611 273 611 c 2
 560 611 l 2
 584 611 588 598 588 589 c 0
 588 573 580 560 571 548 c 2
 182 62 l 1
 390 62 l 1
 412 157 414 175 445 175 c 2
 447 175 l 2
 476 175 482 158 482 147 c 0
 482 136 476 117 454 30 c 0
 448 4 437 0 415 -0 c 2
 114 -0 l 2
 93 0 87 13 87 22 c 0
EndSplineSet
EndChar

StartChar: bracketleft
Encoding: 91 91 139
Width: 525
Flags: HW
TeX: 694 83
ItalicCorrection: 173
HStem: -83 61<288 433.628> 632 62<452 612.574>
DStem2: 200.746 -83 272.746 -83 0.242599 0.970127<80.3454 754.594>
LayerCount: 2
Fore
SplineSet
209 -55 m 0
 209 -46 212 -38 214 -30 c 2
 386 658 l 2
 392 683 399 694 425 694 c 2
 578 694 l 2
 588 694 614 693 614 665 c 0
 614 634 589 632 577 632 c 2
 452 632 l 1
 288 -22 l 1
 401 -22 l 2
 428 -22 435 -39 435 -51 c 0
 435 -66 428 -83 397 -83 c 2
 245 -83 l 2
 211 -83 209 -61 209 -55 c 0
EndSplineSet
EndChar

StartChar: backslash
Encoding: 92 92 140
Width: 525
Flags: HW
TeX: 694 83
ItalicCorrection: 173
VStem: 256 64<601 692.042> 356 64<-81.096 9.07143>
LayerCount: 2
Fore
SplineSet
256 662 m 0
 256 682 273 694 287 694 c 0
 318 694 319 658 320 650 c 2
 418 -36 l 2
 419 -41 420 -47 420 -52 c 0
 420 -72 403 -83 389 -83 c 0
 358 -83 357 -48 356 -40 c 2
 258 647 l 2
 257 652 256 657 256 662 c 0
EndSplineSet
EndChar

StartChar: bracketright
Encoding: 93 93 141
Width: 525
Flags: HW
TeX: 694 83
ItalicCorrection: 173
HStem: -83 61<64.0977 225> 633 61<242.499 388>
DStem2: 209.746 -83 281.248 -83 0.242599 0.970127<62.8784 737.855>
LayerCount: 2
Fore
SplineSet
63 -54 m 0
 63 -23 88 -22 100 -22 c 2
 225 -22 l 1
 388 633 l 1
 281 633 l 2
 279 633 278 632 276 632 c 0
 249 632 241 649 241 661 c 0
 241 677 249 694 279 694 c 2
 431 694 l 2
 463 694 467 675 467 666 c 0
 467 657 464 649 462 641 c 2
 290 -48 l 2
 283 -80 272 -83 252 -83 c 2
 97 -83 l 2
 67 -83 63 -63 63 -54 c 0
EndSplineSet
EndChar

StartChar: asciicircum
Encoding: 94 94 142
Width: 525
Flags: HW
TeX: 610 0
ItalicCorrection: 173
VStem: 216 322<452 478>
LayerCount: 2
Fore
SplineSet
216 462 m 0
 216 480 231 488 240 492 c 0
 384 564 386 565 396 565 c 0
 408 565 417 558 516 492 c 0
 526 486 538 478 538 462 c 0
 538 447 520 422 501 422 c 2
 500 422 l 2
 488 422 494 420 391 495 c 1
 379 488 366 481 266 428 c 0
 262 426 255 422 248 422 c 0
 222 422 216 452 216 462 c 0
EndSplineSet
EndChar

StartChar: underscore
Encoding: 95 95 143
Width: 525
Flags: HW
TeX: 0 95
ItalicCorrection: 173
HStem: -95 70<75.7859 417.131>
LayerCount: 2
Fore
SplineSet
73 -60 m 0
 73 -51 77 -25 117 -25 c 2
 377 -25 l 2
 387 -25 420 -26 420 -60 c 0
 420 -69 415 -95 378 -95 c 2
 115 -95 l 2
 79 -95 73 -70 73 -60 c 0
EndSplineSet
EndChar

StartChar: quoteleft
Encoding: 8216 8216 144
Width: 525
Flags: HW
TeX: 610 0
ItalicCorrection: 173
HStem: 347 123<355 407.698>
VStem: 287 141<368.046 460.824>
LayerCount: 2
Fore
SplineSet
287 430 m 0
 287 488 326 601 444 671 c 0
 449 674 458 680 467 680 c 0
 483 680 498 664 498 648 c 0
 498 629 479 621 470 615 c 0
 418 583 373 531 355 470 c 1
 361 471 368 472 373 472 c 0
 410 472 428 445 428 418 c 0
 428 384 401 347 356 347 c 0
 315 347 287 379 287 430 c 0
EndSplineSet
EndChar

StartChar: a
Encoding: 97 97 145
Width: 525
Flags: HW
TeX: 430 0
ItalicCorrection: 173
HStem: -5 62<210.449 293.844 419.512 459.506> 374 62<287.988 371.406>
VStem: 125 70<69.5925 247.39> 388 31<84 285> 482 71<78.4102 170.181>
AnchorPoint: "ogonek" 439 0 basechar 0
AnchorPoint: "affricate-below" 469 -222 basechar 0
AnchorPoint: "affricate-above" 678 611 basechar 0
AnchorPoint: "below" 230 0 basechar 0
AnchorPoint: "above" 339 436 basechar 0
LayerCount: 2
Fore
SplineSet
125 148 m 0
 125 287 230 436 339 436 c 0
 390 436 417 402 423 396 c 1
 431 414 445 421 458 421 c 0
 475 421 492 408 492 388 c 0
 492 381 490 374 489 370 c 2
 425 114 l 2
 423 106 419 95 419 84 c 0
 419 60 435 57 439 57 c 0
 461 57 476 121 482 143 c 0
 485 153 490 172 516 172 c 2
 520 172 l 2
 550 172 553 151 553 143 c 0
 553 139 530 -5 438 -5 c 0
 397 -5 369 19 357 47 c 1
 337 28 294 -5 243 -5 c 0
 172 -5 125 59 125 148 c 0
195 145 m 0
 195 111 204 57 245 57 c 0
 307 57 388 177 388 285 c 0
 388 341 367 374 336 374 c 0
 273 374 195 250 195 145 c 0
EndSplineSet
EndChar

StartChar: b
Encoding: 98 98 146
Width: 525
Flags: HW
TeX: 610 0
ItalicCorrection: 173
HStem: -5 61<225.924 325.565> 374 62<303.785 404.745> 549 62<130.712 225>
VStem: 129 175<550.347 608.812> 135 69<79.1404 248.365> 426 70<180.309 353.381>
DStem2: 86.4614 -5 158.972 -5 0.242599 0.970127<434.031 571.06>
AnchorPoint: "affricate-below" 469 -222 basechar 0
AnchorPoint: "affricate-above" 678 611 basechar 0
AnchorPoint: "below" 261 0 basechar 0
AnchorPoint: "above" 414 611 basechar 0
LayerCount: 2
Fore
SplineSet
129 578 m 0
 129 588 133 611 166 611 c 2
 268 611 l 2
 294 611 304 599 304 582 c 0xf4
 304 577 303 572 301 566 c 2
 260 399 l 1
 284 415 319 436 363 436 c 0
 442 436 496 368 496 276 c 0
 496 137 383 -5 267 -5 c 0
 188 -5 135 63 135 154 c 0
 135 188 142 215 148 240 c 2
 225 549 l 1
 163 549 l 2
 132 549 129 569 129 578 c 0
204 152 m 0
 204 95 230 56 269 56 c 0
 336 56 426 163 426 280 c 0
 426 333 403 374 361 374 c 0xec
 291 374 204 261 204 152 c 0
EndSplineSet
EndChar

StartChar: c
Encoding: 99 99 147
Width: 525
Flags: HW
TeX: 430 0
ItalicCorrection: 173
HStem: -5 61<238.969 437.384> 374 62<319.691 433.81>
VStem: 136 70<90.8295 250.014> 435 76<320.518 369.532>
AnchorPoint: "affricate-below" 469 -222 basechar 0
AnchorPoint: "affricate-above" 678 611 basechar 0
AnchorPoint: "below" 306 0 basechar 0
AnchorPoint: "above" 391 436 basechar 0
LayerCount: 2
Fore
SplineSet
136 163 m 0
 136 299 260 436 391 436 c 0
 459 436 511 399 511 342 c 0
 511 296 480 281 460 281 c 0
 438 281 419 298 419 320 c 0
 419 331 424 345 435 357 c 1
 435 358 l 1
 428 364 417 374 390 374 c 0
 303 374 206 268 206 162 c 0
 206 123 221 56 305 56 c 0
 464 56 462 109 491 109 c 0
 510 109 527 88 528 73 c 0
 528 59 520 52 512 45 c 0
 453 -4 369 -5 305 -5 c 0
 170 -5 136 97 136 163 c 0
EndSplineSet
EndChar

StartChar: d
Encoding: 100 100 148
Width: 525
Flags: HW
TeX: 610 0
ItalicCorrection: 173
HStem: -5 62<210.449 293.374 419.5 460.102> 374 62<288.154 371.68> 549 62<377.528 461>
VStem: 125 70<69.5925 247.39> 388 31<84 285> 492 61<101.233 170.266>
DStem2: 322.722 -5 394.71 -5 0.242599 0.970127<413.348 570.996>
AnchorPoint: "affricate-below" 469 -222 basechar 0
AnchorPoint: "affricate-above" 678 611 basechar 0
AnchorPoint: "below" 299 0 basechar 0
AnchorPoint: "above" 390 611 basechar 0
LayerCount: 2
Fore
SplineSet
125 148 m 0
 125 287 231 436 339 436 c 0
 372 436 401 422 423 396 c 1
 461 549 l 1
 412 549 l 2
 380 549 376 568 376 578 c 0
 376 589 380 611 414 611 c 2
 505 611 l 2
 532 611 540 599 540 583 c 0
 540 577 539 571 537 564 c 2
 423 108 l 2
 421 100 419 92 419 84 c 0
 419 65 429 57 438 57 c 0
 470 57 477 146 492 162 c 0
 498 168 505 172 517 172 c 0
 547 172 553 154 553 143 c 0
 553 140 531 -5 438 -5 c 0
 397 -5 369 19 357 47 c 1
 325 19 289 -5 243 -5 c 0
 172 -5 125 59 125 148 c 0
195 145 m 0
 195 111 204 57 245 57 c 0
 304 57 388 172 388 285 c 0
 388 341 367 374 336 374 c 0
 273 374 195 250 195 145 c 0
EndSplineSet
EndChar

StartChar: e
Encoding: 101 101 149
Width: 525
Flags: HW
TeX: 430 0
ItalicCorrection: 173
HStem: -5 61<240.121 436.93> 189 61<227 398.402> 374 62<319.686 437.67>
VStem: 137 70<90.8811 187.035> 445 70<286.587 365.37>
AnchorPoint: "ogonek" 306 0 basechar 0
AnchorPoint: "affricate-below" 469 -222 basechar 0
AnchorPoint: "affricate-above" 678 611 basechar 0
AnchorPoint: "below" 306 0 basechar 0
AnchorPoint: "above" 391 436 basechar 0
LayerCount: 2
Fore
SplineSet
137 165 m 0
 137 309 266 436 391 436 c 0
 460 436 515 394 515 332 c 0
 515 295 497 262 473 241 c 0
 416 191 319 189 233 189 c 2
 209 189 l 1
 208 188 207 173 207 163 c 0
 207 120 226 56 301 56 c 2
 303 56 l 2
 468 56 458 109 493 109 c 0
 509 109 528 89 528 73 c 0
 528 47 476 18 435 7 c 0
 393 -4 353 -5 305 -5 c 0
 170 -5 137 98 137 165 c 0
227 250 m 1
 309 250 445 251 445 331 c 0
 445 357 422 374 389 374 c 0
 326 374 258 319 227 250 c 1
EndSplineSet
EndChar

StartChar: f
Encoding: 102 102 150
Width: 525
Flags: HW
TeX: 610 222
ItalicCorrection: 173
HStem: -227 61<130.531 188.685> 369 61<209.56 306 388 504.047> 555 61<411.915 484.273>
VStem: 45 91<-161.582 -109.373> 480 90<497.463 550.625>
AnchorPoint: "affricate-below" 469 -222 basechar 0
AnchorPoint: "affricate-above" 678 611 basechar 0
AnchorPoint: "above" 426 611 basechar 0
AnchorPoint: "below" 190 -222 basechar 0
LayerCount: 2
Fore
SplineSet
45 -155 m 0
 45 -116 74 -100 95 -100 c 0
 115 -100 136 -115 136 -140 c 0
 136 -149 134 -153 130 -162 c 1
 140 -164 148 -166 154 -166 c 0
 164 -166 170 -162 178 -156 c 0
 225 -116 236 -34 306 369 c 1
 241 369 l 1
 217 370 208 384 208 398 c 0
 208 406 211 430 243 430 c 2
 317 430 l 1
 335 543 343 616 454 616 c 0
 506 616 570 601 570 543 c 0
 570 513 551 489 521 489 c 0
 496 489 480 505 480 528 c 0
 480 535 482 543 485 551 c 1
 475 553 464 555 453 555 c 0
 404 555 405 525 388 430 c 1
 471 430 l 2
 496 430 506 417 506 402 c 0
 506 393 502 369 469 369 c 2
 377 369 l 1
 307 -55 288 -123 256 -167 c 0
 217 -220 180 -227 154 -227 c 0
 112 -227 45 -213 45 -155 c 0
EndSplineSet
EndChar

StartChar: g
Encoding: 103 103 151
Width: 525
Flags: HW
TeX: 430 222
ItalicCorrection: 173
HStem: -228 62<156.704 285.38> 0 62<226.825 327.93> 374 62<304.494 405.853>
VStem: 67 90<-165.339 -119.913> 136 70<83.7206 252.306> 427 104<225 399>
AnchorPoint: "affricate-below" 469 -222 basechar 0
AnchorPoint: "affricate-above" 678 611 basechar 0
AnchorPoint: "below" 209 -222 basechar 0
AnchorPoint: "above" 370 436 basechar 0
LayerCount: 2
Fore
SplineSet
67 -164 m 0
 67 -137 86 -111 116 -111 c 0
 139 -111 157 -126 157 -152 c 0xf4
 157 -156 157 -160 156 -164 c 1
 171 -165 187 -166 202 -166 c 0
 283 -166 321 -121 337 -92 c 0
 342 -84 347 -73 372 36 c 1
 348 20 313 0 269 0 c 0
 189 0 136 68 136 159 c 0
 136 294 246 436 363 436 c 0
 422 436 451 401 461 390 c 1
 465 406 478 421 498 421 c 0
 515 421 531 409 531 389 c 0
 531 383 529 377 528 371 c 2
 422 -55 l 2
 417 -74 413 -92 405 -110 c 0
 377 -170 304 -228 207 -228 c 0
 205 -228 204 -227 202 -227 c 0
 150 -227 67 -225 67 -164 c 0
206 157 m 0
 206 100 231 62 270 62 c 0
 341 62 427 171 427 279 c 0
 427 338 401 374 362 374 c 0xec
 293 374 206 267 206 157 c 0
EndSplineSet
EndChar

StartChar: h
Encoding: 104 104 152
Width: 525
Flags: HW
TeX: 610 0
ItalicCorrection: 173
HStem: -5 62<404.515 450.664> 375 61<299.653 397.707> 549 62<132.935 216>
VStem: 88 66<-2.97528 95.26> 334 70<57.1039 147.507> 402 70<231.478 370.369>
AnchorPoint: "affricate-below" 469 -222 basechar 0
AnchorPoint: "affricate-above" 678 611 basechar 0
AnchorPoint: "below" 236 0 basechar 0
AnchorPoint: "above" 389 611 basechar 0
LayerCount: 2
Fore
SplineSet
88 28 m 0
 88 38 91 48 93 57 c 2
 203 494 l 2
 208 512 212 531 216 549 c 1
 173 549 l 2
 163 549 153 548 144 554 c 0
 137 559 131 567 131 578 c 0
 131 587 135 611 168 611 c 2
 255 611 l 1
 255 611 295 612 295 582 c 0
 295 574 296 580 250 396 c 1
 281 421 318 436 363 436 c 0
 429 436 472 397 472 329 c 0xf4
 472 250 404 105 404 77 c 0
 404 63 409 57 417 57 c 0
 427 57 440 65 449 75 c 0
 490 122 472 172 515 172 c 2xf8
 519 172 l 2
 549 172 553 152 553 143 c 0
 553 117 507 -5 414 -5 c 0
 365 -5 334 32 334 78 c 0xf8
 334 124 402 260 402 329 c 0
 402 364 383 375 361 375 c 0
 215 375 172 54 154 17 c 0
 151 11 141 -5 121 -5 c 0
 103 -5 88 9 88 28 c 0
EndSplineSet
EndChar

StartChar: i
Encoding: 105 105 153
Width: 525
Flags: HW
TeX: 610 0
ItalicCorrection: 173
HStem: -5 62<303.488 379.203> 374 62<252.097 327.607> 522 89<368.058 439.281>
VStem: 142 72<261.322 333.415> 233 70<57.8255 142.574> 328 71<287.278 373.287> 359 89<530.326 602.078> 418 72<99.6441 169.705>
AnchorPoint: "above" 410 591 basechar 0
AnchorPoint: "ogonek" 332 0 basechar 0
AnchorPoint: "affricate-below" 469 -222 basechar 0
AnchorPoint: "affricate-above" 678 611 basechar 0
AnchorPoint: "below" 262 0 basechar 0
LayerCount: 2
Fore
SplineSet
359 563 m 0
 359 587 381 611 408 611 c 0
 432 611 448 590 448 570 c 0
 448 546 427 522 400 522 c 0xfa
 379 522 359 539 359 563 c 0
EndSplineSet
Refer: 73 305 S 1 0 0 1 0 0 3
EndChar

StartChar: j
Encoding: 106 106 154
Width: 525
Flags: HW
TeX: 610 222
ItalicCorrection: 173
HStem: -227 61<179.383 248.71> 374 62<320.822 410.81> 522 89<460.48 532.561>
VStem: 90 91<-164.766 -120.164> 196 72<261.199 320.423> 413 70<249.688 371.567> 452 90<531.561 602.482>
DStem2: 272.236 -227 344.236 -227 0.242599 0.970127<107.182 585.878>
AnchorPoint: "affricate-below" 469 -222 basechar 0
AnchorPoint: "affricate-above" 678 611 basechar 0
AnchorPoint: "below" 239 -222 basechar 0
LayerCount: 2
Fore
SplineSet
90 -164 m 0
 90 -132 115 -111 139 -111 c 0
 164 -111 181 -129 181 -151 c 0
 181 -156 180 -160 179 -165 c 1
 181 -165 184 -166 188 -166 c 0
 215 -166 291 -151 324 -20 c 2
 410 324 l 2
 411 330 413 336 413 342 c 0
 413 363 398 374 378 374 c 0
 345 374 295 345 268 286 c 0
 265 279 260 259 233 259 c 2
 232 259 l 2
 203 259 196 275 196 286 c 0
 196 316 268 436 379 436 c 0
 437 436 483 398 483 341 c 0xfc
 483 322 477 303 474 291 c 2
 393 -32 l 2
 389 -49 385 -65 379 -81 c 0
 353 -148 281 -227 186 -227 c 0
 139 -227 90 -212 90 -164 c 0
452 563 m 0
 452 591 477 611 501 611 c 0
 521 611 542 595 542 571 c 0
 542 543 516 522 493 522 c 0xfa
 469 522 452 543 452 563 c 0
EndSplineSet
EndChar

StartChar: k
Encoding: 107 107 155
Width: 525
Flags: HW
TeX: 610 0
ItalicCorrection: 173
HStem: -5 62<393.415 454.031> 416 20G<420 495> 549 62<130.263 225>
VStem: 96 66<-2.80352 93.5248> 321 70<59.1589 166.366> 471 68<333.359 373.027>
DStem2: 86.4965 -5 158.737 -5 0.242599 0.970127<38.0732 219.344 294.807 571.051>
AnchorPoint: "affricate-below" 469 -222 basechar 0
AnchorPoint: "affricate-above" 678 611 basechar 0
AnchorPoint: "below" 251 0 basechar 0
AnchorPoint: "above" 403 611 basechar 0
LayerCount: 2
Fore
SplineSet
96 28 m 0
 96 34 98 39 99 45 c 2
 213 500 l 1
 225 549 l 1
 162 549 l 2
 139 549 129 564 129 579 c 0
 129 610 155 611 169 611 c 2
 268 611 l 2
 299 611 304 592 304 582 c 0
 304 572 300 563 298 554 c 2
 226 264 l 1
 305 312 368 436 472 436 c 0
 518 436 539 401 539 357 c 0
 539 324 531 272 486 272 c 0
 465 272 445 286 445 312 c 0
 445 350 472 341 471 374 c 1
 411 369 381 322 293 238 c 1
 342 226 396 195 396 132 c 0
 396 113 391 103 391 90 c 0
 391 71 404 57 421 57 c 0
 431 57 442 62 452 75 c 0
 492 127 468 172 519 172 c 2
 520 172 l 2
 547 172 553 154 553 143 c 0
 553 126 517 -5 421 -5 c 0
 367 -5 321 32 321 89 c 0
 321 107 325 118 325 131 c 0
 325 165 280 182 207 188 c 1
 164 15 166 22 162 15 c 0
 156 4 143 -5 130 -5 c 0
 110 -5 96 11 96 28 c 0
EndSplineSet
EndChar

StartChar: l
Encoding: 108 108 156
Width: 525
Flags: HW
TeX: 610 0
ItalicCorrection: 173
HStem: -5 61<292.251 377.427> 549 62<196.694 327>
VStem: 215 71<68.5356 184.141> 412 67<97.5077 170.951>
DStem2: 188.49 -5 260.242 -5 0.242599 0.970127<116.971 571.053>
AnchorPoint: "affricate-below" 469 -222 basechar 0
AnchorPoint: "affricate-above" 678 611 basechar 0
AnchorPoint: "below" 225 0 basechar 0
AnchorPoint: "above" 378 611 basechar 0
LayerCount: 2
Fore
SplineSet
195 578 m 0
 195 594 203 611 233 611 c 2
 370 611 l 2
 394 611 405 600 405 582 c 0
 405 578 404 573 403 568 c 2
 288 106 l 2
 287 100 286 95 286 91 c 0
 286 83 289 79 293 72 c 1
 305 64 320 56 339 56 c 0
 389 56 409 146 412 153 c 0
 420 171 433 172 445 172 c 2
 448 172 l 2
 473 172 479 153 479 143 c 0
 479 122 438 -5 339 -5 c 0
 271 -5 215 33 215 90 c 0
 215 109 222 128 226 145 c 2
 327 549 l 1
 231 549 l 2
 212 549 195 556 195 578 c 0
EndSplineSet
EndChar

StartChar: m
Encoding: 109 109 157
Width: 525
Flags: HW
TeX: 430 0
ItalicCorrection: 173
HStem: -5 21G<73.5 90.5 262 282 497.5 520> 374 62<251.364 318.393 442.973 510.605>
VStem: 50 67<-3.4837 90.0031> 242 67<-3.83984 91.8175> 448 57<57.8341 163.969> 513 57<239.366 372.266>
AnchorPoint: "affricate-below" 469 -222 basechar 0
AnchorPoint: "affricate-above" 678 611 basechar 0
AnchorPoint: "below" 269 0 basechar 0
AnchorPoint: "above" 378 436 basechar 0
LayerCount: 2
Fore
SplineSet
50 22 m 1
 50 51 110 240 111 243 c 0
 154 416 150 430 180 430 c 0
 205 430 208 404 208 402 c 1
 232 422 260 436 295 436 c 0
 349 436 365 399 374 375 c 1
 418 430 467 436 486 436 c 0
 521 436 570 416 570 339 c 0
 570 256 505 130 505 81 c 0
 505 49 542 70 542 33 c 0
 542 18 530 0 510 0 c 0
 485 0 448 17 448 76 c 0
 448 146 513 264 513 335 c 0
 513 363 501 374 486 374 c 0
 382 374 321 36 309 12 c 0
 301 -4 288 -5 276 -5 c 2
 274 -5 l 2
 250 -5 242 11 242 23 c 0
 243 64 321 281 321 335 c 0
 321 365 309 374 294 374 c 0
 190 374 128 34 117 12 c 0
 109 -4 97 -5 84 -5 c 2
 83 -5 l 2
 64 -5 51 6 50 22 c 1
EndSplineSet
EndChar

StartChar: n
Encoding: 110 110 158
Width: 525
Flags: HW
TeX: 430 0
ItalicCorrection: 173
HStem: -5 62<417.826 454.043> 374 62<170.953 200.35 330.832 411.8>
VStem: 79 73<261.327 358.395> 124 64<-2.57192 77.2253> 347 70<57.1179 146.43> 415 70<233.572 371.86> 488 65<100.255 170.266>
AnchorPoint: "affricate-below" 469 -222 basechar 0
AnchorPoint: "affricate-above" 678 611 basechar 0
AnchorPoint: "below" 261 0 basechar 0
AnchorPoint: "above" 370 436 basechar 0
LayerCount: 2
Fore
SplineSet
79 287 m 0xe2
 79 288 97 436 188 436 c 0
 225 436 253 413 265 381 c 1
 293 409 331 436 385 436 c 0
 444 436 485 399 485 331 c 0xd6
 485 257 417 100 417 73 c 0
 417 67 418 62 420 57 c 1
 467 58 479 143 488 158 c 0
 496 170 508 172 515 172 c 2
 517 172 l 2
 547 172 553 154 553 143 c 0
 553 124 514 -5 422 -5 c 0
 377 -5 347 29 347 76 c 0xca
 347 121 415 264 415 333 c 0
 415 354 408 374 383 374 c 0
 253 374 207 38 188 11 c 0
 181 1 170 -5 158 -5 c 0
 142 -5 124 8 124 28 c 0
 124 36 127 44 129 51 c 2
 195 317 l 2
 198 327 201 338 201 349 c 0
 201 364 195 372 188 372 c 0xd6
 174 372 160 330 152 300 c 0
 147 283 147 259 116 259 c 2
 114 259 l 2
 84 259 79 276 79 287 c 0xe2
EndSplineSet
EndChar

StartChar: o
Encoding: 111 111 159
Width: 525
Flags: HW
TeX: 430 0
ItalicCorrection: 173
HStem: -5 61<220.146 329.266> 374 62<301.997 409.184>
VStem: 126 70<81.4807 249.975> 435 70<180.505 349.071>
AnchorPoint: "ogonek" 270 0 basechar 0
AnchorPoint: "affricate-below" 469 -222 basechar 0
AnchorPoint: "affricate-above" 678 611 basechar 0
AnchorPoint: "below" 270 0 basechar 0
AnchorPoint: "above" 363 436 basechar 0
LayerCount: 2
Fore
SplineSet
126 158 m 0
 126 299 245 436 363 436 c 0
 448 436 505 367 505 273 c 0
 505 133 387 -5 269 -5 c 0
 183 -5 126 64 126 158 c 0
196 153 m 0
 196 108 216 56 269 56 c 0
 342 56 435 159 435 277 c 0
 435 336 405 374 361 374 c 0
 289 374 196 270 196 153 c 0
EndSplineSet
EndChar

StartChar: p
Encoding: 112 112 160
Width: 525
Flags: HW
TeX: 430 222
ItalicCorrection: 173
HStem: -222 62<11.4285 88 159 242.288> -5 62<258.175 342.38> 373 63<169.371 211.257 335.875 420.359>
VStem: 79 73<262.131 357.316> 436 70<185.17 360.881>
DStem2: 72.4957 -222 143.496 -222 0.242599 0.970127<81.1337 282.196>
AnchorPoint: "affricate-below" 469 -222 basechar 0
AnchorPoint: "affricate-above" 678 611 basechar 0
AnchorPoint: "below" 229 -222 basechar 0
AnchorPoint: "above" 394 436 basechar 0
LayerCount: 2
Fore
SplineSet
10 -193 m 0
 10 -163 36 -160 47 -160 c 2
 88 -160 l 1
 100 -110 l 1
 209 327 l 2
 211 333 212 340 212 346 c 0
 212 368 199 373 192 373 c 0
 170 373 157 321 152 301 c 0
 147 283 146 259 113 259 c 0
 87 259 79 271 79 288 c 0
 79 302 105 436 193 436 c 0
 216 436 251 428 274 383 c 1
 306 412 344 436 388 436 c 0
 459 436 506 372 506 283 c 0
 506 145 401 -5 292 -5 c 0
 251 -5 228 14 208 35 c 1
 159 -160 l 1
 203 -160 l 2
 212 -160 221 -160 229 -164 c 0
 237 -169 244 -177 244 -189 c 0
 244 -199 240 -222 207 -222 c 2
 47 -222 l 2
 16 -222 10 -205 10 -193 c 0
243 145 m 0
 243 111 253 57 294 57 c 0
 356 57 436 177 436 285 c 0
 436 341 416 374 385 374 c 0
 322 374 243 250 243 145 c 0
EndSplineSet
EndChar

StartChar: q
Encoding: 113 113 161
Width: 525
Flags: HW
TeX: 430 222
ItalicCorrection: 173
HStem: -222 62<213.672 324 395 490.096> -5 61<226.396 325.584> 374 62<304.967 405.735>
VStem: 135 70<78.2038 248.994> 427 109<221.5 414> 466 70<383.375 425.485>
DStem2: 308.496 -222 379.496 -222 0.242599 0.970127<81.1337 261.818>
AnchorPoint: "affricate-below" 469 -222 basechar 0
AnchorPoint: "affricate-above" 678 611 basechar 0
AnchorPoint: "below" 205 -222 basechar 0
AnchorPoint: "above" 370 436 basechar 0
LayerCount: 2
Fore
SplineSet
135 154 m 0
 135 294 249 436 364 436 c 0
 402 436 438 420 466 383 c 1xf4
 478 412 486 435 508 435 c 0
 524 435 536 421 536 407 c 0
 536 402 534 397 533 392 c 2
 395 -160 l 1
 448 -160 l 2
 458 -160 468 -159 477 -164 c 0
 485 -169 492 -177 492 -189 c 0
 492 -198 488 -222 456 -222 c 2
 247 -222 l 2
 216 -222 212 -203 212 -193 c 0
 212 -184 215 -160 247 -160 c 2
 324 -160 l 1
 372 32 l 1
 348 16 312 -5 268 -5 c 0
 188 -5 135 62 135 154 c 0
205 152 m 0
 205 95 230 56 269 56 c 0
 336 56 427 163 427 280 c 0
 427 332 404 374 362 374 c 0xf8
 292 374 205 261 205 152 c 0
EndSplineSet
EndChar

StartChar: r
Encoding: 114 114 162
Width: 525
Flags: HW
TeX: 430 0
ItalicCorrection: 173
HStem: -5 21G<190.5 206> 373 63<190.918 239.292 374.491 502.426>
VStem: 487 91<282.122 349.436>
AnchorPoint: "affricate-below" 469 -222 basechar 0
AnchorPoint: "affricate-above" 678 611 basechar 0
AnchorPoint: "below" 200 0 basechar 0
AnchorPoint: "above" 331 436 basechar 0
LayerCount: 2
Fore
SplineSet
93 287 m 0
 93 294 120 436 214 436 c 0
 256 436 291 412 304 378 c 1
 337 411 376 436 435 436 c 0
 519 436 578 395 578 334 c 0
 578 287 548 272 528 272 c 0
 503 272 487 291 487 312 c 0
 487 324 492 338 504 350 c 1
 494 359 476 374 434 374 c 0
 293 374 250 51 231 15 c 0
 225 4 213 -5 199 -5 c 0
 182 -5 171 5 167 19 c 0
 164 28 167 38 169 47 c 2
 238 323 l 2
 240 331 241 337 241 343 c 0
 241 360 229 373 214 373 c 0
 209 373 203 372 196 368 c 1
 151 305 179 259 126 259 c 0
 118 259 93 260 93 287 c 0
EndSplineSet
EndChar

StartChar: s
Encoding: 115 115 163
Width: 525
Flags: HW
TeX: 430 0
ItalicCorrection: 173
HStem: -5 61<175.293 372.848> 374 62<274.185 427.505>
VStem: 97 92<77.5603 141.647> 182 62<276.914 346.166> 418 87<302.438 359.533> 422 62<98.899 175.263>
AnchorPoint: "affricate-below" 469 -222 basechar 0
AnchorPoint: "affricate-above" 678 611 basechar 0
AnchorPoint: "below" 271 0 basechar 0
AnchorPoint: "above" 364 436 basechar 0
LayerCount: 2
Fore
SplineSet
97 91 m 0
 97 137 128 152 148 152 c 0
 169 152 189 136 189 112 c 0
 189 98 183 89 174 77 c 1
 190 67 212 56 269 56 c 0
 393 56 422 116 422 144 c 0xe4
 422 194 312 197 266 210 c 0
 229 220 182 248 182 303 c 0
 182 356 228 436 364 436 c 0
 427 436 505 418 505 349 c 0
 505 315 483 294 457 294 c 0
 436 294 418 309 418 332 c 0
 418 343 422 350 428 360 c 1
 416 366 401 374 361 374 c 0xd8
 272 374 244 330 244 305 c 0xd8
 244 272 297 266 353 256 c 0
 467 237 484 178 484 145 c 0
 484 85 430 -5 270 -5 c 0
 121 -5 97 52 97 91 c 0
EndSplineSet
EndChar

StartChar: t
Encoding: 116 116 164
Width: 525
Flags: HW
TeX: 610 0
ItalicCorrection: 173
HStem: -5 61<280.22 369.919> 369 61<157.5 274 362 478.324> 596 20G<346 373>
VStem: 208 70<58.8608 181.004> 423 71<111.33 170.172>
AnchorPoint: "affricate-below" 469 -222 basechar 0
AnchorPoint: "affricate-above" 678 611 basechar 0
AnchorPoint: "below" 278 0 basechar 0
AnchorPoint: "above" 372 616 basechar 0
LayerCount: 2
Fore
SplineSet
156 397 m 0
 156 407 159 430 192 430 c 2
 290 430 l 1
 329 587 327 616 365 616 c 0
 381 616 398 603 398 583 c 0
 398 568 376 492 362 430 c 1
 445 430 l 2
 476 430 480 411 480 402 c 0
 480 391 475 369 443 369 c 2
 346 369 l 1
 335 318 278 105 278 89 c 0
 278 70 292 56 314 56 c 0
 358 56 402 99 423 145 c 0
 431 162 437 172 457 172 c 2
 458 172 l 2
 488 172 494 155 494 144 c 0
 494 115 423 -5 312 -5 c 0
 253 -5 208 33 208 89 c 0
 208 109 205 93 274 369 c 1
 190 369 l 2
 159 369 156 390 156 397 c 0
EndSplineSet
EndChar

StartChar: u
Encoding: 117 117 165
Width: 525
Flags: HW
TeX: 430 0
ItalicCorrection: 173
HStem: -5 61<234.475 316.77 425.823 458.828> 373 63<179.124 220.246>
VStem: 79 95<298.245 349.815> 158 70<60.9113 215.3> 221 69<284.167 372.869> 479 74<71.3086 169.182>
AnchorPoint: "ogonek" 442 0 basechar 0
AnchorPoint: "affricate-below" 469 -222 basechar 0
AnchorPoint: "affricate-above" 678 611 basechar 0
AnchorPoint: "below" 262 0 basechar 0
AnchorPoint: "above" 371 436 basechar 0
LayerCount: 2
Fore
SplineSet
79 287 m 0
 79 308 120 436 213 436 c 0
 260 436 290 400 290 354 c 0xec
 290 303 228 191 228 113 c 0
 228 72 244 56 269 56 c 0
 346 56 380 197 398 271 c 0
 429 395 429 430 467 430 c 0
 483 430 499 417 500 398 c 0
 500 390 498 382 496 374 c 2
 430 111 l 2
 428 104 425 92 425 82 c 0
 425 65 435 57 441 57 c 0
 456 57 470 96 479 130 c 0
 484 147 485 172 516 172 c 2xd4
 520 172 l 2
 550 172 553 151 553 143 c 0
 553 140 532 -5 441 -5 c 0
 409 -5 382 11 367 38 c 1
 343 15 312 -5 268 -5 c 0
 224 -5 158 19 158 114 c 0xd4
 158 202 221 324 221 356 c 0
 221 368 216 373 209 373 c 0
 199 373 185 362 174 346 c 0
 141 296 157 259 113 259 c 0
 82 259 79 280 79 287 c 0
EndSplineSet
EndChar

StartChar: v
Encoding: 118 118 166
Width: 525
Flags: HW
TeX: 430 0
ItalicCorrection: 173
HStem: -5 61<266.366 370.433> 374 62<184.585 243.913>
VStem: 182 70<70.7874 220.374> 244 70<284.985 373.195> 465 71<241.541 413.486>
AnchorPoint: "affricate-below" 469 -222 basechar 0
AnchorPoint: "affricate-above" 678 611 basechar 0
AnchorPoint: "below" 321 0 basechar 0
AnchorPoint: "above" 354 436 basechar 0
LayerCount: 2
Fore
SplineSet
79 287 m 0
 79 316 130 436 226 436 c 0
 275 436 314 402 314 349 c 0xd8
 314 304 252 197 252 124 c 0
 252 70 288 56 322 56 c 0
 343 56 354 64 371 78 c 1
 396 108 419 138 450 265 c 0
 463 317 465 336 465 354 c 0
 465 381 458 386 458 399 c 0
 458 417 475 435 495 435 c 0
 531 435 536 385 536 357 c 0xe8
 536 301 484 -5 320 -5 c 0
 265 -5 182 21 182 125 c 0xe8
 182 208 244 323 244 351 c 0
 244 366 236 374 224 374 c 0
 216 374 206 371 197 364 c 0
 139 323 164 259 116 259 c 2
 114 259 l 2
 84 259 79 276 79 287 c 0
EndSplineSet
EndChar

StartChar: w
Encoding: 119 119 167
Width: 525
Flags: HW
TeX: 430 0
ItalicCorrection: 173
HStem: -5 61<165.856 255.013 360.772 445.73> 370 60<108.353 151.906>
VStem: 96 57<69.3058 214.332> 153 58<261.021 369.17> 356 58<318.609 428.875> 526 63<239.938 414.713>
AnchorPoint: "affricate-below" 469 -222 basechar 0
AnchorPoint: "affricate-above" 678 611 basechar 0
AnchorPoint: "below" 312 0 basechar 0
AnchorPoint: "above" 393 436 basechar 0
LayerCount: 2
Fore
SplineSet
96 118 m 0
 96 210 153 286 153 338 c 0
 153 367 140 367 129 370 c 0
 114 373 107 386 107 399 c 0
 107 415 118 430 139 430 c 0
 168 430 211 409 211 344 c 0
 211 270 153 201 153 122 c 0
 153 77 177 57 216 56 c 1
 276 56 298 168 356 400 c 0
 357 404 362 430 386 430 c 0
 403 430 414 414 414 403 c 0
 414 373 350 172 350 119 c 0
 350 69 379 56 407 56 c 0
 456 56 484 142 507 234 c 0
 513 257 526 299 526 339 c 0
 526 375 513 382 513 400 c 0
 513 421 533 435 550 435 c 0
 582 435 589 399 589 368 c 0
 589 317 549 146 515 78 c 0
 498 44 466 -5 406 -5 c 0
 386 -5 334 0 307 50 c 1
 281 12 252 -5 215 -5 c 0
 168 -5 96 19 96 118 c 0
EndSplineSet
EndChar

StartChar: x
Encoding: 120 120 168
Width: 525
Flags: HW
TeX: 430 0
ItalicCorrection: 173
HStem: -5 62<153.802 231.13 337.398 435.396> 374 62<196.758 292.094 400.444 478.399>
VStem: 81 92<79.5178 147.951> 459 92<282.353 351.528>
AnchorPoint: "affricate-below" 469 -222 basechar 0
AnchorPoint: "affricate-above" 678 611 basechar 0
AnchorPoint: "below" 262 0 basechar 0
AnchorPoint: "above" 371 436 basechar 0
LayerCount: 2
Fore
SplineSet
79 287 m 0
 79 327 146 436 253 436 c 0
 309 436 337 405 346 394 c 1
 347 394 l 1
 375 420 411 436 449 436 c 0
 509 436 551 393 551 338 c 0
 551 286 520 272 500 272 c 0
 478 272 459 288 459 312 c 0
 459 328 466 342 479 352 c 1
 470 370 460 374 448 374 c 0
 419 374 390 349 379 321 c 0
 377 317 329 134 329 112 c 0
 329 78 349 56 379 56 c 0
 420 56 464 93 481 140 c 0
 484 148 488 172 515 172 c 0
 516 172 517 172 518 172 c 0
 548 172 553 154 553 143 c 0
 553 102 484 -5 378 -5 c 0
 339 -5 307 10 285 37 c 1
 258 12 223 -5 182 -5 c 0
 126 -5 81 34 81 92 c 0
 81 144 111 158 132 158 c 0
 157 158 173 138 173 117 c 0
 173 104 167 90 153 79 c 1
 160 61 172 57 184 57 c 0
 211 57 241 80 252 109 c 0
 254 114 302 297 302 318 c 0
 302 347 285 374 252 374 c 0
 212 374 168 338 151 291 c 0
 143 270 140 259 112 259 c 0
 82 259 79 278 79 287 c 0
EndSplineSet
EndChar

StartChar: y
Encoding: 121 121 169
Width: 525
Flags: HW
TeX: 430 222
ItalicCorrection: 173
HStem: -227 61<183.154 276.204> -5 61<251.314 346.678> 373 63<183.353 234.81>
VStem: 109 92<-145.529 -77.8923> 172 70<64.1735 215.521> 235 70<286.013 372.629> 473 65<347.326 427.809>
AnchorPoint: "affricate-below" 469 -222 basechar 0
AnchorPoint: "affricate-above" 678 611 basechar 0
AnchorPoint: "below" 188 -222 basechar 0
AnchorPoint: "above" 397 436 basechar 0
LayerCount: 2
Fore
SplineSet
79 287 m 0
 79 312 126 436 221 436 c 0
 271 436 305 398 305 351 c 0xe6
 305 301 242 196 242 117 c 0xea
 242 70 267 56 294 56 c 0
 420 56 450 370 473 411 c 0
 480 422 492 430 505 430 c 0
 521 430 538 417 538 397 c 0
 538 389 536 381 534 374 c 2
 443 12 l 2
 390 -197 259 -227 213 -227 c 0
 154 -227 109 -189 109 -131 c 0
 109 -86 136 -67 161 -67 c 0
 182 -67 201 -81 201 -107 c 0xf2
 201 -123 193 -136 182 -146 c 1
 189 -159 201 -166 218 -166 c 0
 274 -166 347 -96 373 19 c 1
 351 6 327 -5 293 -5 c 0
 245 -5 172 20 172 119 c 0xea
 172 205 235 324 235 353 c 0
 235 367 228 373 218 373 c 0
 208 373 196 367 185 355 c 0
 140 306 160 259 116 259 c 2xe6
 113 259 l 2
 83 259 79 277 79 287 c 0
EndSplineSet
EndChar

StartChar: z
Encoding: 122 122 170
Width: 525
Flags: HW
TeX: 430 0
ItalicCorrection: 173
HStem: -5 70<294.745 406.929> 365 71<260.412 365.666>
VStem: 167 70<280.762 341.011>
AnchorPoint: "affricate-below" 469 -222 basechar 0
AnchorPoint: "affricate-above" 678 611 basechar 0
AnchorPoint: "below" 290 0 basechar 0
AnchorPoint: "above" 399 436 basechar 0
LayerCount: 2
Fore
SplineSet
95 23 m 0
 95 33 102 43 105 47 c 0
 174 157 305 246 392 332 c 1
 352 346 336 365 306 365 c 0
 278 365 249 341 237 308 c 0
 234 301 231 279 204 279 c 2
 200 279 l 2
 191 279 167 280 167 307 c 0
 167 346 224 436 309 436 c 0
 369 436 399 387 429 387 c 0
 456 387 452 436 495 436 c 2
 496 436 l 2
 520 436 529 420 529 407 c 0
 529 387 484 319 370 221 c 2
 285 148 l 1
 239 105 l 1
 287 99 319 65 357 65 c 0
 373 65 389 71 409 87 c 0
 473 138 447 190 494 190 c 2
 499 190 l 2
 524 190 530 172 530 162 c 0
 530 123 462 -5 352 -5 c 0
 289 -5 266 44 223 44 c 0
 166 44 173 -5 129 -5 c 2
 128 -5 l 2
 102 -5 95 12 95 23 c 0
EndSplineSet
EndChar

StartChar: braceleft
Encoding: 123 123 171
Width: 525
Flags: HW
TeX: 694 83
ItalicCorrection: 173
HStem: -83 59<315.754 425.406> 260 75<169.292 279.36> 636 58<486 604.961>
VStem: 234 70<-7.46871 109.465> 282 71<138.604 259.606>
LayerCount: 2
Fore
SplineSet
160 303 m 0
 160 318 169 332 183 335 c 0
 189 336 300 335 325 397 c 0
 333 417 367 577 380 605 c 0
 422 693 557 694 571 694 c 0
 600 694 606 675 606 665 c 0
 606 654 599 642 589 636 c 0
 576 629 482 636 448 585 c 0
 441 575 438 560 398 400 c 0
 392 375 379 332 316 302 c 1
 335 286 353 265 353 232 c 0xe8
 353 207 304 34 304 19 c 0
 304 -24 399 -20 409 -24 c 0
 420 -28 427 -39 427 -51 c 0
 427 -60 423 -83 391 -83 c 0
 323 -83 234 -61 234 17 c 0xf0
 234 47 282 213 282 231 c 0
 282 241 277 251 260 260 c 0
 215 284 160 260 160 303 c 0
EndSplineSet
EndChar

StartChar: bar
Encoding: 124 124 172
Width: 525
Flags: HW
TeX: 694 83
ItalicCorrection: 173
VStem: 215 72<-79.3195 -15.8772> 390 71<628.959 690.496>
LayerCount: 2
Fore
SplineSet
215 -49 m 0
 215 -42 217 -35 219 -28 c 2
 390 657 l 2
 393 670 401 694 427 694 c 0
 446 694 461 677 461 659 c 0
 461 653 459 649 458 643 c 2
 287 -44 l 2
 286 -49 281 -83 250 -83 c 0
 232 -83 215 -70 215 -49 c 0
EndSplineSet
EndChar

StartChar: braceright
Encoding: 125 125 173
Width: 525
Flags: HW
TeX: 694 83
ItalicCorrection: 173
HStem: -83 59<72.0938 194.75> 276 58<407.53 514.719> 619 75<258.609 368.669>
VStem: 324 70<350.83 468.976> 372 71<499.937 618.386>
LayerCount: 2
Fore
SplineSet
71 -54 m 0
 71 -37 82 -27 90 -24 c 0
 102 -20 201 -25 231 29 c 0
 235 36 233 29 278 211 c 0
 294 277 339 298 360 309 c 1
 351 316 324 338 324 380 c 0xf0
 324 411 372 575 372 591 c 0
 372 601 367 611 351 619 c 0
 306 641 249 619 249 662 c 0
 249 673 254 694 287 694 c 0
 346 694 443 674 443 594 c 0xe8
 443 564 394 397 394 380 c 0
 394 335 489 337 497 334 c 0
 508 330 516 319 516 307 c 0
 516 293 508 280 495 276 c 0
 479 271 452 279 403 259 c 0
 358 240 352 215 346 192 c 0
 303 21 304 20 298 8 c 0
 258 -80 126 -83 108 -83 c 2
 106 -83 l 2
 96 -83 71 -83 71 -54 c 0
EndSplineSet
EndChar

StartChar: asciitilde
Encoding: 126 126 174
Width: 525
Flags: HW
TeX: 610 0
ItalicCorrection: 173
HStem: 491 67<418.632 492.693> 544 67<307.701 381.828>
LayerCount: 2
Fore
SplineSet
233 522 m 0
 233 533 240 542 248 551 c 0
 264 568 305 611 350 611 c 0x40
 404 611 427 558 454 558 c 0
 487 558 510 610 536 610 c 0
 553 610 567 595 567 580 c 0
 567 558 502 491 450 491 c 0x80
 398 491 372 544 346 544 c 0x40
 313 544 291 492 264 492 c 0
 250 492 233 504 233 522 c 0
EndSplineSet
EndChar

StartChar: uni00AD
Encoding: 173 173 175
Width: 525
Flags: HW
TeX: 430 0
ItalicCorrection: 173
HStem: 185 61<243.531 388.567>
VStem: 242 148<186.839 244.095>
LayerCount: 2
Fore
SplineSet
242 214 m 0
 242 227 249 246 277 246 c 2
 355 246 l 2
 385 246 390 226 390 217 c 0
 390 204 384 185 354 185 c 2
 277 185 l 2
 247 185 242 204 242 214 c 0
EndSplineSet
EndChar

StartChar: Abreve
Encoding: 258 258 176
Width: 525
Flags: HW
TeX: 819 0
ItalicCorrection: 173
HStem: 0 62<72.4986 137.991 200 239.306 299.439 354 425 465.041> 164 61<271 361> 603 20<390.5 440> 652 64<351.47 513.618>
VStem: 71 170<2.21578 59.748> 272 62<734.145 817.089> 298 169<1.92894 59.8493> 565 62<762.198 817.541>
DStem2: 129 62 200 62 0.400352 0.916361<28.425 139.509 206.217 546.231> 354 62 425 62 0.0835916 0.9965<5.935 102.228 163.349 281.326>
AnchorPoint: "below" 261 0 basechar 0
AnchorPoint: "above" 462 798 basechar 0
LayerCount: 2
Fore
SplineSet
272 768 m 0
 272 805 285 819 305 819 c 0
 328 819 336 802 336 791 c 0
 336 784 334 777 334 770 c 0xfd
 334 738 373 716 426 716 c 0
 481 716 546 742 565 793 c 0
 566 797 572 819 597 819 c 0
 614 819 627 807 627 790 c 0
 627 742 550 652 424 652 c 0
 335 652 272 698 272 768 c 0
EndSplineSet
Refer: 113 65 S 1 0 0 1 0 0 3
AlternateSubs2: "Stilistic set 01 subtable" Abreve.vn
AlternateSubs2: "Latin alternatives subtable" Abreve.vn
Substitution2: "Latin Vietnamese substitutions subtable" Abreve.vn
EndChar

StartChar: Aogonek
Encoding: 260 260 177
Width: 525
Flags: HW
TeX: 610 222
ItalicCorrection: 173
HStem: -233 62<324.011 379.475> -0 62<72.4986 137.991 200 239.314 299.297 328 425.068 465.43> 164 61<271 361> 603 20G<390.5 440>
VStem: 71 170<2.21578 59.748> 259 63<-170.894 -73.7148> 298 169<1.76515 59.8577>
DStem2: 129 62 200 62 0.400352 0.916361<28.425 139.509 206.217 546.231> 354 62 425 62 0.0835916 0.9965<5.935 102.228 163.349 282.787>
AnchorPoint: "above" 418 622 basechar 0
LayerCount: 2
Fore
SplineSet
71 29 m 0
 71 45 79 62 109 62 c 2
 129 62 l 1
 136 80 144 97 152 115 c 2
 354 577 l 2
 363 598 371 623 410 623 c 2
 426 623 l 2
 454 623 459 610 459 593 c 2
 459 582 l 1
 429 115 l 2
 428 97 426 80 425 62 c 1
 429 62 l 2
 444 62 467 61 467 33 c 0xfa
 467 2 438 0 434 -1 c 0
 414 -8 322 -63 322 -135 c 0
 322 -154 330 -171 344 -171 c 0
 374 -169 384 -132 409 -132 c 0
 427 -132 440 -148 440 -163 c 0
 440 -186 390 -233 342 -233 c 0
 293 -233 259 -192 259 -137 c 0xfc
 259 -95 279 -45 328 -0 c 1
 308 1 298 15 298 30 c 0xfa
 298 43 303 62 336 62 c 2
 354 62 l 1
 361 164 l 1
 244 164 l 1
 200 62 l 1
 204 62 l 2
 216 62 241 60 241 33 c 0
 241 19 234 0 203 -0 c 2
 106 -0 l 2
 75 0 71 20 71 29 c 0
271 225 m 1xf8
 365 225 l 1
 376 367 l 1
 385 456 l 1
 392 515 l 1
 397 541 l 1
 377 476 324 350 271 225 c 1xf8
EndSplineSet
Ligature2: "Latin ligatures subtable" A uni0328
EndChar

StartChar: Cacute
Encoding: 262 262 178
Width: 525
Flags: HW
TeX: 778 0
ItalicCorrection: 173
HStem: -11 62<242.794 348.319> 560 62<370.803 472.045>
VStem: 137 70<93.0044 323.482> 419 73<124.825 199.678> 489 108<451.282 602.5>
AnchorPoint: "below" 286 0 basechar 0
AnchorPoint: "above" 467 787 basechar 0
LayerCount: 2
Fore
SplineSet
388 725 m 0
 388 745 399 751 417 758 c 0
 539 805 544 807 554 807 c 0
 571 807 587 794 587 774 c 0
 587 752 569 743 555 737 c 0
 420 685 427 686 418 686 c 0xe0
 394 686 388 712 388 725 c 0
EndSplineSet
Refer: 115 67 S 1 0 0 1 -0 0 3
EndChar

StartChar: Ccaron
Encoding: 268 268 179
Width: 525
Flags: HW
TeX: 819 0
ItalicCorrection: 173
HStem: -11 62<242.794 348.319> 560 62<370.803 472.045> 636 21G<440 454.5>
VStem: 137 70<93.0044 323.482> 419 73<124.825 199.678> 489 108<451.282 602.5>
AnchorPoint: "below" 286 0 basechar 0
AnchorPoint: "above" 467 784 basechar 0
LayerCount: 2
Fore
SplineSet
330 775 m 0
 330 790 344 804 360 804 c 0
 376 804 383 792 413 758 c 2
 453 711 l 1
 580 802 576 804 591 804 c 0xf8
 606 804 620 791 620 775 c 0
 620 760 608 751 601 746 c 0
 459 637 461 636 448 636 c 2
 447 636 l 2
 433 636 424 646 419 653 c 0
 332 762 330 762 330 775 c 0
EndSplineSet
Refer: 115 67 S 1 0 0 1 0 0 3
EndChar

StartChar: Dcaron
Encoding: 270 270 180
Width: 525
Flags: HW
TeX: 819 0
ItalicCorrection: 173
HStem: 0 62<62.6982 121 193 324.147> 549 62<200.501 243 315 435.864> 636 21G<399 413.5>
VStem: 470 72<282.256 509.451>
DStem2: 105.496 0 177.496 0 0.242599 0.970127<81.3763 565.958>
AnchorPoint: "below" 217 0 basechar 0
AnchorPoint: "above" 415 795 basechar 0
LayerCount: 2
Fore
SplineSet
289 775 m 0
 289 790 303 804 319 804 c 0
 335 804 342 792 372 758 c 2
 412 711 l 1
 538 802 536 804 550 804 c 0
 565 804 579 791 579 775 c 0
 579 760 567 751 560 746 c 0
 418 637 420 636 407 636 c 2
 406 636 l 2
 392 636 383 646 378 653 c 0
 291 762 289 762 289 775 c 0
EndSplineSet
Refer: 116 68 S 1 0 0 1 0 0 3
EndChar

StartChar: Ecaron
Encoding: 282 282 181
Width: 525
Flags: HW
TeX: 819 0
ItalicCorrection: 173
HStem: 0 62<66.4144 131 203 414.012> 286 62<274 356> 549 62<204.074 253 324 512> 636 21G<407 421.5>
VStem: 497 94<493.376 546.731>
DStem2: 115.496 -1.34438e-13 187.496 -1.34438e-13 0.242599 0.970127<81.3763 312.27 376.057 565.958>
AnchorPoint: "above" 459 795 basechar 0
LayerCount: 2
Fore
SplineSet
298 775 m 0
 298 790 311 804 327 804 c 0
 343 804 351 792 381 758 c 2
 421 711 l 1
 548 802 543 804 558 804 c 0
 573 804 587 791 587 775 c 0
 587 760 575 751 568 746 c 0
 426 637 428 636 415 636 c 2
 414 636 l 2
 400 636 392 646 387 653 c 0
 300 762 298 762 298 775 c 0
EndSplineSet
Refer: 117 69 S 1 0 0 1 0 0 3
EndChar

StartChar: Eogonek
Encoding: 280 280 182
Width: 525
Flags: HW
TeX: 610 222
ItalicCorrection: 173
HStem: -233 62<299.937 355.39> -0 62<66.4767 131 203 304 375.035 413.813> 286 62<274 356> 549 62<203.733 253 324 512>
VStem: 235 63<-170.26 -76.1632> 497 94<493.376 546.731>
DStem2: 57.2294 -233 129.229 -233 0.242599 0.970127<321.551 552.445 616.232 806.133>
AnchorPoint: "above" 401 622 basechar 0
LayerCount: 2
Fore
SplineSet
65 29 m 0
 65 61 92 62 101 62 c 0
 111 62 121 62 131 62 c 1
 253 549 l 1
 238 549 l 2
 212 549 202 563 202 578 c 0
 202 586 205 611 239 611 c 2
 556 611 l 2
 588 611 591 590 591 582 c 0
 591 572 566 478 562 470 c 0
 557 460 543 454 530 454 c 0
 511 454 497 465 497 482 c 0
 497 489 500 500 512 549 c 1
 324 549 l 1
 274 348 l 1
 372 348 l 1
 378 354 371 403 413 404 c 1
 414 404 l 2
 440 404 449 391 449 375 c 0
 449 370 447 363 421 259 c 0
 418 248 414 229 387 229 c 2
 386 229 l 2
 362 229 351 241 351 259 c 0
 351 267 352 270 356 286 c 1
 259 286 l 1
 259 285 l 1
 203 62 l 1
 409 62 l 1
 431 158 433 172 463 172 c 2
 467 172 l 2
 493 172 499 152 499 144 c 0
 499 133 495 122 473 33 c 0
 467 8 459 0 435 -0 c 2
 426 -0 l 2
 390 0 298 -67 298 -135 c 0
 298 -166 314 -171 319 -171 c 0
 347 -170 362 -132 385 -132 c 0
 401 -132 417 -148 417 -162 c 0
 417 -187 364 -233 318 -233 c 0
 269 -233 235 -190 235 -136 c 0
 235 -111 241 -58 304 -0 c 1
 98 -0 l 2
 71 0 65 19 65 29 c 0
EndSplineSet
EndChar

StartChar: Gbreve
Encoding: 286 286 183
Width: 525
Flags: HW
TeX: 819 0
ItalicCorrection: 173
HStem: -11 62<229.601 321.48> 208 61<339.686 399 472 516.703> 560 62<360.54 472.983> 652 64<356.589 519.705>
VStem: 133 69<83.1395 319.115> 278 62<735.206 817.089> 571 63<760.825 817.476>
LayerCount: 2
Fore
SplineSet
133 187 m 0
 133 364 257 622 412 622 c 0
 447 622 477 615 501 603 c 1
 514 613 522 622 537 622 c 0
 559 622 567 602 567 594 c 0
 567 588 564 579 552 529 c 0
 548 512 545 492 516 492 c 2
 511 492 l 2
 473 492 485 521 472 544 c 1
 468 547 451 560 418 560 c 0
 312 560 202 342 202 185 c 0
 202 133 216 51 269 51 c 0
 347 51 390 178 399 208 c 1
 374 208 l 2
 343 208 338 224 338 236 c 0
 338 246 342 269 374 269 c 2
 483 269 l 2
 512 269 518 251 518 240 c 0
 518 229 514 207 482 207 c 0
 479 207 475 208 472 208 c 1
 472 207 l 1
 468 189 463 171 427 28 c 0
 421 5 406 0 393 -0 c 0
 365 0 360 17 358 21 c 1
 329 3 304 -11 264 -11 c 0
 175 -11 133 87 133 187 c 0
278 768 m 0
 278 805 291 819 311 819 c 0
 334 819 342 802 342 791 c 0
 342 784 340 777 340 770 c 0
 340 738 379 716 432 716 c 0
 487 716 552 742 571 792 c 0
 572 796 577 819 603 819 c 0
 620 819 634 807 634 790 c 0
 634 742 556 652 430 652 c 0
 337 652 278 701 278 768 c 0
EndSplineSet
EndChar

StartChar: Lacute
Encoding: 313 313 184
Width: 525
Flags: HW
TeX: 778 0
ItalicCorrection: 173
HStem: 0 62<71.5191 142 213 401.441> 549 62<208.519 263 335 421.594>
DStem2: 126.496 0 197.496 0 0.242599 0.970127<81.1337 565.715>
LayerCount: 2
Fore
SplineSet
248 725 m 0
 248 745 260 751 278 758 c 0
 400 805 405 807 415 807 c 0
 432 807 448 794 448 774 c 0
 448 752 430 743 416 737 c 0
 281 685 287 686 278 686 c 0
 254 686 248 712 248 725 c 0
EndSplineSet
Refer: 124 76 S 1 0 0 1 0 0 3
EndChar

StartChar: Lcaron
Encoding: 317 317 185
Width: 525
Flags: HW
TeX: 819 0
ItalicCorrection: 173
HStem: -0 62<71.5191 141 213 401.255> 549 62<208.326 263 335 391>
VStem: 390 137<612.926 686.701>
DStem2: 125.496 -0 197.496 -0 0.242599 0.970127<81.3763 565.958>
LayerCount: 2
Fore
SplineSet
70 29 m 0
 70 55 88 62 109 62 c 2
 141 62 l 1
 263 549 l 1
 244 549 l 2
 231 549 207 550 207 579 c 0
 207 609 231 611 244 611 c 2
 396 611 l 1
 393 618 390 625 390 636 c 0
 390 672 419 708 462 708 c 0
 501 708 527 677 527 640 c 0
 527 568 442 491 404 491 c 0
 386 491 373 508 373 522 c 0
 373 538 386 546 391 549 c 1
 335 549 l 1
 213 62 l 1
 397 62 l 1
 421 168 423 172 455 172 c 0
 481 172 488 155 488 143 c 0
 488 135 485 126 463 37 c 0
 458 16 456 1 425 -0 c 1
 103 -0 l 2
 75 0 70 20 70 29 c 0
420 566 m 1
 430 574 l 1
 438 583 l 1
 424 586 l 1
 423 576 l 1
 420 566 l 1
EndSplineSet
EndChar

StartChar: Lslash
Encoding: 321 321 186
Width: 525
Flags: HW
TeX: 610 0
ItalicCorrection: 173
HStem: -0 62<71.5191 142 213 401.441> 549 62<208.519 263 335 421.594>
DStem2: 126.496 -0 197.496 -0 0.242599 0.970127<81.1337 254.542 322.504 349.918 417.288 565.715>
LayerCount: 2
Fore
SplineSet
70 29 m 0
 70 55 88 62 109 62 c 2
 142 62 l 1
 188 247 l 1
 180 242 172 240 166 240 c 0
 148 240 137 257 137 272 c 0
 137 291 151 296 209 333 c 1
 263 549 l 1
 243 549 l 2
 212 549 207 566 207 578 c 0
 207 604 225 611 246 611 c 2
 387 611 l 2
 417 611 423 594 423 582 c 0
 423 551 398 549 385 549 c 2
 335 549 l 1
 295 388 l 1
 372 437 376 442 390 442 c 0
 407 442 419 426 419 411 c 0
 419 391 414 392 273 302 c 1
 213 62 l 1
 397 62 l 1
 422 171 425 172 454 172 c 0
 485 172 488 152 488 144 c 0
 488 134 484 122 463 37 c 0
 458 16 456 1 425 -0 c 1
 103 -0 l 2
 75 0 70 20 70 29 c 0
EndSplineSet
EndChar

StartChar: Nacute
Encoding: 323 323 187
Width: 525
Flags: HW
TeX: 778 0
ItalicCorrection: 173
HStem: 0 62<69.5625 130 188 232.358> 549 62<206.439 251 444.439 489 541.764 608.369>
VStem: 68 166<2.10278 59.948> 306 52<282.432 533.506> 319 53<78.7661 324.752> 443 167<551.117 609.047>
DStem2: 114.496 0 172.496 0 0.242599 0.970127<77.9799 564.506> 351.995 0 410.248 0 0.242599 0.970127<78.3403 565.837>
LayerCount: 2
Fore
SplineSet
362 725 m 0
 362 745 374 751 392 758 c 0
 514 805 519 807 529 807 c 0
 546 807 562 794 562 774 c 0
 562 752 543 742 530 737 c 0
 395 685 401 686 392 686 c 0xe4
 368 686 362 712 362 725 c 0
EndSplineSet
Refer: 126 78 S 1 0 0 1 -0 -0 3
EndChar

StartChar: Ncaron
Encoding: 327 327 188
Width: 525
Flags: HW
TeX: 819 0
ItalicCorrection: 173
HStem: 0 62<69.5625 130 188 232.358> 549 62<206.439 251 444.439 489 541.764 608.369> 636 21G<421 435.5>
VStem: 68 166<2.10278 59.948> 306 52<282.432 533.506> 319 53<78.7661 324.752> 443 167<551.117 609.047>
DStem2: 114.496 0 172.496 0 0.242599 0.970127<77.9799 564.506> 351.995 0 410.248 0 0.242599 0.970127<78.3403 565.837>
LayerCount: 2
Fore
SplineSet
311 775 m 0
 311 790 325 804 341 804 c 0
 357 804 365 792 395 758 c 1
 434 711 l 1
 508 761 552 804 572 804 c 0xf2
 587 804 601 791 601 775 c 0
 601 760 589 751 582 746 c 0
 440 637 442 636 429 636 c 2
 428 636 l 2
 414 636 405 646 400 653 c 0
 313 762 311 762 311 775 c 0
EndSplineSet
Refer: 126 78 S 1 0 0 1 0 0 3
EndChar

StartChar: Eng
Encoding: 330 330 189
Width: 525
Flags: HW
TeX: 610 0
ItalicCorrection: 152
HStem: -11 62<323.036 380.288> -0 62<61.6315 118 190 230.355> 549 62<199.672 240> 559 70<363.365 469.88>
VStem: 60 172<2.2493 59.748> 250 92<67.4241 136.036> 490 70<357.836 539.871>
DStem2: 99.7449 -11 171.745 -11 0.242599 0.970127<92.7151 544.124>
LayerCount: 2
Fore
SplineSet
60 29 m 0
 60 45 68 62 98 62 c 2
 118 62 l 1
 240 549 l 1
 234 549 l 2
 221 549 198 551 198 578 c 0
 198 587 201 611 233 611 c 2x6e
 283 611 l 2x6e
 296 611 310 610 318 590 c 1
 346 610 382 629 427 629 c 0
 507 629 560 567 560 471 c 0
 560 425 553 407 485 134 c 0
 453 7 372 -11 344 -11 c 0
 288 -11 250 29 250 81 c 0
 250 133 281 146 301 146 c 0
 330 146 342 121 342 107 c 0
 342 88 333 76 322 67 c 1
 326 59 332 51 344 51 c 0
 357 51 393 70 410 124 c 0
 413 134 415 145 418 155 c 2
 479 398 l 2
 484 419 490 440 490 468 c 0
 490 515 472 559 424 559 c 0x9e
 393 559 309 537 270 380 c 2
 190 62 l 1
 195 62 l 2
 208 62 232 60 232 33 c 0
 232 20 226 0 194 -0 c 2
 95 -0 l 2
 65 0 60 19 60 29 c 0
EndSplineSet
EndChar

StartChar: Ohungarumlaut
Encoding: 336 336 190
Width: 525
Flags: HW
TeX: 778 0
ItalicCorrection: 173
HStem: -11 61<186.928 372.477> 560 62<301.553 490.039>
VStem: 105 80<11 145.551> 491 79<463.869 596>
AnchorPoint: "below" 261 0 basechar 0
AnchorPoint: "above" 458 787 basechar 0
LayerCount: 2
Fore
SplineSet
105 26 m 0
 105 79 201 472 236 565 c 0
 251 604 253 622 404 622 c 2
 432 622 l 2
 554 622 570 609 570 583 c 0
 570 530 473 136 439 46 c 0
 423 6 419 -11 272 -11 c 2
 260 -11 l 2
 135 -11 105 -4 105 26 c 0
185 80 m 0
 185 60 198 50 269 50 c 0
 369 50 372 62 385 99 c 0
 406 161 491 496 491 533 c 0
 491 554 476 560 410 560 c 2
 394 560 l 2
 303 560 303 547 290 512 c 1
 275 467 185 122 185 80 c 0
310 726 m 0
 310 745 326 753 337 757 c 0
 462 805 467 807 477 807 c 0
 496 807 509 794 509 773 c 0
 509 769 509 766 508 762 c 1
 508 762 621 807 635 807 c 0
 654 807 667 790 667 774 c 0
 667 743 650 743 515 691 c 0
 509 689 504 686 498 686 c 0
 486 686 467 694 468 733 c 1
 370 695 350 686 339 686 c 0
 322 686 310 705 310 726 c 0
EndSplineSet
EndChar

StartChar: Racute
Encoding: 340 340 191
Width: 525
Flags: HW
TeX: 778 0
ItalicCorrection: 173
HStem: -11 21<392.5 441.5> 0 62<63.4473 124 195 240.302> 275 61<264 356.207> 549 62<200.548 245 317 425.723>
VStem: 336 68<51.264 161.513> 366 70<126.477 267.655> 450 72<400.912 525.958>
DStem2: 105.745 -11 176.745 -11 0.242599 0.970127<92.4725 312.21 375.026 577.054>
AnchorPoint: "below" 216 0 basechar 0
AnchorPoint: "above" 415 798 basechar 0
LayerCount: 2
Fore
SplineSet
362 725 m 0
 362 745 373 751 391 758 c 0
 513 805 518 807 528 807 c 0
 545 807 561 794 561 774 c 0
 561 752 543 742 530 737 c 0
 395 685 401 686 392 686 c 0x32
 368 686 362 712 362 725 c 0
EndSplineSet
Refer: 130 82 S 1 0 0 1 -0 -0 3
EndChar

StartChar: Rcaron
Encoding: 344 344 192
Width: 525
Flags: HW
TeX: 819 0
ItalicCorrection: 173
HStem: -11 21<392.5 441.5> 0 62<63.4473 124 195 240.302> 275 61<264 356.207> 549 62<200.548 245 317 425.723> 636 21G<386 399.5>
VStem: 336 68<51.264 161.513> 366 70<126.477 267.655> 450 72<400.912 525.958>
DStem2: 105.745 -11 176.745 -11 0.242599 0.970127<92.4725 312.21 375.026 577.054>
AnchorPoint: "below" 216 0 basechar 0
AnchorPoint: "above" 414 795 basechar 0
LayerCount: 2
Fore
SplineSet
276 775 m 0
 276 790 289 804 305 804 c 0
 321 804 329 792 359 758 c 2
 399 711 l 1
 526 802 521 804 536 804 c 0x39
 551 804 565 791 565 775 c 0
 565 760 553 751 546 746 c 0
 404 637 406 636 393 636 c 0
 379 636 370 646 365 653 c 0
 278 762 276 762 276 775 c 0
EndSplineSet
Refer: 130 82 S 1 0 0 1 0 0 3
EndChar

StartChar: Sacute
Encoding: 346 346 193
Width: 525
Flags: HW
TeX: 778 0
ItalicCorrection: 173
HStem: -11 61<218.035 347.718> 560 62<325.75 441.728>
VStem: 91 103<12 151.741> 196 67<377.123 495.776> 418 68<128.684 257.959> 456 71<409.296 477.297> 459 106<457.759 601.5>
AnchorPoint: "below" 288 0 basechar 0
AnchorPoint: "above" 430 787 basechar 0
LayerCount: 2
Fore
SplineSet
336 725 m 0
 336 745 348 751 366 758 c 0
 488 805 493 807 503 807 c 0
 520 807 536 794 536 774 c 0
 536 752 517 742 504 737 c 0
 369 685 375 686 366 686 c 0xf0
 342 686 336 712 336 725 c 0
EndSplineSet
Refer: 131 83 S 1 0 0 1 -0 0 3
EndChar

StartChar: Scaron
Encoding: 352 352 194
Width: 525
Flags: HW
TeX: 819 0
ItalicCorrection: 173
HStem: -11 61<218.035 347.718> 560 62<325.75 441.728> 636 21G<421 435.5>
VStem: 91 103<12 151.741> 196 67<377.123 495.776> 418 68<128.684 257.959> 456 71<409.296 477.297> 459 106<457.759 601.5>
AnchorPoint: "below" 288 0 basechar 0
AnchorPoint: "above" 430 784 basechar 0
LayerCount: 2
Fore
SplineSet
311 775 m 0
 311 790 325 804 341 804 c 0
 357 804 365 792 395 758 c 2
 435 711 l 1
 562 802 557 804 572 804 c 0xf8
 587 804 601 791 601 775 c 0
 601 760 589 751 582 746 c 0
 440 637 442 636 429 636 c 2
 428 636 l 2
 414 636 405 646 400 653 c 0
 313 762 311 762 311 775 c 0
EndSplineSet
Refer: 131 83 S 1 0 0 1 -0 0 3
EndChar

StartChar: Scedilla
Encoding: 350 350 195
Width: 525
Flags: HW
TeX: 610 194
ItalicCorrection: 173
HStem: -208 61<118.626 292.458> -67 117<251.633 308.537> -11 21G<109.5 131.5> 560 62<325.679 441.664>
VStem: 91 103<11 151.741> 196 67<377.61 493.126> 311 71<-126.614 -70.7433> 418 68<128.023 258.427> 459 106<458.259 601.5>
LayerCount: 2
Fore
SplineSet
91 17 m 0
 91 24 90 19 128 172 c 0
 132 189 136 203 165 203 c 0
 195 203 199 184 199 175 c 0
 199 164 194 150 194 129 c 0
 194 66 247 50 287 50 c 0
 353 50 418 127 418 203 c 0xdf
 418 281 358 269 274 301 c 0
 241 314 196 350 196 422 c 0
 196 523 287 622 390 622 c 0
 452 622 482 592 494 582 c 1
 504 600 512 622 535 622 c 0
 551 622 565 610 565 593 c 0
 565 586 565 592 527 439 c 0
 521 416 514 407 492 407 c 2
 491 407 l 2
 476 407 456 411 456 437 c 0
 456 448 459 462 459 479 c 0xde80
 459 541 428 560 390 560 c 0
 319 560 263 485 263 428 c 0
 263 351 343 364 414 332 c 0
 456 313 486 270 486 209 c 0
 486 114 414 9 309 -10 c 1
 342 -18 382 -44 382 -92 c 0
 382 -133 354 -177 293 -195 c 0
 251 -207 210 -208 161 -208 c 2
 150 -208 l 2
 126 -208 117 -191 117 -180 c 0
 117 -167 123 -147 154 -147 c 2
 172 -147 l 1
 240 -146 311 -137 311 -95 c 0xdf
 311 -82 299 -69 273 -67 c 0xdf
 272 -67 240 -67 240 -38 c 0
 240 -26 244 -15 250 -8 c 1
 195 0 170 25 163 31 c 1
 152 11 143 -11 120 -11 c 0xbf
 99 -11 91 5 91 17 c 0
EndSplineSet
EndChar

StartChar: Tcaron
Encoding: 356 356 196
Width: 525
Flags: HW
TeX: 819 0
ItalicCorrection: 173
HStem: 0 62<158.471 242 314 381.62> 455 156<213.331 253.135 527.12 579.77> 549 62<267.77 364 435 527> 636 21G<421 435.5>
VStem: 185 87<471.078 547.875> 513 93<483 582>
DStem2: 226.496 0 298.496 0 0.242599 0.970127<81.3763 565.958>
AnchorPoint: "below" 262 0 basechar 0
AnchorPoint: "above" 460 795 basechar 0
LayerCount: 2
Fore
SplineSet
311 775 m 0
 311 790 325 804 341 804 c 0
 357 804 365 792 395 758 c 1
 434 711 l 1
 560 802 558 804 572 804 c 0x9c
 587 804 601 791 601 775 c 0
 601 760 589 751 582 746 c 0
 440 637 442 636 429 636 c 2
 428 636 l 2
 414 636 405 646 400 653 c 0
 313 762 311 762 311 775 c 0
EndSplineSet
Refer: 132 84 S 1 0 0 1 0 0 3
EndChar

StartChar: Tcommaaccent
Encoding: 354 354 197
Width: 525
Flags: HW
TeX: 610 194
ItalicCorrection: 173
HStem: -208 61<97.125 268.967> -0 62<158.434 227 314 381.62> 455 156<213.331 252.774 527.332 579.77> 549 62<267.752 364 435 527>
VStem: 185 87<471.078 547.875> 289 71<-126.131 -70.4586> 512 94<483 582>
DStem2: 174.986 -208 245.986 -208 0.242599 0.970127<295.659 780.241>
LayerCount: 2
Fore
SplineSet
96 -179 m 0
 96 -148 121 -147 133 -147 c 2
 154 -147 l 2
 177 -147 289 -147 289 -93 c 0
 289 -67 245 -66 240 -65 c 0
 224 -61 218 -47 218 -39 c 0
 218 -32 221 -23 227 -0 c 1
 195 -0 l 2
 176 0 157 4 157 29 c 0
 157 60 183 62 196 62 c 2xde
 242 62 l 1
 364 549 l 1
 272 549 l 1xde
 253 460 246 455 221 455 c 2
 220 455 l 2
 189 455 185 473 185 483 c 0
 185 494 209 588 213 596 c 0
 220 608 231 611 245 611 c 2
 572 611 l 2xee
 602 611 606 590 606 582 c 0
 606 572 602 561 582 481 c 0
 578 462 562 454 546 454 c 0
 528 454 512 466 512 483 c 0
 512 489 514 499 527 549 c 1
 435 549 l 1
 314 62 l 1
 345 62 l 2
 359 62 383 61 383 33 c 0
 383 2 358 0 345 -0 c 2
 298 -0 l 1
 295 -12 l 1
 340 -26 360 -60 360 -92 c 0
 360 -133 333 -177 273 -195 c 0
 230 -208 187 -208 136 -208 c 2
 132 -208 l 2
 100 -208 96 -191 96 -179 c 0
EndSplineSet
EndChar

StartChar: Uhungarumlaut
Encoding: 368 368 198
Width: 525
Flags: HW
TeX: 778 0
ItalicCorrection: 173
HStem: -11 62<229.387 320.773> 549 62<184.719 234 301.123 371.489 442.562 491 558.077 628.481>
VStem: 141 70<67.8446 249.321>
DStem2: 94.7329 -11 165.734 -11 0.242599 0.970127<176.101 577.057> 351.483 -11 423.484 -11 0.242599 0.970127<121.292 577.118>
AnchorPoint: "below" 269 0 basechar 0
AnchorPoint: "above" 461 798 basechar 0
LayerCount: 2
Fore
SplineSet
293 725 m 0
 293 745 305 751 323 758 c 0
 445 805 450 807 460 807 c 0
 477 807 493 794 493 774 c 0
 493 752 475 743 461 737 c 0
 332 687 333 686 324 686 c 0
 300 686 293 712 293 725 c 0
477 725 m 0
 477 745 489 751 507 758 c 0
 629 805 634 807 644 807 c 0
 661 807 677 794 677 774 c 0
 677 752 658 742 645 737 c 0
 511 685 516 686 507 686 c 0
 483 686 477 712 477 725 c 0
EndSplineSet
Refer: 133 85 S 1 0 0 1 -0 0 3
EndChar

StartChar: Uring
Encoding: 366 366 199
Width: 525
Flags: HW
TeX: 819 0
ItalicCorrection: 173
HStem: -11 62<229.387 320.597> 549 62<184.433 234 306 347.995 481 491 558.077 628.481> 590 62<384.652 443.478> 766 61<404.069 492.194>
VStem: 141 70<67.8446 253.625> 319 60<658.36 742.358> 498 61<674.523 759.207>
DStem2: 94.7329 -11 166.484 -11 0.242599 0.970127<176.198 577.057> 351.483 -11 423.484 -11 0.242599 0.970127<121.011 577.118>
LayerCount: 2
Fore
SplineSet
141 143 m 0
 141 178 149 204 156 234 c 2
 234 549 l 1
 218 549 l 2
 188 549 183 569 183 578 c 0
 183 608 206 611 223 611 c 2
 348 611 l 1
 328 630 319 652 319 679 c 0
 319 758 396 827 468 827 c 0
 522 827 559 789 559 738 c 0
 559 711 549 656 481 611 c 1
 595 611 l 2
 604 611 630 610 630 582 c 0
 630 556 612 549 591 549 c 2
 563 549 l 1
 559 528 510 335 481 219 c 0
 471 178 455 111 395 51 c 0
 338 -7 285 -11 266 -11 c 0
 191 -11 141 54 141 143 c 0
211 140 m 0
 211 88 233 51 267 51 c 0
 318 51 377 115 402 192 c 0
 406 206 409 221 413 235 c 2
 483 514 l 2
 486 526 488 537 491 549 c 1
 476 549 l 2xde
 450 549 441 561 441 577 c 0
 441 582 442 589 444 595 c 1
 433 592 422 590 409 590 c 0xbe
 393 590 380 594 369 598 c 1
 371 593 373 588 373 583 c 0
 373 551 347 549 334 549 c 2xde
 306 549 l 1
 225 223 l 2
 221 207 211 173 211 140 c 0
379 695 m 0
 379 669 400 652 425 652 c 0
 466 652 498 688 498 722 c 0
 498 749 477 766 453 766 c 0xbe
 416 766 379 731 379 695 c 0
EndSplineSet
EndChar

StartChar: Ydieresis
Encoding: 376 376 200
Width: 525
Flags: HW
TeX: 819 0
ItalicCorrection: 173
HStem: 0 62<181.439 242 312 358.126> 549 62<202.686 245 321 366.148 446.531 477 539.406 611.275> 719 100<313.764 390.152 517.849 594.125>
VStem: 201 167<550.905 609.009> 301 102<731.681 806.536> 445 168<550.731 609.08> 505 102<731.681 805.798>
DStem2: 321 549 245 549 0.136418 -0.990651<0 190.098>
AnchorPoint: "below" 261 0 basechar 0
AnchorPoint: "above" 463 810 basechar 0
LayerCount: 2
Fore
SplineSet
301 764 m 0
 301 792 326 819 357 819 c 0
 381 819 403 801 403 774 c 0xe8
 403 744 375 719 347 719 c 0
 320 719 301 739 301 764 c 0
505 764 m 0xe2
 505 795 534 819 561 819 c 0
 588 819 607 799 607 774 c 0
 607 744 579 719 551 719 c 0
 526 719 505 739 505 764 c 0xe2
EndSplineSet
Refer: 137 89 S 1 0 0 1 -0 0 3
EndChar

StartChar: Zacute
Encoding: 377 377 201
Width: 525
Flags: HW
TeX: 778 0
ItalicCorrection: 173
HStem: -0 62<182 394.813> 549 62<294.77 494>
DStem2: 103 61 182 62 0.62528 0.780401<50.1775 625.32>
AnchorPoint: "below" 264 0 basechar 0
AnchorPoint: "above" 463 798 basechar 0
LayerCount: 2
Fore
SplineSet
362 725 m 0
 362 745 374 751 392 758 c 0
 514 805 519 807 529 807 c 0
 546 807 562 794 562 774 c 0
 562 752 543 742 530 737 c 0
 395 685 401 686 392 686 c 0
 368 686 362 712 362 725 c 0
EndSplineSet
Refer: 138 90 S 1 0 0 1 -0 -0 3
EndChar

StartChar: Zcaron
Encoding: 381 381 202
Width: 525
Flags: HW
TeX: 819 0
ItalicCorrection: 173
HStem: 0 62<182 394.813> 549 62<294.77 494> 636 21G<425 439.5>
DStem2: 103 61 182 62 0.62528 0.780401<50.1775 625.32>
AnchorPoint: "below" 264 0 basechar 0
AnchorPoint: "above" 462 795 basechar 0
LayerCount: 2
Fore
SplineSet
316 775 m 0
 316 790 329 804 345 804 c 0
 361 804 369 792 399 758 c 2
 439 711 l 1
 566 802 561 804 576 804 c 0
 591 804 605 791 605 775 c 0
 605 760 593 751 586 746 c 0
 444 637 446 636 433 636 c 2
 432 636 l 2
 418 636 410 646 405 653 c 0
 318 762 316 762 316 775 c 0
EndSplineSet
Refer: 138 90 S 1 0 0 1 0 0 3
EndChar

StartChar: IJ
Encoding: 306 306 204
Width: 525
Flags: HW
TeX: 610 0
ItalicCorrection: 173
HStem: -11 62<305.607 355.504> 0 62<54.4387 110 181 221.051> 549 62<191.624 231 303 358.561 438.904 490 562 603.671>
VStem: 53 170<2.11714 59.8493> 190 170<551.151 609.095> 233 92<66.3779 136.277> 437 168<550.806 609.071>
DStem2: 91.7449 -11 162.745 -11 0.242599 0.970127<92.4725 577.054> 350.24 -11 421.99 -11 0.242599 0.970127<71.1215 577.177>
LayerCount: 2
Fore
SplineSet
53 29 m 0x72
 53 43 59 62 90 62 c 2
 110 62 l 1
 231 549 l 1
 227 549 l 2
 214 549 190 551 190 578 c 0
 190 588 193 611 226 611 c 2
 326 611 l 2
 356 611 360 591 360 582 c 0
 360 568 354 549 323 549 c 2
 303 549 l 1
 181 62 l 1
 186 62 l 2x6a
 199 62 223 60 223 33 c 0
 223 22 218 0 186 0 c 2
 87 0 l 2
 57 0 53 19 53 29 c 0x72
233 80 m 0
 233 136 266 146 284 146 c 0
 307 146 325 130 325 106 c 0
 325 86 313 74 304 66 c 1
 307 59 312 52 321 51 c 1
 348 51 376 94 387 136 c 2
 490 549 l 1
 473 549 l 2
 443 549 437 566 437 578 c 0
 437 587 441 611 473 611 c 2
 571 611 l 2
 598 611 605 594 605 582 c 0xa6
 605 551 581 549 567 549 c 2
 562 549 l 1
 559 536 556 523 553 510 c 2
 458 133 l 1
 435 37 374 -11 320 -11 c 0
 267 -11 233 30 233 80 c 0
EndSplineSet
Ligature2: "Latin Dutch ligatures subtable" I J
EndChar

StartChar: dcroat
Encoding: 273 273 206
Width: 525
Flags: HW
TeX: 610 0
ItalicCorrection: 173
HStem: -5 62<210.449 294.007 419.576 461.526> 374 62<288.154 371.68> 462 61<333.633 440 527 583.574> 549 62<378.509 461>
VStem: 125 70<69.5925 247.39> 388 31<85 285> 491 62<98.3997 170.719>
LayerCount: 2
Fore
SplineSet
125 148 m 0
 125 287 231 436 339 436 c 0
 372 436 401 422 423 396 c 1
 440 462 l 1
 366 462 l 1
 336 463 332 480 332 490 c 0
 332 501 336 523 368 523 c 2
 455 523 l 1
 461 549 l 1
 418 549 l 2
 408 549 398 548 389 554 c 0
 382 559 377 567 377 578 c 0
 377 588 380 611 413 611 c 2
 506 611 l 2
 537 611 540 591 540 583 c 0
 540 573 536 557 527 523 c 1
 549 523 l 2
 580 523 585 506 585 494 c 0
 585 464 559 462 549 462 c 2
 511 462 l 1
 508 448 504 435 501 421 c 2
 426 118 l 2
 424 110 419 97 419 85 c 0
 419 67 428 57 438 57 c 0
 470 57 477 146 491 162 c 0
 497 169 505 172 517 172 c 2
 520 172 l 2
 549 172 553 153 553 144 c 0
 553 133 527 -5 438 -5 c 0
 397 -5 369 19 357 47 c 1
 325 19 289 -5 243 -5 c 0
 172 -5 125 59 125 148 c 0
195 145 m 0
 195 111 204 57 245 57 c 0
 307 57 388 177 388 285 c 0
 388 341 367 374 336 374 c 0
 273 374 195 250 195 145 c 0
EndSplineSet
AlternateSubs2: "Stilistic set 01 subtable" dcroat.vn
AlternateSubs2: "Latin alternatives subtable" dcroat.vn
Substitution2: "Latin Vietnamese substitutions subtable" dcroat.vn
EndChar

StartChar: section
Encoding: 167 167 207
Width: 525
Flags: HW
TeX: 610 222
ItalicCorrection: 173
HStem: -227 61<172.18 280.237> 554 62<341.26 448.959>
VStem: 97 70<-159.632 -68.6416> 157 57<131.737 233.681> 222 57<392.224 493.182> 342 58<-105.329 -2.60686> 408 57<155.427 256.996> 454 71<457.773 548.337>
LayerCount: 2
Fore
SplineSet
97 -121 m 0
 97 -74 120 -64 136 -64 c 0
 157 -64 169 -83 169 -95 c 0
 169 -101 167 -111 167 -121 c 0xee
 167 -157 194 -166 215 -166 c 0
 278 -166 342 -101 342 -48 c 0
 342 3 276 26 252 37 c 0
 210 57 157 101 157 171 c 0
 157 236 203 304 264 335 c 1
 222 377 222 418 222 432 c 0
 222 520 308 616 409 616 c 0
 473 616 525 574 525 510 c 0
 525 463 501 453 485 453 c 0
 463 453 452 472 452 484 c 0
 452 489 454 498 454 509 c 0xdd
 454 545 428 554 406 554 c 0
 344 554 279 490 279 437 c 0
 279 386 347 363 371 351 c 0
 433 321 465 271 465 218 c 0
 465 153 418 86 358 54 c 1
 380 30 400 2 400 -43 c 0
 400 -130 314 -227 212 -227 c 0
 148 -227 97 -185 97 -121 c 0
214 176 m 0
 214 129 282 97 296 97 c 0
 332 97 408 151 408 213 c 0
 408 260 340 292 326 292 c 0xde
 290 292 214 238 214 176 c 0
EndSplineSet
EndChar

StartChar: abreve
Encoding: 259 259 208
Width: 525
Flags: HW
TeX: 638 0
ItalicCorrection: 173
HStem: -5 62<210.449 293.844 419.512 459.506> 374 62<287.988 371.406> 498 65<302.89 502.955>
VStem: 125 70<69.5925 247.39> 236 62<573.305 637.01> 388 31<84 285> 482 71<78.4102 170.181>
AnchorPoint: "below" 230 0 basechar 0
AnchorPoint: "above" 385 619 basechar 0
LayerCount: 2
Fore
SplineSet
236 594 m 0
 236 615 243 639 269 639 c 0
 287 639 299 626 299 611 c 0
 299 607 298 601 298 597 c 0
 298 569 353 563 395 563 c 0
 562 563 508 639 561 639 c 0
 577 639 590 627 590 610 c 0
 590 588 559 498 394 498 c 0
 264 498 236 556 236 594 c 0
EndSplineSet
Refer: 145 97 S 1 0 0 1 -0 0 3
AlternateSubs2: "Stilistic set 01 subtable" abreve.vn
AlternateSubs2: "Latin alternatives subtable" abreve.vn
Substitution2: "Latin Vietnamese substitutions subtable" abreve.vn
EndChar

StartChar: aogonek
Encoding: 261 261 209
Width: 525
Flags: HW
TeX: 430 222
ItalicCorrection: 173
HStem: -233 62<328.303 387.037> -5 62<210.449 293.844> 374 62<287.988 371.406>
VStem: 125 70<69.5925 247.39> 263 63<-170.582 -76.2472> 388 31<84 285> 460 93<71.3733 140.544>
AnchorPoint: "above" 339 436 basechar 0
LayerCount: 2
Fore
SplineSet
125 148 m 0
 125 287 230 436 339 436 c 0
 390 436 417 402 423 396 c 1
 431 414 445 421 458 421 c 0
 475 421 492 408 492 388 c 0
 492 385 491 381 489 371 c 2
 424 113 l 2
 422 105 419 94 419 84 c 0
 419 60 434 57 438 57 c 0
 445 57 453 62 460 75 c 0
 487 125 474 172 516 172 c 2
 517 172 l 2
 533 172 552 168 553 144 c 0
 553 135 534 41 484 8 c 0
 459 -8 445 -2 431 -8 c 0
 380 -32 326 -84 326 -134 c 0
 326 -156 336 -171 351 -171 c 0
 378 -171 387 -137 411 -137 c 0
 427 -137 443 -150 443 -167 c 0
 443 -190 394 -233 350 -233 c 0
 297 -233 263 -189 263 -134 c 0
 263 -70 310 -12 370 25 c 1
 362 37 l 1
 357 47 l 1
 337 28 294 -5 243 -5 c 0
 172 -5 125 59 125 148 c 0
195 145 m 0
 195 111 204 57 245 57 c 0
 307 57 388 177 388 285 c 0
 388 341 367 374 336 374 c 0
 273 374 195 250 195 145 c 0
EndSplineSet
EndChar

StartChar: ccaron
Encoding: 269 269 211
Width: 525
Flags: HW
TeX: 638 0
ItalicCorrection: 173
HStem: -5 61<238.969 437.384> 374 62<319.691 433.81> 619 20G<314 330 544 560.5>
VStem: 136 70<90.8295 250.014> 435 76<320.518 369.532>
AnchorPoint: "below" 306 0 basechar 0
AnchorPoint: "above" 437 619 basechar 0
LayerCount: 2
Fore
SplineSet
292 609 m 0
 292 625 306 639 322 639 c 0
 338 639 347 627 418 559 c 1
 480 596 535 639 553 639 c 0
 568 639 582 626 582 610 c 0
 582 594 569 585 562 580 c 0
 427 487 426 484 412 484 c 0
 396 484 391 493 304 585 c 0
 297 593 292 599 292 609 c 0
EndSplineSet
Refer: 147 99 S 1 0 0 1 0 0 3
EndChar

StartChar: dcaron
Encoding: 271 271 212
Width: 525
Flags: HW
TeX: 610 0
ItalicCorrection: 173
HStem: -5 62<210.449 293.374 419.5 460.102> 374 62<288.154 371.68> 549 62<377.528 461> 625 20G<598.5 640.5>
VStem: 125 70<69.5925 247.39> 388 31<84 285> 492 61<101.233 170.266> 548 137<532.806 623.701>
DStem2: 322.722 -5 394.71 -5 0.242599 0.970127<413.348 570.996>
LayerCount: 2
Fore
SplineSet
527 460 m 0
 527 490 561 482 595 520 c 1
 552 527 548 563 548 574 c 0
 548 609 577 645 620 645 c 0
 661 645 685 614 685 577 c 0xfd
 685 504 598 428 557 428 c 0
 539 428 527 446 527 460 c 0
EndSplineSet
Refer: 148 100 S 1 0 0 1 -0 0 3
EndChar

StartChar: ecaron
Encoding: 283 283 213
Width: 525
Flags: HW
TeX: 638 0
ItalicCorrection: 173
HStem: -5 61<240.121 436.93> 189 61<227 398.402> 374 62<319.686 437.67> 619 20G<322 338 553 569.5>
VStem: 137 70<90.8811 187.035> 445 70<286.587 365.37>
AnchorPoint: "below" 306 0 basechar 0
AnchorPoint: "above" 437 619 basechar 0
LayerCount: 2
Fore
SplineSet
301 609 m 0
 301 625 314 639 330 639 c 0
 346 639 356 627 427 559 c 1
 489 596 544 639 562 639 c 0
 577 639 590 626 590 610 c 0
 590 594 577 585 570 580 c 0
 435 487 435 484 421 484 c 0
 405 484 400 493 313 585 c 0
 306 593 301 599 301 609 c 0
EndSplineSet
Refer: 149 101 S 1 0 0 1 0 0 3
EndChar

StartChar: eogonek
Encoding: 281 281 214
Width: 525
Flags: HW
TeX: 430 222
ItalicCorrection: 173
HStem: -233 63<324.656 377.192> -6 62<241.003 319> 189 61<227 400.422> 374 62<319.315 437.67>
VStem: 137 70<89.3151 186.971> 256 63<-167.374 -75.7936> 445 70<286.654 365.37>
AnchorPoint: "above" 391 436 basechar 0
LayerCount: 2
Fore
SplineSet
137 165 m 0
 137 308 264 436 391 436 c 0
 460 436 515 394 515 332 c 0
 515 308 506 226 384 200 c 0
 335 189 285 189 235 189 c 2
 209 189 l 1
 208 188 207 173 207 163 c 0
 207 119 226 56 301 56 c 2
 303 56 l 2
 470 56 458 109 492 109 c 0
 512 109 528 86 528 73 c 0
 528 44 475 20 443 5 c 0
 337 -46 319 -107 319 -135 c 0
 319 -149 323 -158 328 -167 c 1
 333 -169 338 -170 342 -170 c 0
 369 -170 381 -132 405 -132 c 0
 421 -132 437 -146 437 -163 c 0
 437 -185 388 -233 339 -233 c 0
 289 -233 256 -191 256 -137 c 0
 256 -96 275 -47 319 -5 c 1
 313 -5 308 -6 302 -6 c 0
 190 -6 137 76 137 165 c 0
227 250 m 1
 309 250 445 251 445 331 c 0
 445 357 422 374 389 374 c 0
 326 374 258 320 227 250 c 1
EndSplineSet
EndChar

StartChar: gbreve
Encoding: 287 287 215
Width: 525
Flags: HW
TeX: 638 222
ItalicCorrection: 173
HStem: -228 62<156.704 285.38> 0 62<226.825 327.93> 374 62<304.494 405.853> 498 65<302.89 502.819>
VStem: 67 90<-165.339 -119.913> 136 70<83.7206 252.306> 236 62<573.305 637.345> 427 104<225 399>
LayerCount: 2
Fore
SplineSet
236 594 m 0
 236 615 242 639 268 639 c 0
 286 639 299 626 299 611 c 0
 299 607 298 601 298 597 c 0
 298 569 353 563 395 563 c 0
 562 563 507 639 560 639 c 0
 576 639 590 627 590 610 c 0xf3
 590 588 559 498 394 498 c 0
 264 498 236 556 236 594 c 0
EndSplineSet
Refer: 151 103 S 1 0 0 1 -0 0 3
EndChar

StartChar: lacute
Encoding: 314 314 216
Width: 525
Flags: HW
TeX: 778 0
ItalicCorrection: 173
HStem: -5 61<292.251 377.427> 549 62<196.694 327>
VStem: 215 71<68.5356 184.141> 412 67<97.5077 170.951>
DStem2: 188.49 -5 260.242 -5 0.242599 0.970127<116.971 571.053>
LayerCount: 2
Fore
SplineSet
358 725 m 0
 358 745 370 751 388 758 c 0
 510 805 515 807 525 807 c 0
 542 807 558 794 558 774 c 0
 558 752 540 743 526 737 c 0
 391 685 397 686 388 686 c 0
 364 686 358 712 358 725 c 0
EndSplineSet
Refer: 156 108 S 1 0 0 1 0 0 3
EndChar

StartChar: lcaron
Encoding: 318 318 217
Width: 525
Flags: HW
TeX: 610 0
ItalicCorrection: 173
HStem: -5 61<292.251 377.427> 549 62<196.694 327> 625 20G<488.5 530>
VStem: 215 71<68.5356 184.141> 412 67<97.5077 170.951> 438 137<530.266 623.315>
DStem2: 188.49 -5 260.242 -5 0.242599 0.970127<116.971 571.053>
LayerCount: 2
Fore
SplineSet
404 460 m 0
 404 495 439 476 485 520 c 1
 441 528 438 563 438 574 c 0
 438 608 467 645 510 645 c 0
 550 645 575 613 575 577 c 0xf4
 575 497 480 428 435 428 c 0
 417 428 404 446 404 460 c 0
EndSplineSet
Refer: 156 108 S 1 0 0 1 -0 -0 3
EndChar

StartChar: lslash
Encoding: 322 322 218
Width: 525
Flags: HW
TeX: 610 0
ItalicCorrection: 173
HStem: -5 61<290.437 377.559> 549 62<196.748 326>
VStem: 215 71<63.9792 183.528> 415 64<104.81 170.297>
DStem2: 187.98 -5 259.978 -5 0.242599 0.970127<118.339 288.622 355.277 385.511 451.368 568.695> 243 338 258 275 0.842522 0.538662<-119.129 -21.2979 144.803 272.789>
AnchorPoint: "above" 377 611 basechar 0
LayerCount: 2
Fore
SplineSet
143 259 m 0
 143 279 153 281 243 338 c 0
 255 346 267 355 280 362 c 1
 326 549 l 1
 232 549 l 2
 221 549 195 550 195 578 c 0
 195 594 203 611 233 611 c 2
 371 611 l 2
 399 611 405 593 405 582 c 0
 405 576 403 566 365 416 c 1
 461 477 462 481 476 481 c 0
 493 481 505 464 505 449 c 0
 505 433 493 426 483 419 c 0
 331 322 345 335 339 311 c 0
 290 114 286 102 286 92 c 0
 286 64 324 56 339 56 c 0
 391 56 407 147 415 159 c 0
 421 168 433 172 445 172 c 0
 462 172 479 163 479 144 c 0
 479 120 437 -5 339 -5 c 0
 283 -5 215 24 215 91 c 0
 215 109 216 107 258 275 c 1
 201 239 184 227 172 227 c 0
 161 227 143 240 143 259 c 0
EndSplineSet
EndChar

StartChar: nacute
Encoding: 324 324 219
Width: 525
Flags: HW
TeX: 610 0
ItalicCorrection: 173
HStem: -5 62<417.826 454.043> 374 62<170.953 200.35 330.832 411.8> 619 20G<482 497.5>
VStem: 79 73<261.327 358.395> 124 64<-2.57192 77.2253> 347 70<57.1179 146.43> 415 70<233.572 371.86> 488 65<100.255 170.266>
LayerCount: 2
Fore
SplineSet
323 547 m 0
 324 566 340 572 350 577 c 0
 458 629 476 639 488 639 c 0
 507 639 521 622 521 606 c 0
 521 584 504 575 492 569 c 0
 380 515 365 506 355 506 c 0xe1
 330 506 323 536 323 547 c 0
EndSplineSet
Refer: 158 110 S 1 0 0 1 -0 0 3
EndChar

StartChar: ncaron
Encoding: 328 328 220
Width: 525
Flags: HW
TeX: 638 0
ItalicCorrection: 173
HStem: -5 62<417.826 454.043> 374 62<170.953 200.35 330.832 411.8> 619 20G<251 267 481 497.5>
VStem: 79 73<261.327 358.395> 124 64<-2.57192 77.2253> 347 70<57.1179 146.43> 415 70<233.572 371.86> 488 65<100.255 170.266>
LayerCount: 2
Fore
SplineSet
229 609 m 0
 229 625 243 639 259 639 c 0
 275 639 284 627 355 559 c 1
 420 598 472 639 490 639 c 0xe1
 505 639 518 626 518 610 c 0
 518 594 505 585 498 580 c 0
 363 487 363 484 349 484 c 0
 333 484 328 493 241 585 c 0
 234 593 229 599 229 609 c 0
EndSplineSet
Refer: 158 110 S 1 0 0 1 0 0 3
EndChar

StartChar: eng
Encoding: 331 331 221
Width: 525
Flags: HW
TeX: 430 222
ItalicCorrection: 173
HStem: -227 120<173.89 239.847> -5 21G<150.5 165> 373 63<170.446 200.375 328.394 412.602>
VStem: 79 89<279.154 365.354> 153 91<-164.327 -116.123> 415 70<234.621 371.883>
AnchorPoint: "affricate-below" 469 -222 basechar 0
AnchorPoint: "affricate-above" 678 611 basechar 0
AnchorPoint: "below" 205 -222 basechar 0
AnchorPoint: "above" 370 436 basechar 0
LayerCount: 2
Fore
SplineSet
79 287 m 0xf4
 79 288 97 436 188 436 c 0
 225 436 253 413 265 381 c 1
 297 414 336 436 384 436 c 0
 442 436 485 399 485 331 c 0
 485 264 433 142 417 79 c 0
 382 -56 340 -227 238 -227 c 0
 200 -227 153 -207 153 -160 c 0
 153 -131 174 -107 203 -107 c 0
 225 -107 244 -123 244 -147 c 0xec
 244 -155 242 -160 240 -166 c 1
 298 -149 337 68 360 133 c 0
 380 192 414 290 415 330 c 0
 415 350 412 374 383 374 c 0
 256 374 205 43 190 15 c 0
 183 1 171 -5 159 -5 c 0
 142 -5 125 8 124 27 c 0
 124 35 127 43 129 51 c 2
 192 306 l 2
 199 335 201 340 201 349 c 0
 201 361 196 373 188 373 c 0
 182 373 176 367 168 349 c 0
 142 290 157 259 113 259 c 0
 82 259 79 279 79 287 c 0xf4
EndSplineSet
EndChar

StartChar: rcaron
Encoding: 345 345 224
Width: 525
Flags: HW
TeX: 638 0
ItalicCorrection: 173
HStem: -5 21<190.5 206> 373 63<190.918 239.292 374.491 502.426> 619 20G<250 266 480 496.5>
VStem: 487 91<282.122 349.436>
AnchorPoint: "below" 200 0 basechar 0
AnchorPoint: "above" 377 619 basechar 0
LayerCount: 2
Fore
SplineSet
228 609 m 0
 228 625 242 639 258 639 c 0
 274 639 283 627 354 559 c 1
 419 598 471 639 489 639 c 0
 504 639 518 626 518 610 c 0
 518 594 505 585 498 580 c 0
 363 487 362 484 348 484 c 0
 332 484 327 493 240 585 c 0
 233 593 228 599 228 609 c 0
EndSplineSet
Refer: 162 114 S 1 0 0 1 0 0 3
EndChar

StartChar: sacute
Encoding: 347 347 225
Width: 525
Flags: HW
TeX: 610 0
ItalicCorrection: 173
HStem: -5 61<175.078 376.516> 374 62<272.659 427.122> 506 133
VStem: 97 92<77.5603 141.647> 182 62<276.951 348.035> 303 198 418 87<302.438 359.533> 422 62<96.3248 175.883>
AnchorPoint: "below" 271 0 basechar 0
AnchorPoint: "above" 410 619 basechar 0
LayerCount: 2
Fore
SplineSet
97 91 m 0
 97 137 128 152 148 152 c 0
 169 152 189 136 189 112 c 0xf1
 189 98 183 89 174 77 c 1
 190 67 213 56 270 56 c 0
 312 56 397 59 419 128 c 0
 421 134 422 138 422 143 c 0
 422 196 316 196 265 210 c 0
 228 221 182 248 182 303 c 0xe9
 182 346 212 436 360 436 c 0
 483 436 505 384 505 349 c 0
 505 315 483 294 457 294 c 0
 436 294 418 309 418 332 c 0
 418 343 422 350 428 360 c 1
 411 370 386 374 360 374 c 0
 255 374 244 322 244 305 c 0xea
 244 272 297 266 353 256 c 0
 467 237 484 177 484 145 c 0
 484 115 466 -5 270 -5 c 0
 120 -5 97 52 97 91 c 0
EndSplineSet
Refer: 50 180 S 1 0 0 1 -39 0 2
EndChar

StartChar: scaron
Encoding: 353 353 226
Width: 525
Flags: HW
TeX: 638 0
ItalicCorrection: 173
HStem: -5 61<174.838 377.657> 374 62<272.097 427.68> 619 20G<291 307 521 537.5>
VStem: 97 92<77.5603 141.647> 182 63<279.533 348.971> 418 87<302.438 359.533> 421 62<93.6213 171.618>
AnchorPoint: "below" 271 0 basechar 0
AnchorPoint: "above" 410 619 basechar 0
LayerCount: 2
Fore
SplineSet
97 91 m 0
 97 137 128 152 148 152 c 0
 169 152 189 136 189 112 c 0
 189 98 183 89 174 77 c 1
 189 68 206 56 267 56 c 0
 342 56 400 71 418 125 c 0xf4
 420 131 421 135 421 140 c 0
 421 177 364 187 282 209 c 0
 239 221 182 243 182 306 c 0xea
 182 346 211 436 361 436 c 0
 484 436 505 384 505 349 c 0
 505 315 483 294 457 294 c 0
 436 294 418 309 418 332 c 0xec
 418 343 422 350 428 360 c 1
 416 366 401 374 360 374 c 0
 260 374 245 327 245 308 c 0
 245 246 440 276 478 172 c 0
 482 162 483 152 483 142 c 0xea
 483 104 459 -5 270 -5 c 0
 119 -5 97 52 97 91 c 0
269 609 m 0
 269 625 283 639 299 639 c 0
 315 639 324 627 395 559 c 1
 460 598 512 639 530 639 c 0xe0
 545 639 559 626 559 610 c 0
 559 594 546 585 539 580 c 0
 404 487 403 484 389 484 c 0
 373 484 368 493 281 585 c 0
 274 593 269 599 269 609 c 0
EndSplineSet
EndChar

StartChar: scedilla
Encoding: 351 351 227
Width: 525
Flags: HW
TeX: 430 194
ItalicCorrection: 173
HStem: -208 61<88.5 273.891> 374 62<270.62 427.241>
VStem: 97 92<77.5149 141.577> 182 62<276.44 348.253> 295 71<-125.844 -71.4687> 418 87<302.438 359.533> 422 62<96.7197 176.828>
LayerCount: 2
Fore
SplineSet
87 -180 m 0
 87 -169 91 -147 122 -147 c 2
 146 -147 l 1
 185 -146 295 -145 295 -95 c 0
 295 -81 280 -70 254 -67 c 0
 251 -67 217 -67 217 -38 c 0
 217 -32 219 -24 224 -3 c 1
 148 3 97 34 97 91 c 0
 97 137 128 152 148 152 c 0
 172 152 189 134 189 112 c 0
 189 98 183 88 174 77 c 1
 195 64 215 59 253 57 c 1xea
 285 57 l 1
 402 59 422 120 422 145 c 0xea
 422 149 422 151 421 153 c 0
 397 219 240 176 192 263 c 0
 186 274 182 287 182 303 c 0
 182 347 213 436 360 436 c 0
 483 436 505 384 505 349 c 0
 505 315 483 294 457 294 c 0
 436 294 418 309 418 332 c 0
 418 343 422 350 428 360 c 1
 416 366 401 374 360 374 c 0
 255 374 244 322 244 305 c 0xdc
 244 251 370 274 440 225 c 0
 460 210 484 185 484 145 c 0
 484 109 459 11 316 -3 c 0
 309 -4 303 -4 296 -5 c 1
 294 -11 l 1
 328 -21 366 -45 366 -92 c 0
 366 -133 340 -175 276 -194 c 0
 231 -207 187 -208 134 -208 c 2
 120 -208 l 2
 94 -208 87 -190 87 -180 c 0
EndSplineSet
EndChar

StartChar: tcaron
Encoding: 357 357 228
Width: 525
Flags: HW
TeX: 610 0
ItalicCorrection: 173
HStem: -5 61<280.22 369.919> 369 61<157.5 274 362 478.324> 596 20<346 373>
VStem: 208 70<58.8608 181.004> 423 71<111.33 170.172> 446 137<579.872 672.866>
LayerCount: 2
Fore
SplineSet
419 508 m 0
 419 541 450 528 493 570 c 1
 450 577 446 611 446 623 c 0
 446 658 476 694 518 694 c 0
 557 694 583 664 583 626 c 0xf4
 583 548 489 477 450 477 c 0
 432 477 419 496 419 508 c 0
EndSplineSet
Refer: 164 116 S 1 0 0 1 0 -0 3
EndChar

StartChar: tcommaaccent
Encoding: 355 355 229
Width: 525
Flags: HW
TeX: 610 194
ItalicCorrection: 173
HStem: -208 61<139.431 313.984> 369 61<156.965 274 362 478.324> 596 20G<346 373>
VStem: 208 70<58.3947 181.53> 334 71<-126.776 -70.518> 422 72<108.7 169.981>
LayerCount: 2
Fore
SplineSet
138 -180 m 0
 138 -149 164 -147 176 -147 c 2
 198 -147 l 1
 267 -146 334 -136 334 -94 c 0
 334 -67 288 -66 283 -65 c 0
 267 -61 263 -50 263 -38 c 0
 263 -26 268 -11 271 2 c 1
 221 21 208 60 208 90 c 0
 208 108 208 106 274 369 c 1
 190 369 l 2
 165 369 155 382 155 397 c 0
 155 406 159 430 193 430 c 2
 290 430 l 1
 329 587 327 616 365 616 c 0
 381 616 398 603 398 583 c 0
 398 568 380 507 362 430 c 1
 445 430 l 2
 476 430 480 411 480 402 c 0
 480 391 475 369 443 369 c 2
 346 369 l 1
 341 344 278 103 278 89 c 0
 278 68 293 56 314 56 c 0
 347 56 394 84 422 143 c 0
 432 165 436 172 460 172 c 0
 489 172 494 154 494 143 c 0
 494 120 442 19 341 -3 c 1
 339 -12 l 1
 370 -22 405 -47 405 -92 c 0
 405 -133 376 -177 316 -195 c 0
 273 -208 230 -208 178 -208 c 2
 176 -208 l 2
 158 -208 138 -204 138 -180 c 0
EndSplineSet
EndChar

StartChar: uhungarumlaut
Encoding: 369 369 230
Width: 525
Flags: HW
TeX: 610 0
ItalicCorrection: 173
HStem: -5 62<241.194 312.522 425.373 461.017> 373 63<177.22 220.247> 506 133 619 20G<595 610.5>
VStem: 79 63<260.215 325.819> 166 69<59.8952 250.665> 221 69<297.286 372.007> 251 198 435 65<347.7 428.212> 479 74<69.6885 169.182>
AnchorPoint: "below" 262 0 basechar 0
AnchorPoint: "above" 417 619 basechar 0
LayerCount: 2
Fore
SplineSet
79 286 m 0
 79 311 122 436 213 436 c 0
 260 436 290 401 290 354 c 0xca
 290 308 266 291 255 245 c 0
 252 233 235 172 235 123 c 0
 235 76 248 57 270 57 c 0
 367 57 422 386 435 411 c 1
 443 424 455 430 467 430 c 0
 483 430 499 419 500 399 c 0xcc80
 500 390 498 382 496 374 c 2
 430 111 l 2
 428 104 425 93 425 83 c 0
 425 63 437 57 440 57 c 0
 449 58 462 63 479 130 c 0xc840
 484 147 485 172 516 172 c 2
 520 172 l 2
 549 172 553 153 553 144 c 0
 553 135 529 -5 441 -5 c 0
 407 -5 379 13 366 40 c 1
 344 20 316 -5 268 -5 c 0
 227 -5 166 17 166 127 c 0xcc40
 166 179 185 268 200 298 c 1
 200 298 221 334 221 357 c 0
 221 368 217 373 209 373 c 0
 206 373 203 372 200 371 c 0
 161 354 151 282 142 271 c 0
 134 260 123 259 116 259 c 2
 111 259 l 2
 85 259 79 277 79 286 c 0
437 547 m 0
 438 566 454 572 464 577 c 0
 572 629 589 639 601 639 c 0xd8
 620 639 635 622 635 606 c 0
 635 584 618 575 606 569 c 0
 494 515 479 506 469 506 c 0xe8
 444 506 437 536 437 547 c 0
EndSplineSet
Refer: 50 180 S 1 0 0 1 -91 0 2
EndChar

StartChar: uring
Encoding: 367 367 231
Width: 525
Flags: HW
TeX: 638 0
ItalicCorrection: 173
HStem: -5 61<231.495 316.96 425.823 458.828> 373 63<179.124 220.246> 473 36<359.892 426.859> 612 35<377.925 443.283>
VStem: 79 95<296.061 349.815> 156 70<60.1095 211.607> 221 69<285.181 372.007> 299 59<510.317 596.166> 446 59<523.942 610.95> 479 74<71.3086 169.182>
LayerCount: 2
Fore
SplineSet
79 287 m 0
 79 308 120 436 213 436 c 0
 260 436 290 401 290 354 c 0xfb
 290 306 226 186 226 107 c 0
 226 79 234 56 269 56 c 0
 345 56 378 190 398 270 c 0
 429 395 428 430 466 430 c 0
 487 430 500 414 500 397 c 0
 500 389 498 382 496 374 c 2
 430 111 l 2
 428 104 425 92 425 82 c 0
 425 65 435 57 441 57 c 0
 456 57 470 96 479 130 c 0xf540
 484 147 485 172 516 172 c 2
 520 172 l 2
 550 172 553 151 553 143 c 0
 553 140 532 -5 441 -5 c 0
 409 -5 382 11 367 38 c 1
 323 -4 282 -5 267 -5 c 0
 220 -5 156 17 156 107 c 0xf540
 156 195 221 325 221 356 c 0
 221 368 216 373 209 373 c 0
 199 373 185 362 174 346 c 0
 141 295 158 259 113 259 c 2
 110 259 l 2
 84 259 79 277 79 287 c 0
299 532 m 0
 299 561 313 647 422 647 c 0
 468 647 505 635 505 588 c 0
 505 563 494 473 380 473 c 0
 336 473 299 485 299 532 c 0
358 539 m 0
 358 517 371 509 389 509 c 0
 438 509 446 568 446 581 c 0
 446 606 429 612 415 612 c 0xf180
 370 612 358 559 358 539 c 0
EndSplineSet
EndChar

StartChar: ydieresis
Encoding: 255 255 232
Width: 525
Flags: HW
TeX: 638 222
ItalicCorrection: 173
HStem: -227 61<183.154 276.204> -5 61<248.013 347.346> 373 63<183.197 234.81> 511 100<261.764 337.265 466.773 542.236>
VStem: 109 92<-145.529 -77.8923> 171 69<64.3788 211.81> 235 70<282.64 372.628> 249 101<524.087 598.4> 454 101<523.464 598.319> 473 65<347.326 427.809>
AnchorPoint: "below" 188 -222 basechar 0
AnchorPoint: "above" 436 591 basechar 0
LayerCount: 2
Fore
SplineSet
79 287 m 0
 79 312 125 436 221 436 c 0
 271 436 305 398 305 351 c 0xf2
 305 303 240 192 240 111 c 0xf4
 240 81 251 56 294 56 c 0
 421 56 449 369 473 411 c 0
 480 422 492 430 505 430 c 0
 521 430 538 417 538 397 c 0
 538 389 536 381 534 374 c 2
 443 12 l 2
 390 -197 259 -227 213 -227 c 0
 154 -227 109 -189 109 -131 c 0
 109 -86 136 -67 161 -67 c 0
 182 -67 201 -81 201 -107 c 0xf840
 201 -123 193 -136 182 -146 c 1
 189 -159 201 -166 218 -166 c 0
 274 -166 347 -96 373 19 c 1
 345 2 323 -5 292 -5 c 0
 240 -5 171 17 171 111 c 0xf4
 171 199 235 323 235 352 c 0
 235 366 228 373 218 373 c 0
 208 373 196 367 185 355 c 0
 140 306 160 259 116 259 c 2xf2
 113 259 l 2
 83 259 79 277 79 287 c 0
EndSplineSet
Refer: 45 -1 S 1 0 0 1 61 -161 2
Refer: 405 183 S 1 0 0 1 -17 342 2
EndChar

StartChar: zcaron
Encoding: 382 382 234
Width: 525
Flags: HW
TeX: 638 0
ItalicCorrection: 173
HStem: -5 70<294.745 406.929> 365 71<260.412 365.666> 619 20G<306.5 322 536 552.5>
VStem: 167 70<280.762 341.011>
AnchorPoint: "below" 290 0 basechar 0
AnchorPoint: "above" 445 619 basechar 0
LayerCount: 2
Fore
SplineSet
284 609 m 0
 284 626 299 639 314 639 c 0
 330 639 339 627 410 559 c 1
 472 596 527 639 545 639 c 0
 560 639 573 626 573 610 c 0
 573 594 560 585 553 580 c 0
 418 487 418 484 404 484 c 0
 388 484 383 493 296 585 c 0
 289 593 284 599 284 609 c 0
EndSplineSet
Refer: 170 122 S 1 0 0 1 -0 0 3
EndChar

StartChar: zdotaccent
Encoding: 380 380 235
Width: 525
Flags: HW
TeX: 610 0
ItalicCorrection: 173
HStem: -5 70<294.745 406.929> 365 71<260.412 365.666> 522 89<381.48 453.561>
VStem: 167 70<280.762 341.011> 373 90<531.541 602.482>
AnchorPoint: "below" 290 0 basechar 0
AnchorPoint: "above" 438 591 basechar 0
LayerCount: 2
Fore
SplineSet
373 563 m 0
 373 591 398 611 422 611 c 0
 442 611 463 595 463 571 c 0
 463 543 437 522 414 522 c 0
 394 522 373 539 373 563 c 0
EndSplineSet
Refer: 170 122 S 1 0 0 1 0 0 3
EndChar

StartChar: ij
Encoding: 307 307 236
Width: 525
Flags: HW
TeX: 610 222
ItalicCorrection: 173
HStem: -227 116<216.365 285.164> -5 62<196.829 232.182> 374 62<177.606 213.174 411.48 464.787> 522 89<257.433 329.057 512.719 584.078>
VStem: 79 98<307.713 353.064> 127 69<57.2791 143.187> 200 91<-162.812 -120.356> 215 69<287.37 373.72> 234 98<79.0365 124.079> 249 89<531.057 602.482> 299 66<260.641 319.141> 465 70<253.461 373.805> 504 89<531.057 602.482>
DStem2: 323.711 -227 395.737 -227 0.242599 0.970127<88.5071 593.764>
LayerCount: 2
Fore
SplineSet
79 287 m 0
 79 308 117 436 209 436 c 0
 254 436 284 402 284 355 c 2
 284 348 l 2xf9
 284 316 196 102 196 73 c 0
 196 66 197 63 199 57 c 1
 212 57 221 59 234 77 c 0xf480
 271 129 249 172 299 172 c 2xf020
 300 172 l 2
 323 172 332 160 332 144 c 0
 332 118 290 -5 201 -5 c 0
 156 -5 127 29 127 76 c 2
 127 83 l 2xf480
 127 115 215 328 215 358 c 0
 215 364 214 368 212 374 c 1
 199 374 190 371 177 353 c 0
 139 300 162 259 111 259 c 1
 81 260 79 281 79 287 c 0
200 -165 m 0xf230
 200 -133 223 -111 249 -111 c 0xf040
 271 -111 291 -126 291 -152 c 0
 291 -155 291 -159 290 -163 c 1
 301 -157 l 1
 318 -144 l 1
 341 -116 356 -98 375 -21 c 2
 462 326 l 2
 464 335 465 344 465 350 c 0
 465 368 457 374 449 374 c 0
 400 373 369 281 365 274 c 0
 359 263 350 259 335 259 c 0
 304 259 299 276 299 287 c 0
 299 308 354 436 451 436 c 0
 501 436 535 398 535 346 c 0xf230
 535 330 532 319 529 305 c 2
 443 -38 l 2
 400 -209 306 -227 272 -227 c 0
 232 -227 200 -203 200 -165 c 0xf230
249 563 m 0
 249 591 274 611 297 611 c 0
 319 611 338 595 338 571 c 0xf040
 338 544 314 522 290 522 c 0
 270 522 249 539 249 563 c 0
504 563 m 0xf008
 504 587 525 611 552 611 c 0
 572 611 593 595 593 571 c 0
 593 544 569 522 545 522 c 0
 523 522 504 540 504 563 c 0xf008
EndSplineSet
Ligature2: "Latin Dutch ligatures subtable" i j
EndChar

StartChar: exclamdown
Encoding: 161 161 237
Width: 525
Flags: HW
TeX: 388 222
ItalicCorrection: 173
HStem: 264 125<302.336 385.374>
VStem: 155 128<-211.467 -136.641> 249 102<130.618 184.566> 280 127<285.615 366.845>
LayerCount: 2
Fore
SplineSet
155 -180 m 0xc0
 155 -171 158 -163 160 -155 c 2
 249 155 l 2xa0
 252 166 257 187 285 187 c 2
 316 187 l 2
 347 187 351 168 351 158 c 0xa0
 351 151 349 142 347 135 c 2
 283 -170 l 2
 272 -219 235 -233 211 -233 c 0
 182 -233 155 -212 155 -180 c 0xc0
280 318 m 0
 280 360 319 389 352 389 c 0
 381 389 407 367 407 334 c 0
 407 292 367 264 335 264 c 0x90
 302 264 280 288 280 318 c 0
EndSplineSet
EndChar

StartChar: questiondown
Encoding: 191 191 238
Width: 525
Flags: HW
TeX: 388 222
ItalicCorrection: 173
HStem: -233 61<163.802 284.7> 289 100<308.464 384.152>
VStem: 89 65<-160.638 -65.5796> 296 101<301.75 376.319> 301 65<98.4717 142.543> 322 90<-137.8 -50.6484>
LayerCount: 2
Fore
SplineSet
89 -118 m 0
 89 -63 121 -19 149 6 c 0
 169 24 277 89 286 98 c 0
 297 108 301 122 301 137 c 2
 301 144 l 1
 237 134 265 83 217 83 c 0
 192 83 182 95 182 111 c 0
 182 147 234 205 304 205 c 0
 341 205 366 176 366 135 c 0xe8
 366 117 361 77 329 47 c 0
 278 -1 154 -38 154 -119 c 0
 154 -151 177 -172 213 -172 c 0
 272 -172 325 -125 325 -111 c 0
 325 -105 322 -99 322 -91 c 0
 322 -65 344 -42 370 -42 c 0
 392 -42 412 -58 412 -82 c 0xe4
 412 -136 330 -233 213 -233 c 0
 142 -233 89 -187 89 -118 c 0
EndSplineSet
Refer: 59 729 S 1 0 0 1 -78 -222 2
EndChar

StartChar: sterling
Encoding: 163 163 239
Width: 525
Flags: HW
TeX: 610 0
ItalicCorrection: 173
HStem: -5 127<113.202 193.487> -5 65<269.139 347.741> 275 61<189.278 238 325 390.859> 556 63<397.711 442.638>
VStem: 365 67<72.9113 149.141> 443 67<490.913 555.491>
DStem2: 167.98 -5 239.231 -5 0.242599 0.970127<157.653 288.622 368.906 576.205>
LayerCount: 2
Fore
SplineSet
86 42 m 0
 86 79 120 122 167 122 c 0
 176 122 186 121 195 119 c 1
 206 148 l 1
 238 275 l 1
 223 275 l 2
 192 275 188 294 188 303 c 0
 188 330 205 336 226 336 c 2
 254 336 l 1
 261 367 288 475 293 490 c 0
 319 564 378 619 435 619 c 0
 465 619 510 603 510 526 c 0
 510 501 503 457 496 442 c 0
 492 434 478 414 452 414 c 0
 426 414 411 433 411 454 c 0
 411 480 430 493 438 498 c 1
 440 510 443 522 443 535 c 0
 443 545 442 556 432 556 c 0
 417 556 380 529 359 468 c 0
 355 455 351 442 325 336 c 1
 354 336 l 2
 372 336 392 332 392 307 c 0
 392 276 366 275 354 275 c 2xbc
 310 275 l 1
 309 274 l 1
 297 219 276 129 256 90 c 1
 261 87 300 60 324 60 c 0x7c
 352 60 357 116 365 133 c 0
 371 145 385 151 398 151 c 0
 415 151 432 141 432 122 c 0xbc
 432 108 404 -5 322 -5 c 0x7c
 280 -5 245 18 216 36 c 1
 197 16 165 -5 131 -5 c 0
 103 -5 86 17 86 42 c 0
EndSplineSet
EndChar

StartChar: Aacute
Encoding: 193 193 241
Width: 525
Flags: HW
TeX: 778 0
ItalicCorrection: 173
HStem: -0 62<72.4986 137.991 200 239.306 299.439 354 425 465.041> 164 61<271 361> 603 20<390.5 440>
VStem: 71 170<2.21578 59.748> 298 169<1.92894 59.8493>
DStem2: 129 62 200 62 0.400352 0.916361<28.425 139.509 206.217 546.231> 354 62 425 62 0.0835916 0.9965<5.935 102.228 163.349 281.326>
AnchorPoint: "below" 261 0 basechar 0
AnchorPoint: "above" 459 786 basechar 0
LayerCount: 2
Fore
SplineSet
387 725 m 0
 387 745 399 751 417 758 c 0
 539 805 544 807 554 807 c 0
 571 807 587 794 587 774 c 0
 587 752 568 742 555 737 c 0
 420 685 426 686 417 686 c 0
 393 686 387 712 387 725 c 0
EndSplineSet
Refer: 113 65 S 1 0 0 1 -0 -0 3
AlternateSubs2: "Stilistic set 01 subtable" Aacute.vn
AlternateSubs2: "Latin alternatives subtable" Aacute.vn
Substitution2: "Latin Vietnamese substitutions subtable" Aacute.vn
EndChar

StartChar: Acircumflex
Encoding: 194 194 242
Width: 525
Flags: HW
TeX: 819 0
ItalicCorrection: 173
HStem: 0 62<72.4986 137.991 200 239.306 299.439 354 425 465.041> 164 61<271 361> 603 20<390.5 440>
VStem: 71 170<2.21578 59.748> 298 169<1.92894 59.8493>
DStem2: 129 62 200 62 0.400352 0.916361<28.425 139.509 206.217 546.231> 354 62 425 62 0.0835916 0.9965<5.935 102.228 163.349 281.326>
AnchorPoint: "below" 261 0 basechar 0
AnchorPoint: "above" 463 803 basechar 0
LayerCount: 2
Fore
SplineSet
265 698 m 0
 265 714 280 723 288 728 c 0
 442 823 442 824 453 824 c 2
 454 824 l 2
 467 824 465 823 573 726 c 0
 579 720 591 712 591 697 c 0
 591 680 569 659 552 659 c 0
 536 659 533 667 447 751 c 1
 310 661 310 659 298 659 c 0
 277 659 265 683 265 698 c 0
EndSplineSet
Refer: 113 65 S 1 0 0 1 -0 0 3
AlternateSubs2: "Stilistic set 01 subtable" Acircumflex.vn
AlternateSubs2: "Latin alternatives subtable" Acircumflex.vn
Substitution2: "Latin Vietnamese substitutions subtable" Acircumflex.vn
EndChar

StartChar: Atilde
Encoding: 195 195 243
Width: 525
Flags: HW
TeX: 819 0
ItalicCorrection: 173
HStem: -0 62<72.4986 137.991 200 239.306 299.439 354 425 465.041> 164 61<271 361> 603 20<390.5 440> 690 67<475.626 570.439> 753 66<331.472 425.238>
VStem: 71 170<2.21578 59.748> 298 169<1.92894 59.8493>
DStem2: 129 62 200 62 0.400352 0.916361<28.425 139.509 206.217 546.231> 354 62 425 62 0.0835916 0.9965<5.935 102.228 163.349 281.326>
AnchorPoint: "below" 261 0 basechar 0
AnchorPoint: "above" 462 798 basechar 0
LayerCount: 2
Fore
SplineSet
239 722 m 0
 239 735 246 741 259 753 c 0
 289 780 335 819 386 819 c 0xee
 454 819 478 757 519 757 c 0xf6
 565 757 607 819 631 819 c 0xee
 643 819 662 807 662 788 c 0
 662 776 656 769 643 757 c 0
 618 734 565 690 514 690 c 0xf6
 449 690 421 753 382 753 c 0xee
 338 753 294 691 270 691 c 0
 253 691 239 707 239 722 c 0
EndSplineSet
Refer: 113 65 S 1 0 0 1 -0 -0 3
AlternateSubs2: "Stilistic set 01 subtable" Atilde.vn
AlternateSubs2: "Latin alternatives subtable" Atilde.vn
Substitution2: "Latin Vietnamese substitutions subtable" Atilde.vn
EndChar

StartChar: Adieresis
Encoding: 196 196 244
Width: 525
Flags: HW
TeX: 819 0
ItalicCorrection: 173
HStem: 0 62<72.4986 137.991 200 239.306 299.439 354 425 465.041> 164 61<271 361> 603 20<390.5 440> 719 100<313.764 389.265 517.849 593.536>
VStem: 71 170<2.21578 59.748> 298 169<1.92894 59.8493> 301 101<732.087 806.4> 505 101<731.681 805.798>
DStem2: 129 62 200 62 0.400352 0.916361<28.425 139.509 206.217 546.231> 354 62 425 62 0.0835916 0.9965<5.935 102.228 163.349 281.326>
AnchorPoint: "below" 261 0 basechar 0
AnchorPoint: "above" 462 798 basechar 0
LayerCount: 2
Fore
SplineSet
505 764 m 0xf9
 505 795 534 819 561 819 c 0
 588 819 606 799 606 774 c 0
 606 744 579 719 551 719 c 0
 526 719 505 739 505 764 c 0xf9
EndSplineSet
Refer: 405 183 S 1 0 0 1 35 550 2
Refer: 113 65 S 1 0 0 1 -0 0 3
EndChar

StartChar: Aring
Encoding: 197 197 245
Width: 525
Flags: HW
TeX: 778 0
ItalicCorrection: 173
HStem: -0 62<72.4986 129 200 239.306 299.439 354 425 465.041> 164 61<271 361> 766 61<399.561 481.388>
VStem: 71 170<2.21578 59.748> 298 169<1.92894 59.8493> 306 60<630.859 732.2> 488 60<656.686 760.429>
DStem2: 129 62 200 62 0.399121 0.916898<28.3376 139.423 206.13 546.159> 354 62 425 62 0.0634557 0.997985<4.50535 102.239 163.37 454.498>
LayerCount: 2
Fore
SplineSet
71 29 m 0
 71 45 79 62 109 62 c 2
 129 62 l 1
 351 572 l 1
 333 582 306 606 306 658 c 0xf6
 306 745 384 827 460 827 c 0
 513 827 548 787 548 731 c 0
 548 671 509 610 458 581 c 1
 425 62 l 1
 428 62 l 2
 443 62 467 61 467 33 c 0
 467 24 463 0 432 -0 c 2
 332 -0 l 2
 302 0 298 20 298 29 c 0xfa
 298 43 304 62 335 62 c 2
 354 62 l 1
 361 164 l 1
 244 164 l 1
 200 62 l 1
 202 62 l 2
 216 62 241 61 241 33 c 0
 241 19 234 0 203 -0 c 2
 106 -0 l 2
 75 0 71 20 71 29 c 0
271 225 m 1
 365 225 l 1
 376 367 l 1
 385 456 l 1
 392 515 l 1
 397 541 l 1
 377 476 324 350 271 225 c 1
366 674 m 0
 366 644 384 624 410 624 c 0
 447 624 488 667 488 715 c 0
 488 742 474 766 445 766 c 0xf6
 407 766 366 720 366 674 c 0
EndSplineSet
EndChar

StartChar: AE
Encoding: 198 198 246
Width: 525
Flags: HW
TeX: 610 0
ItalicCorrection: 173
HStem: -0 62<68.4219 116 174 203.314 238.452 277 336 423.395> 182 62<250 307> 286 62<407 518.427> 549 62<378 399 457 534>
VStem: 67 138<2.21014 60.0037> 519 81<484 582>
DStem2: 116 62 174 62 0.387972 0.921671<22.5024 152.502 219.732 528.388> 261.496 0 320.496 0 0.242599 0.970127<78.2225 187.602 252.602 309.116 372.903 565.958>
AnchorPoint: "below" 261 0 basechar 0
AnchorPoint: "above" 446 622 basechar 0
LayerCount: 2
Fore
SplineSet
67 29 m 0
 67 45 74 62 104 62 c 2
 116 62 l 1
 321 549 l 1
 316 550 295 555 295 578 c 0
 295 587 298 610 328 611 c 1
 567 611 l 2
 593 611 600 593 600 582 c 0
 600 573 596 563 577 487 c 0
 575 480 571 455 547 455 c 0
 532 455 519 466 519 484 c 0
 519 490 521 497 534 549 c 1
 457 549 l 1
 407 348 l 1
 486 348 l 2
 511 348 520 334 520 319 c 0
 520 309 517 286 484 286 c 2
 392 286 l 1
 392 285 l 1
 336 62 l 1
 419 62 l 1
 439 148 442 171 468 171 c 0
 482 171 497 158 497 144 c 0
 497 129 467 20 465 16 c 0
 457 1 443 0 433 -0 c 2
 273 -0 l 2
 242 0 237 17 237 29 c 0
 237 60 263 62 274 62 c 2
 277 62 l 1
 307 182 l 1
 224 182 l 1
 174 62 l 1
 195 62 205 47 205 32 c 0
 205 23 201 1 169 0 c 1
 104 0 l 2
 73 0 67 17 67 29 c 0
250 244 m 1
 323 244 l 1
 323 245 l 1
 399 549 l 1
 378 549 l 1
 250 244 l 1
EndSplineSet
EndChar

StartChar: Ccedilla
Encoding: 199 199 247
Width: 525
Flags: HW
TeX: 610 194
ItalicCorrection: 173
HStem: -208 61<112.735 282.481> 560 62<371.749 471.634>
VStem: 137 70<92.2242 324.608> 304 71<-126.368 -70.4702> 419 73<124.493 199.278>
AnchorPoint: "above" 426 622 basechar 0
LayerCount: 2
Fore
SplineSet
111 -180 m 0
 111 -166 118 -147 148 -147 c 2
 165 -147 l 2
 186 -147 304 -148 304 -94 c 0
 304 -81 294 -70 268 -67 c 0
 264 -67 234 -67 233 -39 c 0
 233 -26 238 -16 246 -6 c 1
 168 19 137 108 137 195 c 0
 137 390 279 622 426 622 c 0
 483 622 510 591 521 581 c 1
 538 605 546 622 567 622 c 0
 582 622 597 611 597 594 c 0
 597 587 598 593 558 432 c 0
 554 418 552 400 522 400 c 0
 508 400 487 401 487 430 c 0
 487 440 489 451 489 462 c 0
 489 463 490 466 490 469 c 0
 490 491 486 560 429 560 c 0
 331 560 207 366 207 194 c 0
 207 141 223 51 288 51 c 0
 341 51 397 103 419 167 c 0
 424 181 427 202 456 202 c 2
 458 202 l 2
 487 202 492 185 492 174 c 0
 492 137 433 11 304 -10 c 1
 335 -20 375 -43 375 -92 c 0
 375 -114 367 -136 354 -153 c 0
 314 -206 226 -208 154 -208 c 2
 143 -208 l 2
 117 -208 111 -190 111 -180 c 0
EndSplineSet
EndChar

StartChar: Egrave
Encoding: 200 200 248
Width: 525
Flags: HW
TeX: 778 0
ItalicCorrection: 173
HStem: 0 62<66.4144 131 203 414.012> 286 62<274 356> 549 62<204.074 253 324 512>
VStem: 497 94<493.376 546.731>
DStem2: 115.496 -1.34438e-13 187.496 -1.34438e-13 0.242599 0.970127<81.3763 312.27 376.057 565.958>
AnchorPoint: "above" 460 798 basechar 0
LayerCount: 2
Fore
SplineSet
352 771 m 0
 352 789 368 807 388 807 c 0
 399 807 403 805 505 756 c 0
 524 747 529 738 529 726 c 0
 529 715 515 686 493 686 c 0
 483 686 469 694 379 737 c 0
 366 743 352 752 352 771 c 0
EndSplineSet
Refer: 117 69 S 1 0 0 1 -0 0 3
AlternateSubs2: "Stilistic set 01 subtable" Egrave.vn
AlternateSubs2: "Latin alternatives subtable" Egrave.vn
Substitution2: "Latin Vietnamese substitutions subtable" Egrave.vn
EndChar

StartChar: Eacute
Encoding: 201 201 249
Width: 525
Flags: HW
TeX: 778 0
ItalicCorrection: 173
HStem: -0 62<66.4144 131 203 414.012> 286 62<274 356> 549 62<204.074 253 324 512>
VStem: 497 94<493.376 546.731>
DStem2: 115.496 -1.34438e-13 187.496 -1.34438e-13 0.242599 0.970127<81.3763 312.27 376.057 565.958>
AnchorPoint: "above" 460 798 basechar 0
LayerCount: 2
Fore
SplineSet
385 725 m 0
 385 745 397 751 415 758 c 0
 537 805 542 807 552 807 c 0
 569 807 585 794 585 774 c 0
 585 752 566 742 553 737 c 0
 418 685 424 686 415 686 c 0
 391 686 385 712 385 725 c 0
EndSplineSet
Refer: 117 69 S 1 0 0 1 -0 -0 3
AlternateSubs2: "Stilistic set 01 subtable" Eacute.vn
AlternateSubs2: "Latin alternatives subtable" Eacute.vn
Substitution2: "Latin Vietnamese substitutions subtable" Eacute.vn
EndChar

StartChar: Ecircumflex
Encoding: 202 202 250
Width: 525
Flags: HW
TeX: 819 0
ItalicCorrection: 173
HStem: -0 62<66.4144 131 203 414.012> 286 62<274 356> 549 62<204.074 253 324 512>
VStem: 497 94<493.376 546.731>
DStem2: 115.496 -1.34438e-13 187.496 -1.34438e-13 0.242599 0.970127<81.3763 312.27 376.057 565.958>
AnchorPoint: "above" 464 815 basechar 0
LayerCount: 2
Fore
SplineSet
273 698 m 0
 273 716 293 726 296 728 c 0
 450 823 450 824 461 824 c 2
 462 824 l 2
 475 824 474 823 582 726 c 0
 588 720 599 712 599 697 c 0
 599 681 578 659 561 659 c 0
 545 659 541 667 455 751 c 1
 318 661 319 659 307 659 c 0
 287 659 273 682 273 698 c 0
EndSplineSet
Refer: 117 69 S 1 0 0 1 -0 -0 3
AlternateSubs2: "Stilistic set 01 subtable" Ecircumflex.vn
AlternateSubs2: "Latin alternatives subtable" Ecircumflex.vn
Substitution2: "Latin Vietnamese substitutions subtable" Ecircumflex.vn
EndChar

StartChar: Edieresis
Encoding: 203 203 251
Width: 525
Flags: HW
TeX: 819 0
ItalicCorrection: 173
HStem: 0 62<66.4144 131 203 414.012> 286 62<274 356> 549 62<204.074 253 324 512> 719 100<313.764 389.265 517.849 594.125>
VStem: 301 101<732.087 806.4> 497 94<493.376 546.731> 505 102<731.681 805.798>
DStem2: 115.496 -1.34438e-13 187.496 -1.34438e-13 0.242599 0.970127<81.3763 312.27 376.057 565.958>
AnchorPoint: "above" 463 810 basechar 0
LayerCount: 2
Fore
SplineSet
505 764 m 0xfa
 505 795 534 819 561 819 c 0
 588 819 607 799 607 774 c 0
 607 744 579 719 551 719 c 0
 526 719 505 739 505 764 c 0xfa
EndSplineSet
Refer: 405 183 S 1 0 0 1 35 550 2
Refer: 117 69 S 1 0 0 1 -0 0 3
EndChar

StartChar: Igrave
Encoding: 204 204 252
Width: 525
Flags: HW
TeX: 778 0
ItalicCorrection: 173
HStem: 0 62<110.935 242 313 428.047> 549 62<248.699 363 435 565.297>
DStem2: 226.496 0 297.496 0 0.242599 0.970127<81.1337 565.715>
AnchorPoint: "below" 261 0 basechar 0
AnchorPoint: "above" 461 798 basechar 0
LayerCount: 2
Fore
SplineSet
389 771 m 0
 389 789 405 807 425 807 c 0
 436 807 440 805 542 756 c 0
 561 747 566 738 566 726 c 0
 566 715 552 686 530 686 c 0
 520 686 506 694 416 737 c 0
 403 743 389 752 389 771 c 0
EndSplineSet
Refer: 121 73 S 1 0 0 1 -0 0 3
AlternateSubs2: "Stilistic set 01 subtable" Igrave.vn
AlternateSubs2: "Latin alternatives subtable" Igrave.vn
Substitution2: "Latin Vietnamese substitutions subtable" Igrave.vn
EndChar

StartChar: Iacute
Encoding: 205 205 253
Width: 525
Flags: HW
TeX: 778 0
ItalicCorrection: 173
HStem: 0 62<110.935 242 313 428.047> 549 62<248.699 363 435 565.297>
DStem2: 226.496 0 297.496 0 0.242599 0.970127<81.1337 565.715>
AnchorPoint: "below" 261 0 basechar 0
AnchorPoint: "above" 461 798 basechar 0
LayerCount: 2
Fore
SplineSet
358 725 m 0
 358 745 369 751 387 758 c 0
 509 805 514 807 524 807 c 0
 541 807 557 794 557 774 c 0
 557 752 539 743 525 737 c 0
 390 685 397 686 388 686 c 0
 364 686 358 712 358 725 c 0
EndSplineSet
Refer: 121 73 S 1 0 0 1 0 0 3
AlternateSubs2: "Stilistic set 01 subtable" Iacute.vn
AlternateSubs2: "Latin alternatives subtable" Iacute.vn
Substitution2: "Latin Vietnamese substitutions subtable" Iacute.vn
EndChar

StartChar: Icircumflex
Encoding: 206 206 254
Width: 525
Flags: HW
TeX: 819 0
ItalicCorrection: 173
HStem: -0 62<110.935 242 313 428.047> 549 62<248.699 363 435 565.297>
DStem2: 226.496 -0 297.496 -0 0.242599 0.970127<81.1337 565.715>
AnchorPoint: "below" 261 0 basechar 0
AnchorPoint: "above" 465 815 basechar 0
LayerCount: 2
Fore
SplineSet
273 698 m 0
 273 716 293 726 296 728 c 0
 450 823 450 824 461 824 c 2
 462 824 l 2
 475 824 474 823 582 726 c 0
 588 720 599 712 599 697 c 0
 599 681 578 659 561 659 c 0
 545 659 541 667 455 751 c 1
 318 661 319 659 307 659 c 0
 287 659 273 682 273 698 c 0
EndSplineSet
Refer: 121 73 S 1 0 0 1 -0 -0 3
EndChar

StartChar: Idieresis
Encoding: 207 207 255
Width: 525
Flags: HW
TeX: 819 0
ItalicCorrection: 173
HStem: -0 62<110.935 242 313 428.047> 549 62<248.699 363 435 565.297> 719 100<313.764 389.265 517.849 594.125>
VStem: 301 101<732.087 806.4> 505 102<731.681 805.798>
DStem2: 226.496 -0 297.496 -0 0.242599 0.970127<81.1337 565.715>
AnchorPoint: "below" 261 0 basechar 0
AnchorPoint: "above" 464 810 basechar 0
LayerCount: 2
Fore
SplineSet
505 764 m 0
 505 795 534 819 561 819 c 0
 588 819 607 799 607 774 c 0
 607 744 579 719 551 719 c 0
 526 719 505 739 505 764 c 0
EndSplineSet
Refer: 405 183 S 1 0 0 1 35 550 2
Refer: 121 73 S 1 0 0 1 -0 -0 3
EndChar

StartChar: Eth
Encoding: 208 208 256
Width: 525
Flags: HW
TeX: 610 0
ItalicCorrection: 173
HStem: -0 62<62.6982 121 193 324.147> 269 62<130.5 173 261 372.161> 549 62<200.501 243 315 435.864>
VStem: 470 72<282.256 509.451>
DStem2: 105.496 -0 177.496 -0 0.242599 0.970127<81.3763 277.341 358.837 565.958>
LayerCount: 2
Fore
SplineSet
61 29 m 0
 61 41 66 62 99 62 c 2
 121 62 l 1
 173 269 l 1
 164 269 l 2
 133 269 129 289 129 298 c 0
 129 308 132 331 165 331 c 2
 189 331 l 1
 243 549 l 1
 236 549 l 2
 221 549 199 551 199 579 c 0
 199 595 209 611 233 611 c 2
 415 611 l 2
 444 611 491 607 521 537 c 0
 530 516 542 480 542 424 c 0
 542 222 405 0 266 -0 c 2
 97 -0 l 2
 65 0 61 21 61 29 c 0
193 62 m 1
 260 62 l 2
 286 62 304 67 326 82 c 0
 399 133 470 272 470 409 c 0
 470 459 456 540 399 548 c 0
 394 549 388 549 383 549 c 2
 315 549 l 1
 261 331 l 1
 339 331 l 2
 363 331 374 317 374 302 c 0
 374 294 371 269 337 269 c 2
 245 269 l 1
 193 62 l 1
EndSplineSet
EndChar

StartChar: Ntilde
Encoding: 209 209 257
Width: 525
Flags: HW
TeX: 819 0
ItalicCorrection: 173
HStem: 0 62<69.5625 130 188 232.358> 549 62<206.439 251 444.439 489 541.764 608.369> 690 67<475.107 570.95> 753 66<332.303 426.177>
VStem: 68 166<2.10278 59.948> 306 52<282.432 533.506> 319 53<78.7661 324.752> 443 167<551.117 609.047>
DStem2: 114.496 0 172.496 0 0.242599 0.970127<77.9799 564.506> 351.995 0 410.248 0 0.242599 0.970127<78.3403 565.837>
LayerCount: 2
Fore
SplineSet
239 722 m 0
 239 735 247 741 260 753 c 0
 290 780 336 819 387 819 c 0xd9
 455 819 478 757 519 757 c 0xe9
 565 757 608 819 632 819 c 0xd9
 644 819 663 807 663 788 c 0
 663 776 656 769 643 757 c 0
 618 734 566 690 515 690 c 0xe9
 450 690 422 753 383 753 c 0xd9
 339 753 294 691 270 691 c 0
 253 691 239 707 239 722 c 0
EndSplineSet
Refer: 126 78 S 1 0 0 1 -0 -0 3
EndChar

StartChar: Ograve
Encoding: 210 210 258
Width: 525
Flags: HW
TeX: 778 0
ItalicCorrection: 173
HStem: -11 61<186.928 372.477> 560 62<301.553 487.384>
VStem: 105 80<11 145.551> 491 79<467.233 595.5>
AnchorPoint: "below" 261 0 basechar 0
AnchorPoint: "above" 458 787 basechar 0
LayerCount: 2
Fore
SplineSet
105 26 m 0
 105 79 201 472 236 565 c 0
 251 604 253 622 404 622 c 2
 432 622 l 2
 558 622 570 607 570 584 c 0
 570 527 470 127 439 46 c 0
 423 6 419 -11 272 -11 c 2
 260 -11 l 2
 135 -11 105 -4 105 26 c 0
185 80 m 0
 185 60 198 50 269 50 c 0
 369 50 372 62 385 99 c 0
 406 161 491 496 491 533 c 0
 491 554 476 560 410 560 c 2
 394 560 l 2
 303 560 303 547 290 512 c 1
 275 467 185 122 185 80 c 0
344 771 m 0
 344 789 360 807 380 807 c 0
 391 807 395 805 497 756 c 0
 516 747 521 738 521 726 c 0
 521 715 507 686 485 686 c 0
 475 686 461 694 371 737 c 0
 358 743 344 752 344 771 c 0
EndSplineSet
AlternateSubs2: "Stilistic set 01 subtable" Ograve.vn
AlternateSubs2: "Latin alternatives subtable" Ograve.vn
Substitution2: "Latin Vietnamese substitutions subtable" Ograve.vn
EndChar

StartChar: Oacute
Encoding: 211 211 259
Width: 525
Flags: HW
TeX: 778 0
ItalicCorrection: 173
HStem: -11 61<186.928 372.477> 560 62<301.553 487.384>
VStem: 105 80<11 145.551> 491 79<467.233 595.5>
AnchorPoint: "below" 261 0 basechar 0
AnchorPoint: "above" 458 787 basechar 0
LayerCount: 2
Fore
SplineSet
105 26 m 0
 105 79 201 472 236 565 c 0
 251 604 253 622 404 622 c 2
 432 622 l 2
 558 622 570 607 570 584 c 0
 570 527 470 127 439 46 c 0
 423 6 419 -11 272 -11 c 2
 260 -11 l 2
 135 -11 105 -4 105 26 c 0
185 80 m 0
 185 60 198 50 269 50 c 0
 369 50 372 62 385 99 c 0
 406 161 491 496 491 533 c 0
 491 554 476 560 410 560 c 2
 394 560 l 2
 303 560 303 547 290 512 c 1
 275 467 185 122 185 80 c 0
365 725 m 0
 365 745 377 751 395 758 c 0
 517 805 522 807 532 807 c 0
 549 807 565 794 565 774 c 0
 565 752 546 742 533 737 c 0
 398 685 404 686 395 686 c 0
 371 686 365 712 365 725 c 0
EndSplineSet
AlternateSubs2: "Stilistic set 01 subtable" Oacute.vn
AlternateSubs2: "Latin alternatives subtable" Oacute.vn
Substitution2: "Latin Vietnamese substitutions subtable" Oacute.vn
EndChar

StartChar: Ocircumflex
Encoding: 212 212 260
Width: 525
Flags: HW
TeX: 819 0
ItalicCorrection: 173
HStem: -11 61<208.902 350.812> 560 62<323.043 470.591>
VStem: 122 76<62.7821 215.401> 481 74<394.834 548.606>
AnchorPoint: "below" 261 0 basechar 0
AnchorPoint: "above" 463 804 basechar 0
LayerCount: 2
Fore
SplineSet
274 698 m 0
 274 716 294 726 297 728 c 0
 451 823 451 824 462 824 c 0
 475 824 474 823 582 726 c 0
 588 720 600 712 600 697 c 0
 600 681 578 659 561 659 c 0
 545 659 542 667 456 751 c 1
 319 661 319 659 307 659 c 0
 287 659 274 682 274 698 c 0
EndSplineSet
Refer: 127 79 S 1 0 0 1 0 -0 3
AlternateSubs2: "Stilistic set 01 subtable" Ocircumflex.vn
AlternateSubs2: "Latin alternatives subtable" Ocircumflex.vn
Substitution2: "Latin Vietnamese substitutions subtable" Ocircumflex.vn
EndChar

StartChar: Otilde
Encoding: 213 213 261
Width: 525
Flags: HW
TeX: 819 0
ItalicCorrection: 173
HStem: -11 61<208.902 350.812> 560 62<323.043 470.591> 690 67<475.107 570.95> 753 66<331.644 426.177>
VStem: 122 76<62.7821 215.401> 481 74<394.834 548.606>
AnchorPoint: "below" 261 0 basechar 0
AnchorPoint: "above" 461 799 basechar 0
LayerCount: 2
Fore
SplineSet
239 722 m 0
 239 735 247 741 260 753 c 0
 285 776 336 819 387 819 c 0xdc
 455 819 478 757 519 757 c 0xec
 565 757 608 819 632 819 c 0xdc
 644 819 663 807 663 788 c 0
 663 776 656 769 643 757 c 0
 618 734 566 690 515 690 c 0xec
 450 690 422 753 383 753 c 0xdc
 339 753 294 691 270 691 c 0
 253 691 239 707 239 722 c 0
EndSplineSet
Refer: 127 79 S 1 0 0 1 0 -0 3
AlternateSubs2: "Stilistic set 01 subtable" Otilde.vn
AlternateSubs2: "Latin alternatives subtable" Otilde.vn
Substitution2: "Latin Vietnamese substitutions subtable" Otilde.vn
EndChar

StartChar: Odieresis
Encoding: 214 214 262
Width: 525
Flags: HW
TeX: 819 0
ItalicCorrection: 173
HStem: -11 61<208.902 350.812> 560 62<323.043 470.591> 719 100<314.764 390.493 518.773 594.236>
VStem: 122 76<62.7821 215.401> 302 101<731.528 806.536> 481 74<394.834 548.606> 506 101<731.464 806.319>
AnchorPoint: "below" 261 0 basechar 0
AnchorPoint: "above" 461 799 basechar 0
LayerCount: 2
Fore
SplineSet
302 764 m 0
 302 792 327 819 358 819 c 0
 382 819 403 801 403 774 c 0
 403 741 373 719 348 719 c 0xf8
 323 719 302 737 302 764 c 0
EndSplineSet
Refer: 45 -1 S 1 0 0 1 113 47 2
Refer: 127 79 S 1 0 0 1 0 -0 3
EndChar

StartChar: OE
Encoding: 338 338 263
Width: 525
Flags: HW
TeX: 610 0
ItalicCorrection: 173
HStem: -11 62<170.367 267.646> 0 62<335 426.396> 286 62<407 524.495> 549 62<457 538> 560 62<284.242 460.68>
VStem: 97 63<60.8132 199.957> 523 80<489.948 547.279>
DStem2: 258.737 -11 316.745 -11 0.242599 0.970127<89.8871 319.244 384.244 550.037>
AnchorPoint: "above" 446 622 basechar 0
LayerCount: 2
Fore
SplineSet
97 64 m 0
 97 144 171 445 214 538 c 0
 230 573 254 622 364 622 c 0xae
 403 622 403 611 459 611 c 2
 570 611 l 2
 600 611 603 589 603 582 c 0
 603 571 578 475 575 470 c 0
 571 462 563 455 551 455 c 0
 536 455 523 469 523 482 c 0
 523 493 529 512 538 549 c 1
 457 549 l 1
 407 348 l 1
 491 348 l 2
 516 348 526 334 526 319 c 0
 526 308 522 286 489 286 c 2
 392 286 l 1
 391 285 l 1
 335 62 l 1
 422 62 l 1x76
 442 149 445 171 472 171 c 0
 486 171 500 160 500 143 c 0
 500 132 495 119 472 28 c 0
 465 0 450 0 435 0 c 2
 314 0 l 2x76
 306 0 299 0 291 1 c 1
 247 -7 220 -11 205 -11 c 0
 105 -11 97 30 97 64 c 0
160 103 m 0
 160 58 200 51 223 51 c 0
 269 51 283 85 307 182 c 2
 375 456 l 2
 381 481 386 507 386 525 c 0xae
 386 553 369 560 351 560 c 0
 274 560 257 507 242 461 c 0
 225 409 160 175 160 103 c 0
EndSplineSet
EndChar

StartChar: Oslash
Encoding: 216 216 264
Width: 525
Flags: HW
TeX: 666 55
ItalicCorrection: 173
HStem: -11 62<250 360.402> 560 62<317.077 427>
VStem: 122 63<55.5 216.609> 492 63<394.324 559>
DStem2: 159 3 220 -10 0.434341 0.900748<-62.1986 3.29368 82.761 618.12 697.59 763.514>
LayerCount: 2
Fore
SplineSet
122 73 m 0
 122 130 139 203 178 358 c 0
 238 592 270 622 417 622 c 0
 430 622 444 622 457 621 c 1
 484 678 488 695 511 695 c 0
 528 695 543 682 543 666 c 0
 543 655 534 641 518 608 c 1
 541 596 555 580 555 538 c 0
 555 452 487 195 459 119 c 0
 418 11 382 -11 260 -11 c 0
 247 -11 233 -11 220 -10 c 1
 194 -68 188 -84 166 -84 c 0
 150 -84 135 -71 135 -55 c 0
 135 -44 143 -30 159 3 c 1
 130 18 122 38 122 73 c 0
185 111 m 0
 185 97 186 86 194 75 c 1
 427 560 l 1
 400 560 l 2
 310 560 288 525 262 450 c 0
 240 384 185 179 185 111 c 0
250 51 m 1
 276 51 l 2
 395 51 404 102 469 363 c 0
 479 407 492 463 492 501 c 0
 492 522 489 527 484 536 c 1
 250 51 l 1
EndSplineSet
EndChar

StartChar: Ugrave
Encoding: 217 217 265
Width: 525
Flags: HW
TeX: 778 0
ItalicCorrection: 173
HStem: -11 62<229.387 320.773> 549 62<184.719 234 301.123 371.489 442.562 491 558.077 628.481>
VStem: 141 70<67.8446 249.321>
DStem2: 94.7329 -11 165.734 -11 0.242599 0.970127<176.101 577.057> 351.483 -11 423.484 -11 0.242599 0.970127<121.292 577.118>
AnchorPoint: "below" 269 0 basechar 0
AnchorPoint: "above" 461 798 basechar 0
LayerCount: 2
Fore
SplineSet
352 772 m 0
 352 785 364 807 388 807 c 0
 399 807 403 805 505 756 c 0
 514 752 529 744 529 726 c 0
 529 715 515 686 493 686 c 0
 483 686 469 694 379 737 c 0
 366 743 352 753 352 772 c 0
EndSplineSet
Refer: 133 85 S 1 0 0 1 -0 0 3
AlternateSubs2: "Stilistic set 01 subtable" Ugrave.vn
AlternateSubs2: "Latin alternatives subtable" Ugrave.vn
Substitution2: "Latin Vietnamese substitutions subtable" Ugrave.vn
EndChar

StartChar: Uacute
Encoding: 218 218 266
Width: 525
Flags: HW
TeX: 778 0
ItalicCorrection: 173
HStem: -11 62<229.387 320.773> 549 62<184.719 234 301.123 371.489 442.562 491 558.077 628.481>
VStem: 141 70<67.8446 249.321>
DStem2: 94.7329 -11 165.734 -11 0.242599 0.970127<176.101 577.057> 351.483 -11 423.484 -11 0.242599 0.970127<121.292 577.118>
AnchorPoint: "below" 269 0 basechar 0
AnchorPoint: "above" 461 798 basechar 0
LayerCount: 2
Fore
SplineSet
385 725 m 0
 385 745 397 751 415 758 c 0
 537 805 542 807 552 807 c 0
 569 807 585 794 585 774 c 0
 585 752 566 742 553 737 c 0
 418 685 424 686 415 686 c 0
 391 686 385 712 385 725 c 0
EndSplineSet
Refer: 133 85 S 1 0 0 1 -0 -0 3
AlternateSubs2: "Stilistic set 01 subtable" Uacute.vn
AlternateSubs2: "Latin alternatives subtable" Uacute.vn
Substitution2: "Latin Vietnamese substitutions subtable" Uacute.vn
EndChar

